<svg width="24" height="24" viewBox="0 0 24 24" fill="none" xmlns="http://www.w3.org/2000/svg">
<path d="M17 8C17 10.7614 14.7614 13 12 13C9.23858 13 7 10.7614 7 8C7 5.23858 9.23858 3 12 3C14.7614 3 17 5.23858 17 8ZM13.1127 7.90856C13.3056 7.72208 13.5271 7.50788 13.7542 7.17262C14.152 6.58646 14.0054 5.80491 13.7472 5.37924C13.4472 4.89078 12.854 4.5 11.9957 4.5C10.97 4.5 10.2652 5.1699 10 5.95843L10.956 6.35618C11.0816 5.96541 11.3886 5.49787 12.0027 5.49787C12.9448 5.49787 13.1332 6.37712 12.7982 6.85163C12.6587 7.05001 12.4752 7.21948 12.2892 7.39123C12.0564 7.60612 11.8198 7.82457 11.6608 8.10769C11.4661 8.45455 11.473 8.85459 11.4779 9.14099C11.4787 9.18297 11.4794 9.22251 11.4794 9.25908H12.54C12.54 8.71479 12.5749 8.60314 12.6656 8.43566C12.777 8.23327 12.9323 8.08305 13.1127 7.90856ZM12.0097 11.4781C12.4214 11.4781 12.7284 11.1502 12.7354 10.7454C12.7354 10.3337 12.4214 10.0197 12.0097 10.0197C11.605 10.0197 11.277 10.3337 11.277 10.7454C11.277 11.1502 11.598 11.4781 12.0097 11.4781Z" fill="#1A1A1A"/>
<path d="M2 10H6.34141C7.16508 12.3304 9.38756 14 12 14C14.6124 14 16.8349 12.3304 17.6586 10H21C22.1046 10 23 10.8954 23 12V15H21C21 16.6569 19.6569 18 18 18C16.3431 18 15 16.6569 15 15H9C9 16.6569 7.65685 18 6 18C4.34315 18 3 16.6569 3 15H1V11C1 10.4477 1.44772 10 2 10ZM5 15C5 15.5523 5.44772 16 6 16C6.55228 16 7 15.5523 7 15C7 14.4477 6.55228 14 6 14C5.44772 14 5 14.4477 5 15ZM18 14C17.4477 14 17 14.4477 17 15C17 15.5523 17.4477 16 18 16C18.5523 16 19 15.5523 19 15C19 14.4477 18.5523 14 18 14Z" fill="#1A1A1A"/>
</svg>
