<svg width="24" height="24" viewBox="0 0 24 24" fill="none" xmlns="http://www.w3.org/2000/svg">
<path d="M2.71429 10L3.84832 8.01544C4.56049 6.76914 5.88586 6 7.32129 6H8.97076C9.61667 6 10.2228 6.31193 10.5982 6.83752L12.8571 10H18C20.7614 10 23 12.2386 23 15H21C21 16.6569 19.6569 18 18 18C16.3431 18 15 16.6569 15 15H8C8 16.6569 6.65685 18 5 18C3.34315 18 2 16.6569 2 15H1V11C1 10.4477 1.44772 10 2 10H2.71429ZM7.32129 8C6.60358 8 5.94089 8.38457 5.5848 9.00772L5.01779 10H10.3993L8.97076 8H7.32129ZM6 15C6 14.4477 5.55228 14 5 14C4.44772 14 4 14.4477 4 15C4 15.5523 4.44772 16 5 16C5.55228 16 6 15.5523 6 15ZM19 15C19 14.4477 18.5523 14 18 14C17.4477 14 17 14.4477 17 15C17 15.5523 17.4477 16 18 16C18.5523 16 19 15.5523 19 15Z" fill="#1A1A1A"/>
</svg>
