<svg width="24" height="24" viewBox="0 0 24 24" fill="none" xmlns="http://www.w3.org/2000/svg">
<path d="M1 16V7C1 5.89543 1.89543 5 3 5H14.8593C16.1967 5 17.4456 5.6684 18.1875 6.7812L21 11C22.1046 11 23 11.8954 23 13V16H21C21 17.6569 19.6569 19 18 19C16.3431 19 15 17.6569 15 16H8C8 17.6569 6.65685 19 5 19C3.34315 19 2 17.6569 2 16H1ZM15 7.00495L14 7V11H18.5963L16.5234 7.8906C16.1786 7.37344 15.6148 7.04824 15 7.00495ZM4 16C4 16.5523 4.44772 17 5 17C5.55228 17 6 16.5523 6 16C6 15.4477 5.55228 15 5 15C4.44772 15 4 15.4477 4 16ZM17 16C17 16.5523 17.4477 17 18 17C18.5523 17 19 16.5523 19 16C19 15.4477 18.5523 15 18 15C17.4477 15 17 15.4477 17 16Z" fill="#1A1A1A"/>
</svg>
