<svg width="24" height="24" viewBox="0 0 24 24" fill="none" xmlns="http://www.w3.org/2000/svg">
<path d="M1 8.56619V16H3C3 17.6569 4.34315 19 6 19C7.65685 19 9 17.6569 9 16H15C15 17.6569 16.3431 19 18 19C19.6569 19 21 17.6569 21 16H23V12C23 10.8954 22.1046 10 21 10H17.6667L15.5279 6.18772C15.2069 5.46547 14.4906 5 13.7003 5H6.55397C6.19148 5 5.83581 5.09852 5.52498 5.28501L1.4855 7.7087C1.1843 7.88942 1 8.21493 1 8.56619ZM9 7V10H3V9.13238L6.55397 7H9ZM11 7H13.7003L15.478 10H11V7ZM19 16C19 16.5523 18.5523 17 18 17C17.4477 17 17 16.5523 17 16C17 15.4477 17.4477 15 18 15C18.5523 15 19 15.4477 19 16ZM6 17C5.44772 17 5 16.5523 5 16C5 15.4477 5.44772 15 6 15C6.55228 15 7 15.4477 7 16C7 16.5523 6.55228 17 6 17Z" fill="#1A1A1A"/>
</svg>
