<svg width="24" height="24" viewBox="0 0 24 24" fill="none" xmlns="http://www.w3.org/2000/svg">
<path d="M9 6.00024V8.04096L10.3993 10H2C1.44772 10 1 10.4477 1 11V15H2C2 16.6569 3.34315 18 5 18C6.65685 18 8 16.6569 8 15H15C15 16.6569 16.3431 18 18 18C19.6569 18 21 16.6569 21 15H23C23 12.2386 20.7614 10 18 10H12.8571L10.5982 6.83755C10.2285 6.3199 9.63492 6.0095 9 6.00024ZM5 14C5.55228 14 6 14.4477 6 15C6 15.5523 5.55228 16 5 16C4.44772 16 4 15.5523 4 15C4 14.4477 4.44772 14 5 14ZM18 14C18.5523 14 19 14.4477 19 15C19 15.5523 18.5523 16 18 16C17.4477 16 17 15.5523 17 15C17 14.4477 17.4477 14 18 14Z" fill="#1A1A1A"/>
</svg>
