<svg width="24" height="24" viewBox="0 0 24 24" fill="none" xmlns="http://www.w3.org/2000/svg">
<path d="M13.9415 6C15.2333 6 16.4456 6.62386 17.1965 7.67505L18.8571 10H21C22.1046 10 23 10.8954 23 12V15H21C21 16.6569 19.6569 18 18 18C16.3431 18 15 16.6569 15 15H9C9 16.6569 7.65685 18 6 18C4.34315 18 3 16.6569 3 15H1V8C1 6.89543 1.89543 6 3 6H13.9415ZM10 8H3V10H10V8ZM12 8V10H16.3993L15.569 8.83752C15.1936 8.31193 14.5874 8 13.9415 8H12ZM19 15C19 14.4477 18.5523 14 18 14C17.4477 14 17 14.4477 17 15C17 15.5523 17.4477 16 18 16C18.5523 16 19 15.5523 19 15ZM6 16C6.55228 16 7 15.5523 7 15C7 14.4477 6.55228 14 6 14C5.44772 14 5 14.4477 5 15C5 15.5523 5.44772 16 6 16Z" fill="#1A1A1A"/>
</svg>
