<svg width="24" height="24" viewBox="0 0 24 24" fill="none" xmlns="http://www.w3.org/2000/svg">
<path d="M1 10V15H3C3 16.6569 4.34315 18 6 18C7.65685 18 9 16.6569 9 15H15C15 16.6569 16.3431 18 18 18C19.6569 18 21 16.6569 21 15H23V12C23 10.8954 22.1046 10 21 10H18.8571L17.1965 7.67505C16.4456 6.62386 15.2333 6 13.9415 6H10V10H1ZM12 10V8H13.9415C14.5874 8 15.1936 8.31193 15.569 8.83752L16.3993 10H12ZM19 15C19 15.5523 18.5523 16 18 16C17.4477 16 17 15.5523 17 15C17 14.4477 17.4477 14 18 14C18.5523 14 19 14.4477 19 15ZM6 16C5.44772 16 5 15.5523 5 15C5 14.4477 5.44772 14 6 14C6.55228 14 7 14.4477 7 15C7 15.5523 6.55228 16 6 16Z" fill="#1A1A1A"/>
</svg>
