<svg width="24" height="24" viewBox="0 0 24 24" fill="none" xmlns="http://www.w3.org/2000/svg">
<path d="M2.5 10.9999C1.94771 10.9999 1.5 11.4476 1.5 11.9999V14.9999H2.5C2.5 16.6567 3.84315 17.9999 5.5 17.9999C7.15685 17.9999 8.5 16.6567 8.5 14.9999H15.5C15.5 16.6567 16.8431 17.9999 18.5 17.9999C20.1569 17.9999 21.5 16.6567 21.5 14.9999H23.5C23.5 12.2385 21.2614 10.9999 18.5 10.9999H17.3571C17.3571 10.9999 17 10.4999 15.5 9.49991C14 8.49991 7.5 5.49991 3 10.9999L2.5 10.9999ZM4.5 14.9999C4.5 14.4476 4.94771 13.9999 5.5 13.9999C6.05228 13.9999 6.5 14.4476 6.5 14.9999C6.5 15.5522 6.05228 15.9999 5.5 15.9999C4.94771 15.9999 4.5 15.5522 4.5 14.9999ZM17.5 14.9999C17.5 14.4476 17.9477 13.9999 18.5 13.9999C19.0523 13.9999 19.5 14.4476 19.5 14.9999C19.5 15.5522 19.0523 15.9999 18.5 15.9999C17.9477 15.9999 17.5 15.5522 17.5 14.9999ZM5.5 10.9999C9 7.49989 14 10.4999 14.5 10.9999H5.5Z" fill="#1A1A1A"/>
</svg>
