<svg width="24" height="24" viewBox="0 0 24 24" fill="none" xmlns="http://www.w3.org/2000/svg">
<path d="M7.44421 1.07705C6.27381 1.13227 5.47455 1.31905 4.77583 1.59361C4.05269 1.87543 3.43977 2.25361 2.82993 2.86565C2.22009 3.47769 1.84455 4.09105 1.56471 4.81529C1.29389 5.51555 1.11041 6.31547 1.05871 7.48653C1.00701 8.65759 0.995572 9.03401 1.00129 12.0212C1.00701 15.0083 1.02021 15.3828 1.07697 16.5563C1.13285 17.7264 1.31897 18.5255 1.59353 19.2244C1.87579 19.9476 2.25353 20.5603 2.86579 21.1703C3.47805 21.7804 4.09097 22.155 4.81697 22.4353C5.51657 22.7057 6.31671 22.8901 7.48755 22.9413C8.65839 22.9926 9.03525 23.0045 12.0215 22.9987C15.0078 22.993 15.3838 22.9798 16.5571 22.9242C17.7303 22.8685 18.5252 22.6811 19.2243 22.4078C19.9475 22.1249 20.5606 21.7478 21.1702 21.1353C21.7799 20.5229 22.1552 19.9091 22.4348 19.1844C22.7058 18.4848 22.89 17.6846 22.9408 16.5147C22.9921 15.3405 23.0042 14.9657 22.9984 11.9789C22.9927 8.99221 22.9793 8.61777 22.9236 7.44473C22.868 6.27169 22.6816 5.47507 22.4073 4.77569C22.1246 4.05255 21.7473 3.44029 21.1353 2.82979C20.5232 2.21929 19.909 1.84419 19.1845 1.56523C18.4845 1.29441 17.6848 1.10983 16.5139 1.05923C15.3431 1.00863 14.9662 0.995653 11.9789 1.00137C8.99147 1.00709 8.61747 1.01985 7.44421 1.07705ZM7.57269 20.9624C6.50019 20.9158 5.91785 20.7376 5.52977 20.5884C5.01585 20.3904 4.64977 20.1511 4.26301 19.768C3.87625 19.385 3.63865 19.0176 3.43801 18.5048C3.28731 18.1167 3.10581 17.535 3.05565 16.4625C3.00109 15.3034 2.98965 14.9553 2.98327 12.0185C2.97689 9.08175 2.98811 8.73415 3.03893 7.57453C3.08469 6.50291 3.26399 5.91991 3.41293 5.53205C3.61093 5.01747 3.84941 4.65205 4.23331 4.26551C4.61721 3.87897 4.98351 3.64093 5.49677 3.44029C5.88441 3.28893 6.46609 3.10897 7.53815 3.05793C8.69821 3.00293 9.04581 2.99193 11.9822 2.98555C14.9185 2.97917 15.267 2.99017 16.4275 3.04121C17.4991 3.08785 18.0823 3.26539 18.4697 3.41521C18.9839 3.61321 19.3497 3.85103 19.7363 4.23559C20.1228 4.62015 20.3611 4.98513 20.5617 5.49949C20.7133 5.88603 20.8933 6.46749 20.9439 7.54021C20.9991 8.70027 21.0116 9.04809 21.0169 11.9842C21.0222 14.9203 21.0118 15.269 20.961 16.4282C20.9142 17.5007 20.7364 18.0833 20.587 18.4718C20.389 18.9855 20.1503 19.3518 19.7662 19.7381C19.3821 20.1244 19.0162 20.3625 18.5027 20.5631C18.1155 20.7143 17.5332 20.8947 16.462 20.9457C15.302 21.0003 14.9544 21.0117 12.0169 21.0181C9.07947 21.0245 8.73275 21.0126 7.57269 20.9624ZM16.5401 6.12099C16.5405 6.38208 16.6184 6.63718 16.7638 6.85402C16.9093 7.07086 17.1157 7.2397 17.3571 7.33919C17.5985 7.43869 17.864 7.46436 18.1199 7.41296C18.3759 7.36157 18.6109 7.23542 18.7952 7.05046C18.9795 6.8655 19.1048 6.63005 19.1552 6.37388C19.2057 6.11771 19.179 5.85234 19.0787 5.61131C18.9783 5.37029 18.8087 5.16445 18.5913 5.01982C18.3739 4.87519 18.1186 4.79827 17.8575 4.79879C17.5075 4.79949 17.1721 4.93917 16.925 5.18712C16.678 5.43507 16.5395 5.77098 16.5401 6.12099ZM6.35191 12.0111C6.35807 15.1307 8.89159 17.6538 12.0105 17.6479C15.1295 17.642 17.6544 15.1087 17.6485 11.9891C17.6425 8.86945 15.1084 6.34561 11.989 6.35177C8.86959 6.35793 6.34597 8.89189 6.35191 12.0111ZM8.33323 12.0071C8.3318 11.2819 8.54545 10.5725 8.94716 9.96875C9.34887 9.36496 9.9206 8.89385 10.5901 8.615C11.2595 8.33615 11.9966 8.26207 12.7082 8.40215C13.4197 8.54222 14.0738 8.89015 14.5876 9.40194C15.1014 9.91372 15.4519 10.5664 15.5948 11.2774C15.7377 11.9884 15.6666 12.7258 15.3904 13.3963C15.1142 14.0669 14.6453 14.6405 14.0431 15.0446C13.4409 15.4487 12.7324 15.6651 12.0072 15.6666C11.5257 15.6676 11.0487 15.5737 10.6034 15.3904C10.1581 15.207 9.75337 14.9377 9.4122 14.5979C9.07102 14.258 8.80014 13.8543 8.61501 13.4098C8.42987 12.9653 8.33413 12.4886 8.33323 12.0071Z" fill="#1A1A1A"/>
</svg>
