<svg width="24" height="24" viewBox="0 0 24 24" fill="none" xmlns="http://www.w3.org/2000/svg">
<path d="M22.56 12.25C22.56 11.47 22.49 10.72 22.36 10H12V14.255H17.92C17.665 15.63 16.89 16.795 15.725 17.575C14.74 18.235 13.4796 18.625 11.9996 18.625C9.13456 18.625 6.70956 16.69 5.84456 14.09C5.62456 13.43 5.5 12.725 5.5 12C5.5 11.275 5.625 10.57 5.845 9.90999C6.71 7.30999 9.13456 5.375 11.9996 5.375C13.6146 5.375 15.0646 5.93 16.2046 7.02L19.3596 3.865C17.4546 2.09 14.9646 1 11.9996 1C7.69956 1 3.98 3.46499 2.17 7.05999C1.425 8.54499 1 10.225 1 12C1 13.775 1.42456 15.455 2.16956 16.94C3.97956 20.535 7.69956 23 11.9996 23C14.9696 23 17.46 22.015 19.28 20.335C21.36 18.42 22.56 15.6 22.56 12.25Z" fill="#1A1A1A"/>
</svg>
