<svg width="24" height="24" viewBox="0 0 24 24" fill="none" xmlns="http://www.w3.org/2000/svg">
<path d="M21.3333 24H2.66667C1.19391 24 0 22.8061 0 21.3333V2.66667C0 1.19391 1.19391 0 2.66667 0H21.3333C22.8061 0 24 1.19391 24 2.66667V21.3333C24 22.8061 22.8061 24 21.3333 24ZM17.1052 20.6667H20.6666V13.3504C20.6666 10.2549 18.9119 8.75811 16.4608 8.75811C14.0087 8.75811 12.9767 10.6677 12.9767 10.6677V9.11115H9.54442V20.6667H12.9767V14.6007C12.9767 12.9754 13.7248 12.0082 15.1569 12.0082C16.4732 12.0082 17.1052 12.9376 17.1052 14.6007V20.6667ZM3.33331 5.46571C3.33331 6.64326 4.28066 7.59805 5.44976 7.59805C6.61886 7.59805 7.56565 6.64326 7.56565 5.46571C7.56565 4.28816 6.61886 3.33337 5.44976 3.33337C4.28066 3.33337 3.33331 4.28816 3.33331 5.46571ZM7.25645 20.6667V9.11115H3.6775V20.6667H7.25645Z" fill="#1A1A1A"/>
</svg>
