<svg width="24" height="24" viewBox="0 0 24 24" fill="none" xmlns="http://www.w3.org/2000/svg">
<path d="M21.479 6.96317C21.4935 7.17317 21.4935 7.38317 21.4935 7.59511C21.4935 14.0528 16.5774 21.5006 7.58806 21.5006V21.4967C4.93258 21.5006 2.33226 20.7399 0.0967712 19.3058C0.4829 19.3522 0.870965 19.3754 1.26 19.3764C3.46064 19.3783 5.59838 18.6399 7.32967 17.2803C5.23838 17.2406 3.40451 15.877 2.76387 13.8864C3.49645 14.0277 4.25129 13.9987 4.97032 13.8022C2.69032 13.3416 1.05 11.3383 1.05 9.01188V8.94995C1.72935 9.32833 2.49 9.53833 3.26806 9.56156C1.12064 8.1264 0.458707 5.26962 1.75548 3.03608C4.23677 6.0893 7.89774 7.94543 11.8277 8.14188C11.4339 6.44446 11.9719 4.66575 13.2416 3.47253C15.21 1.6222 18.3058 1.71704 20.1561 3.68446C21.2506 3.46866 22.2997 3.06704 23.2597 2.49801C22.8948 3.6293 22.1313 4.59027 21.1113 5.20091C22.08 5.08672 23.0264 4.82737 23.9177 4.43156C23.2616 5.41479 22.4352 6.27124 21.479 6.96317Z" fill="#1A1A1A"/>
</svg>
