<svg width="24" height="24" viewBox="0 0 24 24" fill="none" xmlns="http://www.w3.org/2000/svg">
<path d="M20.3399 7.50055C20.2123 7.59956 17.9593 8.86909 17.9593 11.692C17.9593 14.9571 20.8262 16.1122 20.912 16.1408C20.8988 16.2112 20.4565 17.7228 19.4004 19.2629C18.4587 20.6183 17.4752 21.9714 15.9791 21.9714C14.4829 21.9714 14.0979 21.1023 12.3707 21.1023C10.6876 21.1023 10.0891 22 8.72057 22C7.35203 22 6.39714 20.7459 5.29923 19.2057C4.0275 17.3971 3 14.5875 3 11.9208C3 7.64356 5.78108 5.37514 8.51815 5.37514C9.9725 5.37514 11.1848 6.33003 12.0979 6.33003C12.967 6.33003 14.3223 5.31793 15.9769 5.31793C16.604 5.31793 18.857 5.37514 20.3399 7.50055ZM15.1914 3.50715C15.8757 2.69527 16.3597 1.56876 16.3597 0.442244C16.3597 0.286029 16.3465 0.127613 16.3179 0C15.2046 0.0418042 13.8801 0.741474 13.0814 1.66777C12.4543 2.38064 11.8691 3.50715 11.8691 4.64907C11.8691 4.82068 11.8977 4.9923 11.9109 5.0473C11.9813 5.06051 12.0957 5.07591 12.2101 5.07591C13.209 5.07591 14.4653 4.40704 15.1914 3.50715Z" fill="#1A1A1A"/>
</svg>
