<svg width="24" height="24" viewBox="0 0 24 24" fill="none" xmlns="http://www.w3.org/2000/svg">
<path d="M12 0C5.37259 0 0 5.37259 0 12C0 17.0837 3.16298 21.4297 7.62686 23.1781C7.522 22.2287 7.42718 20.7686 7.66847 19.7321C7.88655 18.7955 9.07561 13.7673 9.07561 13.7673C9.07561 13.7673 8.71667 13.0484 8.71667 11.9857C8.71667 10.3171 9.68381 9.07138 10.888 9.07138C11.9118 9.07138 12.4063 9.84002 12.4063 10.7617C12.4063 11.7913 11.7508 13.3307 11.4125 14.7572C11.1298 15.9515 12.0115 16.9256 13.1895 16.9256C15.3223 16.9256 16.9618 14.6767 16.9618 11.4305C16.9618 8.55731 14.8972 6.54847 11.9493 6.54847C8.53489 6.54847 6.53076 9.10945 6.53076 11.7561C6.53076 12.7875 6.92806 13.8934 7.42383 14.4946C7.5219 14.6135 7.53627 14.7175 7.50705 14.8388C7.41596 15.2178 7.21353 16.0329 7.17379 16.1997C7.12145 16.4194 6.99987 16.466 6.77245 16.3602C5.27373 15.6625 4.33669 13.4713 4.33669 11.7113C4.33669 7.926 7.08703 4.44962 12.2655 4.44962C16.4283 4.44962 19.6633 7.41596 19.6633 11.3802C19.6633 15.5159 17.0557 18.8442 13.4364 18.8442C12.2204 18.8442 11.0773 18.2125 10.686 17.4663C10.686 17.4663 10.0843 19.7574 9.93838 20.3189C9.66748 21.3612 8.93612 22.6677 8.44695 23.4648C9.5697 23.8124 10.7629 23.9999 12 23.9999C18.6274 23.9999 24 18.6273 24 12C24 5.37259 18.6274 0 12 0Z" fill="#1A1A1A"/>
</svg>
