<svg width="24" height="24" viewBox="0 0 24 24" fill="none" xmlns="http://www.w3.org/2000/svg">
<path d="M21.2823 4.4996C22.311 4.77498 23.1195 5.58339 23.3948 6.61211C23.8925 8.4748 23.8945 12.3635 23.8945 12.3635C23.8945 12.3635 23.8945 16.2521 23.3948 18.1148C23.1195 19.1435 22.311 19.952 21.2823 20.2273C19.4197 20.7269 11.9472 20.7269 11.9472 20.7269C11.9472 20.7269 4.4748 20.7269 2.6121 20.2273C1.58339 19.952 0.774977 19.1435 0.499604 18.1148C0 16.2521 0 12.3635 0 12.3635C0 12.3635 0 8.4748 0.499604 6.61211C0.774977 5.58339 1.58339 4.77498 2.6121 4.4996C4.4748 4 11.9472 4 11.9472 4C11.9472 4 19.4197 4 21.2823 4.4996ZM15.7632 12.3636L9.55554 8.77979V15.9473L15.7632 12.3636Z" fill="#1A1A1A"/>
</svg>
