<svg width="24" height="24" viewBox="0 0 24 24" fill="none" xmlns="http://www.w3.org/2000/svg">
<path d="M23.9142 17.5531C23.7474 17.0924 23.4298 16.8459 23.068 16.6417C22.9999 16.6012 22.9374 16.5688 22.884 16.5439C22.7761 16.4873 22.6657 16.4325 22.556 16.3746C21.4283 15.7676 20.5478 15.0018 19.937 14.0941C19.7636 13.8385 19.6132 13.5676 19.4876 13.2847C19.4354 13.1334 19.4379 13.0475 19.4753 12.9691C19.5124 12.9086 19.5615 12.8567 19.6194 12.8165C19.8132 12.6864 20.0131 12.5544 20.1486 12.4654C20.3902 12.3066 20.5815 12.1809 20.7048 12.0918C21.1677 11.7631 21.4915 11.4138 21.6938 11.0235C21.835 10.7538 21.9173 10.4564 21.9352 10.1515C21.9531 9.84661 21.9061 9.54139 21.7975 9.25658C21.4909 8.43726 20.7287 7.92861 19.8052 7.92861C19.6104 7.92842 19.4162 7.94929 19.2257 7.99087C19.1748 8.00208 19.1239 8.0139 19.0743 8.02698C19.0829 7.46665 19.0706 6.8752 19.0215 6.29308C18.8474 4.24665 18.1416 3.17393 17.4058 2.3185C16.9346 1.78245 16.3796 1.32894 15.763 0.976212C14.6464 0.328725 13.3802 0 11.9999 0C10.6196 0 9.35948 0.328725 8.24163 0.976212C7.6236 1.32905 7.06746 1.78347 6.59582 2.32099C5.85999 3.17642 5.15421 4.25101 4.98006 6.29557C4.931 6.87769 4.91874 7.47226 4.92671 8.02947C4.87704 8.0164 4.82676 8.00457 4.77587 7.99336C4.58543 7.95178 4.39118 7.93091 4.1964 7.9311C3.27232 7.9311 2.50889 8.43975 2.20353 9.25907C2.09437 9.544 2.04691 9.84944 2.06437 10.1546C2.08183 10.4598 2.1638 10.7577 2.3047 11.0278C2.50767 11.4182 2.83143 11.7675 3.29439 12.0962C3.41703 12.1834 3.60896 12.3091 3.85056 12.4697C3.98117 12.5557 4.17187 12.6814 4.35889 12.8072C4.42433 12.8501 4.47995 12.9068 4.522 12.9734C4.56125 13.055 4.56247 13.1428 4.50422 13.3046C4.38032 13.5816 4.23236 13.8468 4.06211 14.0972C3.46486 14.9844 2.61007 15.7364 1.51859 16.3385C0.94035 16.6498 0.339422 16.8577 0.0855607 17.5581C-0.105755 18.0867 0.0193358 18.6881 0.505597 19.1949C0.684059 19.384 0.891048 19.5431 1.11879 19.6662C1.59266 19.9306 2.09654 20.1353 2.61927 20.2757C2.72714 20.3039 2.82955 20.3505 2.92219 20.4133C3.0994 20.5708 3.07426 20.808 3.31034 21.1554C3.42884 21.335 3.57942 21.4904 3.75429 21.6136C4.24975 21.961 4.80652 21.9828 5.39642 22.0059C5.92928 22.0264 6.53327 22.0501 7.22311 22.281C7.50886 22.3769 7.80565 22.5625 8.14965 22.7791C8.97562 23.2946 10.1063 24 11.9987 24C13.891 24 15.0297 23.2909 15.8618 22.7735C16.2033 22.5606 16.4983 22.3769 16.776 22.2835C17.4659 22.0519 18.0699 22.0289 18.6027 22.0084C19.1926 21.9853 19.7494 21.9635 20.2449 21.6161C20.452 21.4695 20.6245 21.2782 20.7501 21.0558C20.92 20.7626 20.9157 20.5577 21.0751 20.4145C21.162 20.3547 21.2582 20.3101 21.3596 20.2826C21.8895 20.1417 22.4003 19.9351 22.8804 19.6674C23.1223 19.5356 23.3401 19.3625 23.5242 19.1557L23.5303 19.1482C23.9866 18.6526 24.1012 18.0686 23.9142 17.5531ZM22.2322 18.4708C21.2063 19.0461 20.5245 18.9845 19.9941 19.3312C19.5434 19.6257 19.8101 20.2608 19.4827 20.4899C19.0804 20.7719 17.8914 20.4699 16.3554 20.9848C15.0885 21.41 14.2803 22.6328 12.0017 22.6328C9.7231 22.6328 8.93392 21.4125 7.64622 20.9817C6.11324 20.4668 4.92181 20.7688 4.51894 20.4868C4.19211 20.2576 4.45762 19.6226 4.00754 19.3281C3.47651 18.9813 2.79464 19.043 1.76939 18.4708C1.11634 18.1047 1.4867 17.8781 1.70439 17.771C5.42033 15.9444 6.01329 13.1241 6.03965 12.9149C6.07154 12.6615 6.1071 12.4623 5.83239 12.2045C5.56688 11.9555 4.38894 11.2152 4.06211 10.9836C3.52128 10.6001 3.28336 10.2172 3.45873 9.74656C3.58137 9.42095 3.8806 9.2983 4.19456 9.2983C4.29378 9.2986 4.39268 9.30988 4.4895 9.33192C5.08307 9.46266 5.65947 9.76461 5.99244 9.84617C6.03253 9.85662 6.07369 9.86226 6.11508 9.86298C6.2929 9.86298 6.35545 9.77208 6.34318 9.56539C6.30517 8.90607 6.21319 7.62105 6.31559 6.42009C6.45601 4.76775 6.98029 3.94905 7.60329 3.22499C7.90253 2.87696 9.30858 1.36844 11.9974 1.36844C14.6863 1.36844 16.096 2.87074 16.3952 3.21752C17.0189 3.94158 17.5437 4.76028 17.6829 6.41262C17.7853 7.61358 17.697 8.89922 17.6553 9.55791C17.6412 9.7752 17.7056 9.85551 17.8835 9.85551C17.9248 9.85483 17.966 9.84919 18.0061 9.8387C18.3397 9.75714 18.9161 9.45519 19.5096 9.32444C19.6065 9.30241 19.7054 9.29113 19.8046 9.29083C20.1204 9.29083 20.4178 9.41534 20.5404 9.73909C20.7158 10.2098 20.4791 10.5926 19.9376 10.9762C19.6108 11.2078 18.4329 11.9474 18.1674 12.197C17.892 12.4548 17.9282 12.654 17.9601 12.9074C17.9865 13.1197 18.5788 15.94 22.2954 17.7636C22.5149 17.875 22.8853 18.1016 22.2322 18.4708Z" fill="#1A1A1A"/>
</svg>
