<svg width="24" height="24" viewBox="0 0 24 24" fill="none" xmlns="http://www.w3.org/2000/svg">
<path d="M4.69138 4.50024H10.6706C11.5053 4.50024 12.0244 5.18055 11.8297 6.01797L9.04592 17.9698C8.84947 18.8043 8.0138 19.4851 7.17857 19.4851H1.19991C0.366426 19.4851 -0.153863 18.8043 0.0408444 17.9698L2.82577 6.01797C3.02048 5.18055 3.85571 4.50024 4.69138 4.50024Z" fill="#FF0033"/>
<path d="M10.173 4.5H17.049C17.8835 4.5 17.5072 5.18031 17.3109 6.01773L14.5275 17.9695C14.3323 18.804 14.3932 19.4849 13.5569 19.4849H6.68094C5.84469 19.4849 5.32717 18.804 5.52363 17.9695L8.30681 6.01773C8.50443 5.18031 9.33792 4.5 10.173 4.5Z" fill="#003366"/>
<path d="M16.7762 4.5H22.7555C23.5913 4.5 24.1104 5.18031 23.9141 6.01773L21.1308 17.9695C20.9343 18.804 20.0981 19.4849 19.2624 19.4849H13.2859C12.4497 19.4849 11.931 18.804 12.1269 17.9695L14.9106 6.01773C15.1053 5.18031 15.94 4.5 16.7762 4.5Z" fill="#006666"/>
<path d="M6.25287 8.33018C5.63799 8.33645 5.4564 8.33018 5.3984 8.31649C5.3761 8.42244 4.96118 10.3364 4.96001 10.338C4.87067 10.7253 4.80568 11.0013 4.58488 11.1795C4.45954 11.2832 4.31322 11.3331 4.14358 11.3331C3.8709 11.3331 3.71205 11.1977 3.68538 10.941L3.68028 10.8528C3.68028 10.8528 3.76335 10.3341 3.76335 10.3312C3.76335 10.3312 4.19882 8.58698 4.27679 8.35642C4.28087 8.3433 4.28203 8.33645 4.28305 8.33018C3.43544 8.33762 3.28518 8.33018 3.27483 8.31649C3.26915 8.33529 3.24816 8.44342 3.24816 8.44342L2.80351 10.4093L2.76533 10.576L2.69144 11.1214C2.69144 11.2832 2.72321 11.4152 2.78646 11.5268C2.98904 11.8808 3.56689 11.9339 3.89378 11.9339C4.31497 11.9339 4.71007 11.8444 4.97706 11.681C5.44052 11.4072 5.56177 10.9791 5.66991 10.5988L5.72004 10.4036C5.72004 10.4036 6.16863 8.59208 6.24485 8.35642C6.24776 8.3433 6.24893 8.33645 6.25287 8.33018ZM7.77915 9.79157C7.67101 9.79157 7.47339 9.8178 7.29588 9.90481C7.23146 9.93789 7.17054 9.97608 7.10627 10.0141L7.16427 9.80469L7.1325 9.76942C6.75606 9.84564 6.67182 9.85584 6.32409 9.90481L6.29494 9.92419C6.25457 10.259 6.21872 10.5106 6.06904 11.1687C6.01206 11.4112 5.95289 11.656 5.89357 11.8979L5.90961 11.9287C6.26594 11.9099 6.37408 11.9099 6.68377 11.915L6.70884 11.8877C6.74819 11.6862 6.75329 11.639 6.84044 11.2307C6.88139 11.0372 6.9668 10.6119 7.00892 10.4605C7.0863 10.4247 7.16267 10.3894 7.23554 10.3894C7.40912 10.3894 7.38798 10.5408 7.38128 10.6012C7.37385 10.7024 7.3106 11.0333 7.24574 11.3173L7.20246 11.5007C7.17229 11.636 7.13921 11.7676 7.10904 11.9019L7.12216 11.9287C7.47339 11.9099 7.58051 11.9099 7.88044 11.915L7.91571 11.8877C7.96992 11.5729 7.98581 11.4887 8.08199 11.0304L8.13038 10.8198C8.22438 10.4076 8.2716 10.1986 8.20048 10.0284C8.12528 9.83762 7.94485 9.79157 7.77915 9.79157ZM9.48418 10.2231C9.29749 10.2589 9.17842 10.2828 9.06008 10.2983C8.94276 10.3171 8.82835 10.3341 8.64793 10.3592L8.63365 10.3722L8.62053 10.3825C8.60173 10.5169 8.58861 10.6331 8.56369 10.7696C8.54256 10.9108 8.51006 11.0713 8.45716 11.3019C8.4162 11.4783 8.39507 11.5398 8.37175 11.6019C8.34902 11.664 8.32395 11.7243 8.2779 11.8979L8.28868 11.914L8.29772 11.9287C8.46634 11.9207 8.57666 11.915 8.69005 11.914C8.80329 11.9099 8.92061 11.914 9.1022 11.915L9.11808 11.902L9.13513 11.8877C9.16137 11.7312 9.1653 11.6891 9.18133 11.6127C9.19722 11.5308 9.22462 11.4174 9.2918 11.1146C9.32358 10.9723 9.35899 10.8305 9.39193 10.6854C9.42618 10.5408 9.46203 10.3984 9.49613 10.2562L9.49103 10.239L9.48418 10.2231ZM9.48816 9.64127C9.31852 9.54115 9.02077 9.57292 8.82038 9.71122C8.62057 9.84676 8.59784 10.0391 8.7669 10.1406C8.93362 10.2379 9.23253 10.2089 9.43117 10.0695C9.63055 9.931 9.65547 9.74037 9.48816 9.64127ZM10.5141 11.9601C10.8573 11.9601 11.2091 11.8655 11.4739 11.5848C11.6777 11.3571 11.7711 11.0184 11.8034 10.879C11.9088 10.4167 11.8268 10.2008 11.7237 10.0694C11.5672 9.86899 11.2906 9.80472 11.0036 9.80472C10.8311 9.80472 10.4201 9.82177 10.099 10.1178C9.86846 10.3313 9.76193 10.621 9.69766 10.8988C9.6328 11.1818 9.55819 11.6913 10.0267 11.8809C10.1713 11.943 10.3797 11.9601 10.5141 11.9601ZM10.4873 10.9199C10.5664 10.5698 10.6598 10.276 10.8983 10.276C11.0851 10.276 11.0986 10.4946 11.0156 10.8459C11.0007 10.9238 10.9325 11.2137 10.8403 11.3372C10.7758 11.4283 10.6996 11.4835 10.6154 11.4835C10.5903 11.4835 10.4412 11.4835 10.4389 11.2621C10.4377 11.1528 10.46 11.0412 10.4873 10.9199ZM12.6614 11.915L12.6882 11.8878C12.7263 11.6862 12.7325 11.6389 12.8168 11.2308C12.8589 11.0372 12.946 10.612 12.987 10.4606C13.0645 10.4246 13.1396 10.3893 13.2148 10.3893C13.3872 10.3893 13.3662 10.5407 13.3594 10.601C13.3531 10.7025 13.2898 11.0332 13.2238 11.3172L13.1829 11.5006C13.1515 11.6361 13.1174 11.7675 13.0873 11.9019L13.1004 11.9287C13.4528 11.9099 13.5558 11.9099 13.8575 11.915L13.8939 11.8878C13.9468 11.5728 13.9611 11.4886 14.0602 11.0304L14.1074 10.8197C14.2019 10.4075 14.2497 10.1987 14.1797 10.0284C14.1023 9.83767 13.9207 9.79161 13.7574 9.79161C13.6491 9.79161 13.4504 9.8177 13.274 9.90485C13.2108 9.93794 13.1476 9.97597 13.0855 10.0142L13.1396 9.80473L13.1106 9.76932C12.7343 9.84568 12.6483 9.85588 12.301 9.90485L12.2743 9.92424C12.2322 10.259 12.198 10.5105 12.0483 11.1687C11.9913 11.4112 11.9321 11.6561 11.873 11.898L11.8888 11.9287C12.2458 11.9099 12.3523 11.9099 12.6614 11.915ZM15.2505 11.9287C15.2727 11.8205 15.4043 11.1796 15.4055 11.1796C15.4055 11.1796 15.5175 10.7093 15.5244 10.6922C15.5244 10.6922 15.5597 10.6432 15.5949 10.6239H15.6468C16.1363 10.6239 16.6891 10.6239 17.1224 10.3051C17.4172 10.0865 17.6188 9.7637 17.7087 9.37137C17.732 9.27519 17.7492 9.16078 17.7492 9.04638C17.7492 8.89612 17.7191 8.74747 17.6319 8.63131C17.411 8.3222 16.971 8.31651 16.4631 8.31418C16.4615 8.31418 16.2127 8.31651 16.2127 8.31651C15.5626 8.32453 15.3018 8.3222 15.1947 8.30908C15.1857 8.35645 15.1686 8.44068 15.1686 8.44068C15.1686 8.44068 14.9357 9.52003 14.9357 9.52178C14.9357 9.52178 14.3784 11.8166 14.3522 11.9247C14.9199 11.9179 15.1526 11.9179 15.2505 11.9287ZM15.6821 10.0113C15.6821 10.0113 15.9297 8.93416 15.9285 8.93824L15.9365 8.883L15.94 8.84088L16.039 8.85109C16.039 8.85109 16.5497 8.89495 16.5616 8.89612C16.7632 8.97409 16.8462 9.17506 16.7882 9.43739C16.7353 9.67714 16.5798 9.87869 16.38 9.97605C16.2155 10.0585 16.0139 10.0654 15.8062 10.0654H15.6719L15.6821 10.0113ZM17.2238 10.9399C17.1583 11.2188 17.0831 11.7283 17.5493 11.9099C17.698 11.9732 17.8312 11.992 17.9666 11.9851C18.1096 11.9774 18.242 11.9057 18.3648 11.8025C18.3537 11.8449 18.3426 11.8873 18.3315 11.9299L18.3527 11.9571C18.688 11.943 18.7921 11.943 19.1554 11.9458L19.1883 11.9207C19.2414 11.6088 19.2914 11.306 19.4292 10.7093C19.4964 10.4235 19.5635 10.1405 19.6324 9.85586L19.6216 9.82452C19.2465 9.89404 19.1462 9.9089 18.7854 9.96006L18.758 9.98236C18.7543 10.0114 18.7505 10.0392 18.747 10.067C18.6909 9.97638 18.6096 9.89899 18.4841 9.85075C18.3237 9.78765 17.9468 9.86897 17.6228 10.1639C17.3952 10.3745 17.2858 10.6631 17.2238 10.9399ZM18.0116 10.9569C18.0919 10.6131 18.1842 10.3222 18.4232 10.3222C18.5743 10.3222 18.6539 10.4617 18.6377 10.6995C18.6249 10.7589 18.6111 10.8214 18.5946 10.8921C18.5707 10.9942 18.5447 11.0955 18.5195 11.1969C18.4939 11.2663 18.464 11.3318 18.4312 11.3753C18.3697 11.4625 18.2234 11.5166 18.1391 11.5166C18.1152 11.5166 17.9678 11.5166 17.9627 11.2991C17.9615 11.1908 17.9838 11.0793 18.0116 10.9569ZM22.1259 9.82174L22.0969 9.78866C21.7257 9.86386 21.6585 9.87581 21.3175 9.92186L21.2924 9.94693C21.2913 9.95101 21.2902 9.95728 21.2885 9.96296L21.2873 9.95728C21.0335 10.543 21.0409 10.4166 20.8342 10.8778C20.8331 10.8568 20.8331 10.8437 20.8319 10.8214L20.7802 9.82174L20.7477 9.78866C20.3588 9.86386 20.3496 9.87581 19.9905 9.92186L19.9626 9.94693C19.9586 9.95888 19.9586 9.972 19.9563 9.98628L19.9586 9.99138C20.0035 10.2208 19.9927 10.1696 20.0378 10.5316C20.0588 10.7093 20.0867 10.888 20.1077 11.0634C20.1431 11.3571 20.163 11.5017 20.2062 11.9498C19.9637 12.35 19.9063 12.5014 19.6728 12.8527L19.6744 12.8562L19.51 13.1162C19.4912 13.1436 19.4742 13.1624 19.4503 13.1704C19.4241 13.1834 19.39 13.1857 19.3426 13.1857H19.2515L19.1161 13.636L19.5806 13.644C19.8533 13.6429 20.0247 13.5154 20.1169 13.344L20.409 12.8435H20.4043L20.4351 12.8082C20.6315 12.3853 22.1259 9.82174 22.1259 9.82174ZM17.2237 15.7362H17.0267L17.756 13.3241H17.9979L18.0747 13.0756L18.0822 13.3519C18.0731 13.5227 18.2075 13.6741 18.5605 13.6491H18.9687L19.1092 13.1846H18.9556C18.8672 13.1846 18.8263 13.1623 18.8314 13.1145L18.824 12.8334H18.068V12.8348C17.8236 12.8399 17.0937 12.8583 16.946 12.8976C16.7671 12.9437 16.5787 13.0792 16.5787 13.0792L16.6527 12.8305H15.9456L15.7983 13.3241L15.0592 15.7731H14.9158L14.7752 16.2342H16.1836L16.1364 16.3879H16.8304L16.8765 16.2342H17.0712L17.2237 15.7362ZM16.6459 13.8142C16.5327 13.8455 16.3219 13.9405 16.3219 13.9405L16.5093 13.3241H17.0712L16.9356 13.7732C16.9356 13.7732 16.762 13.7834 16.6459 13.8142ZM16.6567 14.6949C16.6567 14.6949 16.4802 14.717 16.364 14.7433C16.2496 14.778 16.0351 14.8873 16.0351 14.8873L16.2286 14.2457H16.7934L16.6567 14.6949ZM16.3419 15.7419H15.7783L15.9417 15.2005H16.5035L16.3419 15.7419ZM17.6991 14.2457H18.5114L18.3947 14.6238H17.5716L17.448 15.0371H18.1682L17.6229 15.805C17.5847 15.8614 17.5504 15.8814 17.5124 15.8972C17.4742 15.9166 17.4241 15.9394 17.3661 15.9394H17.1663L17.029 16.392H17.5516C17.8233 16.392 17.9837 16.2684 18.1022 16.1062L18.4762 15.5944L18.5565 16.1141C18.5735 16.2115 18.6435 16.2684 18.6908 16.2906C18.7432 16.3168 18.7972 16.3619 18.8736 16.3686C18.9555 16.3721 19.0147 16.3748 19.054 16.3748H19.3108L19.465 15.8682H19.3637C19.3056 15.8682 19.2055 15.8585 19.1884 15.8403C19.1713 15.8181 19.1713 15.784 19.1622 15.7321L19.0807 15.2112H18.7471L18.8934 15.0371H19.715L19.8413 14.6238H19.0807L19.1992 14.2457H19.9575L20.0981 13.7795H17.8374L17.6991 14.2457ZM10.838 15.8472L11.0276 15.2164H11.8068L11.9492 14.7473H11.1692L11.2883 14.359H12.0505L12.1917 13.9047H10.2846L10.1463 14.359H10.5796L10.464 14.7473H10.0295L9.88555 15.2244H10.3187L10.066 16.0589C10.0319 16.1694 10.082 16.2115 10.1138 16.2628C10.1463 16.3128 10.1792 16.3459 10.2532 16.3647C10.3296 16.3817 10.3819 16.3919 10.4531 16.3919H11.3316L11.4881 15.8722L11.0987 15.9257C11.0235 15.9257 10.8152 15.9167 10.838 15.8472ZM10.9273 12.8276L10.7299 13.1845C10.6876 13.2625 10.6496 13.3109 10.6153 13.3332C10.5851 13.352 10.5254 13.3598 10.4388 13.3598H10.3358L10.1981 13.8164H10.5402C10.7048 13.8164 10.8311 13.7561 10.8915 13.7259C10.9563 13.6913 10.9734 13.7111 11.0235 13.6627L11.1391 13.5626H12.2077L12.3495 13.0872H11.5673L11.7038 12.8276H10.9273ZM12.5049 15.8563C12.4867 15.8301 12.4998 15.7839 12.5276 15.6877L12.8197 14.721H13.8586C14.0101 14.7188 14.1194 14.7171 14.1905 14.712C14.2669 14.704 14.3499 14.6767 14.4404 14.6277C14.5339 14.5764 14.5817 14.5224 14.622 14.4603C14.6671 14.3983 14.7393 14.2628 14.8014 14.0538L15.1685 12.8305L14.0904 12.8367C14.0904 12.8367 13.7584 12.8857 13.6122 12.9398C13.4647 13.0001 13.254 13.1686 13.254 13.1686L13.3513 12.8332H12.6853L11.7529 15.9257C11.7198 16.0458 11.6976 16.1329 11.6925 16.1853C11.6908 16.2417 11.7636 16.2975 11.8109 16.3396C11.8667 16.3817 11.9492 16.3749 12.0283 16.3817C12.1115 16.388 12.2299 16.3919 12.3932 16.3919H12.9051L13.0622 15.8614L12.604 15.9047C12.555 15.9047 12.5196 15.8785 12.5049 15.8563ZM13.0081 14.0681H14.0994L14.03 14.2855C14.0203 14.2906 13.997 14.2748 13.8859 14.2879H12.9409L13.0081 14.0681ZM13.2267 13.3388H14.3272L14.2481 13.6007C14.2481 13.6007 13.7294 13.5956 13.6463 13.6109C13.2808 13.6742 13.0673 13.8695 13.0673 13.8695L13.2267 13.3388ZM14.0545 15.0137C14.0454 15.0462 14.0311 15.066 14.0112 15.0809C13.989 15.0952 13.9532 15.1003 13.8997 15.1003H13.7442L13.7534 14.8355H13.1066L13.0803 16.1301C13.0793 16.2235 13.0884 16.2775 13.1567 16.3208C13.2251 16.3749 13.4357 16.3817 13.7191 16.3817H14.1244L14.2707 15.8972L13.9179 15.9166L13.8006 15.9234C13.7845 15.9166 13.7692 15.9103 13.7522 15.8932C13.7373 15.8785 13.7123 15.8875 13.7163 15.7941L13.7191 15.4623L14.0891 15.447C14.289 15.447 14.3744 15.382 14.4472 15.32C14.5167 15.2607 14.5395 15.1925 14.5657 15.1003L14.6278 14.8065H14.1193L14.0545 15.0137Z" fill="#FEFEFE"/>
</svg>
