<svg width="24" height="24" viewBox="0 0 24 24" fill="none" xmlns="http://www.w3.org/2000/svg">
<path d="M1.11168 10.3299V13.5918H2.04175C2.53445 13.5918 2.89278 13.4758 3.20632 13.215C3.57782 12.9067 3.79914 12.443 3.79914 11.9635C3.79914 11.0018 3.07985 10.3299 2.04702 10.3299H1.11168ZM2.78739 12.7803C2.58715 12.9594 2.32894 13.0385 1.91792 13.0385H1.74666V10.8806H1.91792C2.32894 10.8806 2.57924 10.9544 2.78739 11.1441C3.00871 11.339 3.14045 11.6447 3.14045 11.9556C3.14045 12.2665 3.00871 12.5826 2.78739 12.7776V12.7803Z" fill="#1A1A1A"/>
<path d="M4.72429 10.3299H4.08931V13.5918H4.72429V10.3299Z" fill="#1A1A1A"/>
<path d="M6.28133 11.5814C5.89929 11.4391 5.78863 11.3469 5.78863 11.1704C5.78863 10.9649 5.98888 10.8094 6.26289 10.8094C6.45259 10.8094 6.61068 10.8885 6.77667 11.0729L7.10865 10.6382C6.83463 10.3984 6.50792 10.2772 6.1496 10.2772C5.57259 10.2772 5.13258 10.6777 5.13258 11.2125C5.13258 11.6631 5.33809 11.8923 5.93618 12.1057C6.18385 12.1927 6.31295 12.2533 6.37619 12.2901C6.50265 12.3718 6.56589 12.4904 6.56589 12.6274C6.56589 12.8909 6.35511 13.0885 6.07055 13.0885C5.76756 13.0885 5.52252 12.9357 5.37498 12.6537L4.96396 13.049C5.25641 13.4784 5.60947 13.6708 6.09427 13.6708C6.75559 13.6708 7.21931 13.2308 7.21931 12.6011C7.21931 12.082 7.00589 11.8475 6.28133 11.584V11.5814Z" fill="#1A1A1A"/>
<path d="M7.41957 11.9634C7.41957 12.9225 8.17311 13.6655 9.14006 13.6655C9.41408 13.6655 9.64857 13.6128 9.93839 13.4758V12.7275C9.68282 12.9831 9.45887 13.0858 9.16905 13.0858C8.5288 13.0858 8.07299 12.6221 8.07299 11.9608C8.07299 11.3337 8.54197 10.841 9.14006 10.841C9.44306 10.841 9.67228 10.9491 9.93839 11.2073V10.459C9.65911 10.3167 9.42989 10.2588 9.15587 10.2588C8.19155 10.2588 7.41957 11.0176 7.41957 11.9661V11.9634Z" fill="#1A1A1A"/>
<path d="M14.9841 12.5194L14.112 10.3299H13.419L14.8023 13.6734H15.1448L16.5544 10.3299H15.8641L14.9841 12.5194Z" fill="#1A1A1A"/>
<path d="M16.8414 13.5918H18.6462V13.0385H17.4764V12.1585H18.6015V11.6052H17.4764V10.8832H18.6462V10.3299H16.8414V13.5918Z" fill="#1A1A1A"/>
<path d="M21.1653 11.2916C21.1653 10.6804 20.7437 10.3299 20.0112 10.3299H19.068V13.5918H19.703V12.2823H19.7873L20.6673 13.5918H21.4498L20.4223 12.2164C20.9018 12.1189 21.1653 11.7922 21.1653 11.2916ZM19.89 11.8291H19.703V10.8411H19.898C20.2932 10.8411 20.5092 11.0071 20.5092 11.3259C20.5092 11.6447 20.2932 11.8291 19.8874 11.8291H19.89Z" fill="#1A1A1A"/>
<path d="M13.5978 11.9581C13.5978 12.9119 12.8232 13.6865 11.8694 13.6865C10.9156 13.6865 10.141 12.9145 10.141 11.9581C10.141 11.0017 10.913 10.2297 11.8694 10.2297C12.8258 10.2297 13.5978 11.0017 13.5978 11.9581Z" fill="#1A1A1A"/>
<path d="M23.2096 4.32001H0.790427C0.353057 4.32001 0 4.67306 0 5.11043V18.8797C0 19.317 0.353057 19.6701 0.790427 19.6701H23.2096C23.6469 19.6701 24 19.317 24 18.8797V5.11043C24 4.67306 23.6469 4.32001 23.2096 4.32001ZM22.8196 11.9951C22.8196 16.0868 19.5025 19.4066 15.4081 19.4066H0.790427C0.500604 19.4066 0.263476 19.1695 0.263476 18.8797V5.11043C0.263476 4.82061 0.500604 4.58348 0.790427 4.58348H15.4081C19.4998 4.58348 22.8196 7.90064 22.8196 11.9951Z" fill="#1A1A1A"/>
</svg>
