<svg width="24" height="24" viewBox="0 0 24 24" fill="none" xmlns="http://www.w3.org/2000/svg">
<path d="M0.263672 5.11042V18.8797C0.263672 19.1695 0.5008 19.4066 0.790623 19.4066H15.4083C19.5 19.4066 22.8198 16.0894 22.8198 11.995C22.8198 7.90326 19.5027 4.58347 15.4083 4.58347H0.790623C0.5008 4.58347 0.263672 4.82059 0.263672 5.11042Z" fill="white"/>
<path d="M1.11169 10.3299V13.5917H2.04176C2.53446 13.5917 2.89279 13.4758 3.20633 13.215C3.57783 12.9067 3.79915 12.443 3.79915 11.9635C3.79915 11.0018 3.07986 10.3299 2.04703 10.3299H1.11169ZM2.7874 12.7802C2.58716 12.9594 2.32895 13.0384 1.91793 13.0384H1.74667V10.8806H1.91793C2.32895 10.8806 2.57925 10.9543 2.7874 11.144C3.00872 11.339 3.14046 11.6447 3.14046 11.9556C3.14046 12.2665 3.00872 12.5826 2.7874 12.7776V12.7802Z" fill="#261F20"/>
<path d="M4.7243 10.3299H4.08932V13.5917H4.7243V10.3299Z" fill="#261F20"/>
<path d="M6.28135 11.5814C5.89931 11.4391 5.78865 11.3469 5.78865 11.1704C5.78865 10.9648 5.98889 10.8094 6.2629 10.8094C6.4526 10.8094 6.61069 10.8884 6.77668 11.0729L7.10866 10.6381C6.83464 10.3984 6.50793 10.2772 6.14961 10.2772C5.5726 10.2772 5.13259 10.6777 5.13259 11.2125C5.13259 11.6631 5.3381 11.8923 5.93619 12.1057C6.18386 12.1926 6.31296 12.2532 6.3762 12.2901C6.50267 12.3718 6.5659 12.4904 6.5659 12.6274C6.5659 12.8909 6.35512 13.0885 6.07057 13.0885C5.76757 13.0885 5.52254 12.9356 5.37499 12.6537L4.96397 13.0489C5.25642 13.4784 5.60948 13.6707 6.09428 13.6707C6.7556 13.6707 7.21932 13.2307 7.21932 12.601C7.21932 12.082 7.0059 11.8475 6.28135 11.584V11.5814Z" fill="#261F20"/>
<path d="M7.41958 11.9634C7.41958 12.9225 8.17312 13.6655 9.14007 13.6655C9.41409 13.6655 9.64858 13.6128 9.93841 13.4758V12.7275C9.68283 12.9831 9.45888 13.0858 9.16906 13.0858C8.52881 13.0858 8.073 12.6221 8.073 11.9608C8.073 11.3337 8.54198 10.841 9.14007 10.841C9.44307 10.841 9.6723 10.949 9.93841 11.2072V10.459C9.65912 10.3167 9.4299 10.2587 9.15588 10.2587C8.19156 10.2587 7.41958 11.0175 7.41958 11.9661V11.9634Z" fill="#261F20"/>
<path d="M14.9841 12.5194L14.112 10.3299H13.419L14.8023 13.6734H15.1448L16.5544 10.3299H15.8641L14.9841 12.5194Z" fill="#261F20"/>
<path d="M16.8415 13.5917H18.6463V13.0384H17.4764V12.1584H18.6015V11.6051H17.4764V10.8832H18.6463V10.3299H16.8415V13.5917Z" fill="#261F20"/>
<path d="M21.1653 11.2916C21.1653 10.6803 20.7437 10.3299 20.0113 10.3299H19.068V13.5917H19.703V12.2823H19.7873L20.6673 13.5917H21.4498L20.4223 12.2164C20.9018 12.1189 21.1653 11.7922 21.1653 11.2916ZM19.8901 11.8291H19.703V10.841H19.898C20.2932 10.841 20.5092 11.007 20.5092 11.3258C20.5092 11.6447 20.2932 11.8291 19.8874 11.8291H19.8901Z" fill="#261F20"/>
<path d="M13.5978 11.9581C13.5978 12.9119 12.8232 13.6865 11.8694 13.6865C10.9156 13.6865 10.141 12.9145 10.141 11.9581C10.141 11.0017 10.913 10.2297 11.8694 10.2297C12.8258 10.2297 13.5978 11.0017 13.5978 11.9581Z" fill="#F27923"/>
<path d="M23.2096 4.32001H0.790427C0.353057 4.32001 0 4.67306 0 5.11043V18.8797C0 19.317 0.353057 19.6701 0.790427 19.6701H23.2096C23.6469 19.6701 24 19.317 24 18.8797V5.11043C24 4.67306 23.6469 4.32001 23.2096 4.32001ZM22.8196 11.9951C22.8196 16.0868 19.5025 19.4066 15.4081 19.4066H0.790427C0.500604 19.4066 0.263476 19.1695 0.263476 18.8797V5.11043C0.263476 4.82061 0.500604 4.58348 0.790427 4.58348H15.4081C19.4998 4.58348 22.8196 7.90064 22.8196 11.9951Z" fill="#F27923"/>
</svg>
