<svg width="24" height="24" viewBox="0 0 24 24" fill="none" xmlns="http://www.w3.org/2000/svg">
<path d="M22.2375 1H1.93V23H22.2375V1Z" fill="#1434CB"/>
<path d="M21.7299 15.2869H2.43861V1.50752H21.7299V15.2869Z" fill="white"/>
<path d="M8.41242 17.4575H7.73321V18.9706H8.41242C8.68841 18.9706 8.89924 18.9146 9.04464 18.8019C9.19016 18.6898 9.26267 18.4939 9.26267 18.214C9.26267 17.9307 9.19016 17.7336 9.04464 17.6231C8.89924 17.5127 8.68841 17.4575 8.41242 17.4575ZM6.98767 21.069V16.8723H8.52283C8.82462 16.8723 9.08986 16.9192 9.31807 17.0131C9.54636 17.1069 9.72385 17.2523 9.85092 17.4491C9.97802 17.6462 10.0413 17.8975 10.0413 18.203C10.0413 18.5085 9.97802 18.7589 9.85092 18.9539C9.72385 19.1492 9.54636 19.2938 9.31807 19.3876C9.08986 19.4815 8.82462 19.5284 8.52283 19.5284H7.73321V21.069H6.98767Z" fill="white"/>
<path d="M11.3532 19.3571H12.5846L11.9772 17.6619H11.9662L11.3532 19.3571ZM10.7567 21.069H10.072L11.6292 16.8723H12.4188L13.9763 21.069H13.181L12.7723 19.9205H11.1655L10.7567 21.069Z" fill="white"/>
<path d="M15.2879 21.069V19.252L13.8079 16.8723H14.6306L15.7295 18.6945H15.7462L16.8341 16.8723H17.5077L16.0278 19.2466V21.069H15.2879Z" fill="white"/>
<path d="M16.9634 4.00798L13.1779 13.0433H10.706L8.84249 5.83197C8.72999 5.3889 8.63086 5.22646 8.28863 5.037C7.72428 4.73357 6.79729 4.44698 5.98109 4.26952L6.0359 4.00798H10.0134C10.5198 4.00798 10.9763 4.34552 11.092 4.92832L12.0765 10.1556L14.5089 4.00798H16.9634Z" fill="#1434CB"/>
</svg>
