<svg width="24" height="24" viewBox="0 0 24 24" fill="none" xmlns="http://www.w3.org/2000/svg">
<path d="M14.0365 16.8945C13.9668 16.8945 13.9076 16.9454 13.8967 17.0143L13.0893 22.1337C13.0863 22.1524 13.0875 22.1715 13.0926 22.1897C13.0978 22.208 13.1068 22.2249 13.1191 22.2393C13.1314 22.2537 13.1467 22.2652 13.1639 22.2731C13.1811 22.2811 13.1998 22.2852 13.2188 22.2852H14.1762C14.2459 22.2852 14.3051 22.2344 14.316 22.1656L14.5532 20.6622C14.5585 20.6289 14.5755 20.5986 14.6012 20.5767C14.6268 20.5548 14.6594 20.5427 14.6931 20.5426H15.5634C16.5805 20.5426 17.4437 19.8007 17.6014 18.7951C17.7605 17.7812 16.9683 16.8966 15.8454 16.8945H14.0365ZM14.9671 18.0374H15.6635C16.2369 18.0374 16.4236 18.3756 16.3646 18.7497C16.3055 19.1247 16.0157 19.4008 15.4609 19.4008H14.7521L14.9671 18.0374ZM19.5488 18.3856C19.307 18.3865 19.0288 18.436 18.7165 18.566C18.0002 18.8645 17.6559 19.4817 17.5099 19.9316C17.5099 19.9316 17.0451 21.3041 18.0957 22.0582C18.0957 22.0582 19.0699 22.784 20.1667 22.0133L20.1477 22.1337C20.1448 22.1524 20.1459 22.1715 20.1511 22.1897C20.1562 22.208 20.1653 22.2249 20.1776 22.2393C20.1899 22.2537 20.2051 22.2652 20.2223 22.2731C20.2396 22.2811 20.2583 22.2852 20.2772 22.2852H21.1858C21.2196 22.2851 21.2522 22.273 21.2779 22.251C21.3035 22.2291 21.3205 22.1987 21.3258 22.1654L21.8788 18.6596C21.8817 18.6409 21.8806 18.6218 21.8754 18.6035C21.8703 18.5853 21.8612 18.5684 21.8489 18.554C21.8366 18.5396 21.8213 18.5281 21.8041 18.5201C21.7869 18.5122 21.7682 18.5081 21.7493 18.5081H20.8406C20.7708 18.5081 20.7116 18.5589 20.7007 18.6277L20.6709 18.8163C20.6709 18.8163 20.2741 18.3829 19.5488 18.3856ZM19.5783 19.493C19.6826 19.493 19.7783 19.5072 19.8639 19.5348C20.2559 19.6608 20.4782 20.0372 20.4139 20.4457C20.3345 20.9486 19.9222 21.319 19.3935 21.319C19.2891 21.319 19.1937 21.3047 19.1081 21.2772C18.7161 21.1512 18.4922 20.7746 18.5568 20.3661C18.636 19.8634 19.0496 19.493 19.5783 19.493Z" fill="#0070E0"/>
<path d="M22.9115 16.8945C22.8418 16.8945 22.7826 16.9454 22.7717 17.0143L21.9643 22.1337C21.9614 22.1524 21.9625 22.1715 21.9677 22.1897C21.9728 22.208 21.9818 22.2249 21.9942 22.2393C22.0065 22.2537 22.0217 22.2652 22.0389 22.2731C22.0561 22.2811 22.0749 22.2852 22.0938 22.2852H23.0511C23.1207 22.2852 23.1799 22.2344 23.1909 22.1656L23.9984 17.046C24.0014 17.0273 24.0002 17.0082 23.9951 16.9899C23.9899 16.9717 23.9809 16.9548 23.9685 16.9404C23.9562 16.926 23.9409 16.9144 23.9237 16.9065C23.9065 16.8986 23.8877 16.8945 23.8688 16.8945H22.9115Z" fill="#0070E0"/>
<path d="M0.948791 16.8945C0.915034 16.8946 0.882406 16.9067 0.856756 16.9287C0.831106 16.9506 0.81411 16.981 0.808809 17.0143L0.00162179 22.1337C-0.00132498 22.1524 -0.000188974 22.1715 0.0049502 22.1897C0.0100894 22.2079 0.0191109 22.2248 0.0313943 22.2392C0.0436777 22.2536 0.0589282 22.2651 0.076105 22.2731C0.0932818 22.281 0.111976 22.2851 0.130899 22.2852H1.08837C1.1221 22.2851 1.15471 22.273 1.18035 22.2511C1.206 22.2292 1.22302 22.1989 1.22836 22.1656L1.4653 20.6622C1.47064 20.6289 1.48766 20.5986 1.51331 20.5767C1.53895 20.5548 1.57155 20.5427 1.60528 20.5426H2.47551C3.49262 20.5426 4.35584 19.8007 4.51353 18.7951C4.67263 17.7812 3.88065 16.8966 2.75778 16.8945H0.948791ZM1.87945 18.0374H2.57587C3.14921 18.0374 3.33573 18.3756 3.27669 18.7497C3.21766 19.1247 2.92798 19.4008 2.37324 19.4008H1.66442L1.87945 18.0374ZM6.4609 18.3856C6.21916 18.3865 5.94089 18.436 5.6286 18.566C4.91237 18.8645 4.56826 19.4817 4.42228 19.9316C4.42228 19.9316 3.9573 21.3041 5.00783 22.0582C5.00783 22.0582 5.98201 22.784 7.07887 22.0133L7.06006 22.1337C7.05712 22.1524 7.05825 22.1715 7.06339 22.1897C7.06853 22.2079 7.07755 22.2248 7.08983 22.2392C7.10212 22.2536 7.11737 22.2651 7.13454 22.2731C7.15172 22.281 7.17042 22.2851 7.18934 22.2852H8.09819C8.16783 22.2852 8.22706 22.2343 8.23797 22.1654L8.7909 18.6596C8.79385 18.6409 8.79271 18.6218 8.78757 18.6036C8.78243 18.5854 8.77342 18.5685 8.76113 18.5541C8.74885 18.5397 8.73359 18.5281 8.71642 18.5202C8.69924 18.5123 8.68054 18.5081 8.66162 18.5081H7.75278C7.68293 18.5081 7.6237 18.5589 7.61279 18.6277L7.58317 18.8163C7.58317 18.8163 7.18624 18.3829 6.4609 18.3856ZM6.49062 19.493C6.59498 19.493 6.69044 19.5072 6.77599 19.5348C7.16803 19.6608 7.39056 20.0372 7.32612 20.4457C7.24677 20.9486 6.83443 21.319 6.30571 21.319C6.20135 21.319 6.10569 21.3047 6.02014 21.2772C5.6281 21.1512 5.40427 20.7746 5.4688 20.3661C5.54815 19.8634 5.9619 19.493 6.49062 19.493Z" fill="#003087"/>
<path d="M9.22206 18.5081C9.20531 18.5081 9.1888 18.512 9.17386 18.5196C9.15893 18.5272 9.14601 18.5382 9.13615 18.5517C9.12629 18.5653 9.11978 18.5809 9.11715 18.5975C9.11451 18.614 9.11583 18.631 9.121 18.6469L10.1172 21.7387L9.21626 23.196C9.17263 23.2668 9.22336 23.3579 9.30661 23.3579H10.3712C10.4016 23.3579 10.4316 23.3501 10.4581 23.3351C10.4847 23.3202 10.507 23.2986 10.5227 23.2726L13.3051 18.6691C13.3479 18.5984 13.297 18.5079 13.2144 18.5079H12.1498C12.1191 18.5079 12.0889 18.5159 12.0621 18.5311C12.0354 18.5463 12.0131 18.5682 11.9974 18.5947L10.9022 20.4441L10.3461 18.6085C10.3279 18.5487 10.273 18.508 10.2105 18.508L9.22206 18.5081Z" fill="#003087"/>
<path d="M16.1137 4.08563C16.1111 4.22352 16.0991 4.3633 16.077 4.50438C15.7859 6.3607 14.1923 7.73062 12.3146 7.73062H10.4489C10.2581 7.73062 10.0957 7.86941 10.0659 8.05802L9.48073 11.7687L9.1135 14.0968C9.10643 14.1418 9.10919 14.1878 9.12159 14.2316C9.13398 14.2754 9.15572 14.316 9.1853 14.3506C9.21488 14.3852 9.25161 14.413 9.29295 14.432C9.33429 14.4511 9.37927 14.461 9.42479 14.461H11.4499C11.6409 14.461 11.8033 14.3222 11.8331 14.1336L12.3666 10.7502C12.381 10.659 12.4275 10.5758 12.4977 10.5158C12.568 10.4558 12.6573 10.4227 12.7497 10.4226H13.9422C15.8198 10.4226 17.4134 9.05282 17.7044 7.1966C17.911 5.87881 17.2479 4.68009 16.1137 4.08563Z" fill="#0070E0"/>
<path d="M11.0857 3.69242C10.8949 3.69242 10.7323 3.83121 10.7026 4.01982L10.0657 8.05805C10.0954 7.86943 10.2581 7.73065 10.449 7.73065H12.3147C14.1924 7.73065 15.7861 6.36072 16.0771 4.50441C16.0988 4.36589 16.1111 4.22605 16.1138 4.08586C15.6366 3.83551 15.0761 3.69232 14.4621 3.69232L11.0857 3.69242Z" fill="#001C64"/>
<path d="M8.7849 1C8.6925 1.00008 8.60316 1.03311 8.53293 1.09316C8.46271 1.15321 8.4162 1.23633 8.40177 1.3276L6.81261 11.4045C6.80551 11.4494 6.80825 11.4954 6.82063 11.5393C6.83301 11.5831 6.85474 11.6237 6.88432 11.6583C6.91391 11.693 6.95064 11.7208 6.992 11.7398C7.03336 11.7589 7.07836 11.7688 7.1239 11.7688H9.48052L10.0657 8.05804L10.7026 4.01982C10.7323 3.8312 10.8949 3.69242 11.0857 3.69242H14.462C15.0761 3.69242 15.6364 3.8355 16.1137 4.08555C16.1462 2.39554 14.7517 1.0001 12.8342 1.0001L8.7849 1Z" fill="#003087"/>
</svg>
