<svg width="24" height="24" viewBox="0 0 24 24" fill="none" xmlns="http://www.w3.org/2000/svg">
<path d="M5.94926 18.2275C5.94926 18.2275 7.06734 18.301 7.84233 17.33C8.43659 16.5856 8.48867 15.8933 8.4856 15.6881C8.4856 15.6268 8.51317 13.213 8.51317 13.1273H1.57193C1.58725 13.504 1.60869 13.9543 1.64851 14.4659C1.97015 18.7237 3.20769 21.0334 5.94926 22.1392V18.2244V18.2275Z" fill="#1A1A1A"/>
<path d="M1.7617 9.48203H8.51303C8.51303 9.48203 8.62024 4.90252 9.72299 3.57309C11.7753 1.09188 14.036 1.19603 14.6364 1.13783C14.6946 1.13171 14.7497 1.12864 14.8018 1.12864C14.0666 1.05513 13.2702 1.01224 12.4064 1.00305C12.3022 1.00305 12.1981 1.00305 12.0939 1.00305H11.9101C11.806 1.00305 11.7049 1.00305 11.6007 1.00305C4.77591 1.07963 2.15379 3.0309 1.65449 9.48203H1.76477H1.7617Z" fill="#1A1A1A"/>
<path d="M22.3594 9.53109C21.9979 4.76167 20.4877 2.43975 17.0018 1.5116V6.34841C17.0018 6.34841 16.9773 6.34841 16.9313 6.34535C16.5147 6.32391 14.3368 6.2657 13.5679 7.46036C13.2831 7.90452 13.1391 8.29661 13.0748 8.61519C13.0748 8.61519 13.0748 8.61519 13.0748 8.61825C13.0656 8.6642 13.0594 8.70709 13.0502 8.74997C13.0502 8.7561 13.0502 8.76529 13.0472 8.77141C13.0411 8.80817 13.038 8.84493 13.0349 8.88169C13.0349 8.89088 13.0349 8.90313 13.0319 8.91232C13.0319 8.94295 13.0288 8.97359 13.0257 9.00422C13.0257 9.01647 13.0257 9.02872 13.0257 9.04098C13.0257 9.06854 13.0257 9.09305 13.0257 9.11756C13.0257 9.12981 13.0257 9.14206 13.0257 9.15125C13.0257 9.17576 13.0257 9.19414 13.0288 9.21558C13.0288 9.22477 13.0288 9.23702 13.0288 9.24621C13.0288 9.26459 13.0319 9.28297 13.0349 9.30135C13.0349 9.31054 13.0349 9.31973 13.0349 9.32892C13.0349 9.34423 13.038 9.35955 13.0411 9.3718C13.0411 9.37793 13.0411 9.38712 13.0441 9.39324C13.0441 9.40856 13.0472 9.41775 13.0502 9.42694C13.0502 9.43 13.0502 9.43613 13.0502 9.43919C13.0533 9.45145 13.0564 9.45757 13.0564 9.4637C13.0564 9.4637 13.0564 9.46676 13.0564 9.46983C13.0564 9.47595 13.0564 9.48208 13.0564 9.48208H16.9865V13.1304H13.0564V16.8185C13.0564 16.8185 12.9369 18.5523 12.4866 19.5233C11.4604 21.7441 9.73585 22.6998 8.49831 22.7703C8.46462 22.7703 8.43092 22.7703 8.40029 22.7703C9.34376 22.9112 10.4006 22.9817 11.586 22.997C11.6902 22.997 12.2875 22.997 12.3917 22.997C19.2349 22.9173 21.8509 20.9569 22.344 14.4659C22.4574 12.9864 22.4421 11.997 22.4421 11.997C22.4421 11.997 22.4543 11.0106 22.344 9.52803" fill="#1A1A1A"/>
</svg>
