<svg width="24" height="24" viewBox="0 0 24 24" fill="none" xmlns="http://www.w3.org/2000/svg">
<path d="M24 17.506C24 19.5673 22.3285 21.2396 20.2664 21.2396H0V6.48358C0 4.4215 1.6715 2.75 3.73358 2.75H24V17.506Z" fill="white"/>
<path d="M17.3922 13.7249H18.9358C18.9839 13.7249 19.0757 13.7174 19.1202 13.7076C19.4167 13.6437 19.6635 13.3803 19.6635 13.022C19.6635 12.6638 19.4167 12.3996 19.1202 12.3357C19.0765 12.3259 18.9847 12.3184 18.9358 12.3184H17.3922V13.7249Z" fill="url(#paint0_linear_1721_4749)"/>
<path d="M19.4799 10.8756C19.4799 10.5234 19.233 10.2871 18.9433 10.2382C18.9162 10.2337 18.8424 10.2261 18.7913 10.2261H17.3922V11.5243H18.7913C18.8424 11.5243 18.9162 11.5168 18.9433 11.5123C19.2338 11.4634 19.4799 11.2271 19.4799 10.8749V10.8756Z" fill="url(#paint1_linear_1721_4749)"/>
<path d="M18.7552 3.99472C17.2824 3.99472 16.0888 5.18832 16.0888 6.66114V9.43066H19.8623C19.9496 9.43066 20.0564 9.43668 20.1234 9.44044C20.9776 9.48334 21.6068 9.9221 21.6068 10.683C21.6068 11.2813 21.1763 11.793 20.3929 11.9082V11.9383C21.2583 11.9985 21.9206 12.4741 21.9206 13.2252C21.9206 14.0372 21.1936 14.5588 20.2243 14.5588H16.0888V19.9947H20C21.4728 19.9947 22.6664 18.8004 22.6664 17.3283V3.99472H18.7552Z" fill="url(#paint2_linear_1721_4749)"/>
<path d="M11.3777 3.99472C9.90491 3.99472 8.7113 5.18832 8.7113 6.66114V10.1524C9.38713 9.5729 10.5551 9.2109 12.4539 9.29594C13.4699 9.3411 14.5476 9.61354 14.5476 9.61354V10.7424C14.008 10.4692 13.3615 10.2156 12.5284 10.1531C11.088 10.044 10.221 10.7484 10.221 11.9947C10.221 13.241 11.088 13.9447 12.5284 13.8356C13.3615 13.7731 14.017 13.5127 14.5476 13.247V14.3752C14.5476 14.3752 13.4699 14.6476 12.4539 14.6935C10.5559 14.7785 9.38713 14.4165 8.7113 13.8371V19.9947H12.6225C14.0953 19.9947 15.2889 18.8004 15.2889 17.3283V3.99472H11.3777Z" fill="url(#paint3_linear_1721_4749)"/>
<path d="M3.99993 3.99466C2.52712 3.99466 1.33352 5.18826 1.33352 6.66108V13.2462C2.08159 13.6082 2.85374 13.8445 3.6402 13.8445C4.56211 13.8445 5.06861 13.2816 5.06861 12.5245V9.43059H7.36174V12.5245C7.36174 13.7346 6.61894 14.7055 4.06992 14.7055C2.53615 14.7055 1.33276 14.3743 1.33276 14.3743V19.9939H5.24396C6.71677 19.9939 7.91037 18.7996 7.91037 17.3275V3.99466H3.99993Z" fill="url(#paint4_linear_1721_4749)"/>
<defs>
<linearGradient id="paint0_linear_1721_4749" x1="16.0105" y1="12.9711" x2="22.5758" y2="12.9711" gradientUnits="userSpaceOnUse">
<stop stop-color="#177D4E"/>
<stop offset="1" stop-color="#78B956"/>
</linearGradient>
<linearGradient id="paint1_linear_1721_4749" x1="16.0105" y1="10.8343" x2="22.5758" y2="10.8343" gradientUnits="userSpaceOnUse">
<stop stop-color="#177D4E"/>
<stop offset="1" stop-color="#78B956"/>
</linearGradient>
<linearGradient id="paint2_linear_1721_4749" x1="16.0106" y1="11.9478" x2="22.5759" y2="11.9478" gradientUnits="userSpaceOnUse">
<stop stop-color="#177D4E"/>
<stop offset="1" stop-color="#78B956"/>
</linearGradient>
<linearGradient id="paint3_linear_1721_4749" x1="8.62689" y1="11.9478" x2="15.102" y2="11.9478" gradientUnits="userSpaceOnUse">
<stop stop-color="#6C3638"/>
<stop offset="1" stop-color="#DA364C"/>
</linearGradient>
<linearGradient id="paint4_linear_1721_4749" x1="1.31205" y1="11.9478" x2="7.97937" y2="11.9478" gradientUnits="userSpaceOnUse">
<stop stop-color="#333372"/>
<stop offset="1" stop-color="#0075BB"/>
</linearGradient>
</defs>
</svg>
