<svg width="24" height="24" viewBox="0 0 24 24" fill="none" xmlns="http://www.w3.org/2000/svg">
<path d="M23.9465 19.8092C23.7265 19.6637 23.4225 19.5892 23.0875 19.5892C22.5545 19.5892 22.211 19.8442 22.211 20.2627C22.211 20.6062 22.4665 20.8172 22.938 20.8837L23.154 20.9142C23.405 20.9492 23.524 21.0157 23.524 21.1347C23.524 21.2977 23.3565 21.3897 23.044 21.3897C22.7265 21.3897 22.498 21.2887 22.344 21.1697L22.128 21.5262C22.379 21.7112 22.696 21.7992 23.0395 21.7992C23.6475 21.7992 24 21.5132 24 21.1127C24 20.7427 23.7225 20.5492 23.2645 20.4827L23.0485 20.4522C22.8505 20.4257 22.692 20.3862 22.692 20.2452C22.692 20.0912 22.842 19.9987 23.093 19.9987C23.3615 19.9987 23.6215 20.1002 23.7495 20.1792L23.9465 19.8092ZM21.7485 19.8092C21.5286 19.6637 21.2246 19.5892 20.8896 19.5892C20.3566 19.5892 20.0131 19.8442 20.0131 20.2627C20.0131 20.6062 20.2686 20.8172 20.7396 20.8837L20.9556 20.9142C21.2066 20.9492 21.3256 21.0157 21.3256 21.1347C21.3256 21.2977 21.1581 21.3897 20.8456 21.3897C20.5286 21.3897 20.2996 21.2887 20.1456 21.1697L19.9296 21.5262C20.1806 21.7112 20.4976 21.7992 20.8411 21.7992C21.4491 21.7992 21.8015 21.5132 21.8015 21.1127C21.8015 20.7427 21.5241 20.5492 21.0661 20.4827L20.8501 20.4522C20.6516 20.4257 20.4936 20.3862 20.4936 20.2452C20.4936 20.0912 20.6431 19.9987 20.8941 19.9987C21.1626 19.9987 21.4226 20.1002 21.5506 20.1792L21.7485 19.8092ZM16.5032 20.6852C16.5032 21.0552 16.2612 21.3587 15.8647 21.3587C15.4857 21.3587 15.2302 21.0682 15.2302 20.6852C15.2302 20.3022 15.4857 20.0117 15.8647 20.0117C16.2612 20.0117 16.5032 20.3157 16.5032 20.6852ZM14.7987 22.4992H15.2567V21.4822C15.4022 21.6717 15.6222 21.7902 15.9217 21.7902C16.5117 21.7902 16.9741 21.3282 16.9741 20.6852C16.9741 20.0422 16.5117 19.5802 15.9217 19.5802C15.6222 19.5802 15.4022 19.6992 15.2567 19.8882V19.6332H14.7987V22.4992ZM17.7806 20.6897C17.7806 20.3197 18.0231 20.0162 18.4196 20.0162C18.7981 20.0162 19.0536 20.3067 19.0536 20.6897C19.0536 21.0727 18.7981 21.3632 18.4196 21.3632C18.0231 21.3632 17.7806 21.0597 17.7806 20.6897ZM19.4851 19.6372H19.0271V19.8927C18.8816 19.7032 18.6616 19.5847 18.3616 19.5847C17.7716 19.5847 17.3091 20.0467 17.3091 20.6897C17.3091 21.3327 17.7716 21.7947 18.3616 21.7947C18.6611 21.7947 18.8816 21.6757 19.0271 21.4862V21.7417H19.4851V19.6372ZM4.21541 20.6897C4.21541 20.3197 4.45741 20.0162 4.8539 20.0162C5.23239 20.0162 5.48839 20.3067 5.48839 20.6897C5.48839 21.0727 5.23289 21.3632 4.8539 21.3632C4.45741 21.3632 4.21541 21.0597 4.21541 20.6897ZM5.91988 19.6372H5.46189V19.8927C5.31639 19.7032 5.09639 19.5847 4.7969 19.5847C4.20641 19.5847 3.74442 20.0467 3.74442 20.6897C3.74442 21.3327 4.20691 21.7947 4.7969 21.7947C5.09639 21.7947 5.31639 21.6757 5.46189 21.4862V21.7417H5.91988V19.6372ZM11.6013 19.9942C11.8963 19.9942 12.0857 20.1792 12.1342 20.5052H11.0418C11.0903 20.2012 11.2753 19.9942 11.6013 19.9942ZM11.6098 19.5847C10.9933 19.5847 10.5618 20.0337 10.5618 20.6897C10.5618 21.3587 11.0113 21.7947 11.6408 21.7947C11.9578 21.7947 12.2487 21.7152 12.5042 21.4997L12.2792 21.1607C12.1032 21.3017 11.8788 21.3807 11.6673 21.3807C11.3718 21.3807 11.1033 21.2442 11.0373 20.8657H12.6007L12.6097 20.6897C12.6052 20.0337 12.2002 19.5847 11.6098 19.5847ZM8.18333 19.8047C7.96283 19.6592 7.65934 19.5847 7.32435 19.5847C6.79136 19.5847 6.44787 19.8397 6.44787 20.2582C6.44787 20.6017 6.70336 20.8132 7.17435 20.8792L7.39035 20.9102C7.64134 20.9452 7.76034 21.0112 7.76034 21.1302C7.76034 21.2932 7.59284 21.3857 7.28035 21.3857C6.96285 21.3857 6.73386 21.2842 6.57986 21.1652L6.36387 21.5217C6.61486 21.7067 6.93236 21.7947 7.27585 21.7947C7.88384 21.7947 8.23583 21.5082 8.23583 21.1077C8.23583 20.7377 7.95833 20.5442 7.50034 20.4782L7.28435 20.4472C7.08635 20.4212 6.92786 20.3812 6.92786 20.2402C6.92786 20.0862 7.07785 19.9937 7.32835 19.9937C7.59734 19.9937 7.85684 20.0952 7.98483 20.1742L8.18333 19.8047ZM14.0897 19.5847C13.8252 19.5847 13.6537 19.7077 13.5347 19.8927V19.6372H13.0812V21.7417H13.5392V20.5617C13.5392 20.2137 13.6887 20.0202 13.9882 20.0202C14.0807 20.0202 14.1777 20.0332 14.2747 20.0732L14.4157 19.6417C14.3147 19.6022 14.1822 19.5847 14.0897 19.5847ZM10.1828 19.6372H9.4343V18.9988H8.97181V19.6372H8.54432V20.0557H8.97181V21.0157C8.97181 21.5042 9.16131 21.7952 9.7028 21.7952C9.90129 21.7952 10.1298 21.7337 10.2753 21.6322L10.1433 21.2402C10.0068 21.3192 9.8568 21.3592 9.7378 21.3592C9.5088 21.3592 9.4338 21.2182 9.4338 21.0072V20.0562H10.1823L10.1828 19.6372ZM3.33843 21.7417V20.4212C3.33843 19.9237 3.02144 19.5892 2.51045 19.5847C2.24195 19.5802 1.96446 19.6637 1.77046 19.9587C1.62547 19.7257 1.39647 19.5847 1.07498 19.5847C0.850482 19.5847 0.629987 19.6507 0.45799 19.8972V19.6372H0V21.7417H0.46249V20.5752C0.46249 20.2097 0.664986 20.0162 0.97798 20.0162C1.28197 20.0162 1.43597 20.2142 1.43597 20.5707V21.7417H1.89846V20.5752C1.89846 20.2097 2.10996 20.0162 2.41395 20.0162C2.72644 20.0162 2.87644 20.2142 2.87644 20.5707V21.7417H3.33843Z" fill="#1A1A1A"/>
<path d="M11.9998 4.56147C10.2748 5.89894 9.16681 7.9744 9.16681 10.3038C9.16681 12.6338 10.2753 14.7098 11.9998 16.0472C13.7252 14.7098 14.8329 12.6343 14.8329 10.3044C14.8329 7.97492 13.7252 5.89894 11.9998 4.56147Z" fill="#1A1A1A"/>
<path d="M16.5834 17.6082C20.6791 17.6082 23.9995 14.3376 23.9998 10.3044C23.9995 6.27068 20.6791 3.00052 16.5834 3.00052C15.0411 3.00052 13.6088 3.46429 12.422 4.25792C14.1967 5.68733 15.3329 7.86486 15.3329 10.3044C15.3329 12.7444 14.1967 14.9214 12.422 16.3508C13.6087 17.1444 15.0406 17.6082 16.5834 17.6082Z" fill="#1A1A1A"/>
<path d="M11.5781 16.3512C9.80408 14.9219 8.66681 12.7442 8.66681 10.3038C8.66681 7.86402 9.80354 5.68684 11.578 4.2575C10.3914 3.46382 8.95874 3 7.41635 3C3.32043 3 0 6.27043 0 10.3043C0 14.3378 3.32043 17.6087 7.41635 17.6087C8.95916 17.6087 10.3919 17.1449 11.5781 16.3512Z" fill="#1A1A1A"/>
</svg>
