<svg width="24" height="24" viewBox="0 0 24 24" fill="none" xmlns="http://www.w3.org/2000/svg">
<path d="M12.4098 23C19.253 22.9204 21.869 20.9599 22.3622 14.469C22.4755 12.9894 22.4602 12.0031 22.4602 12.0031C22.4602 12.0031 22.4724 11.0167 22.3622 9.53411C21.869 3.0401 19.253 1.07964 12.4098 1C12.3056 1 11.7083 1 11.6041 1C4.75787 1.07964 2.14188 3.0401 1.6487 9.53105C1.53536 11.0136 1.55068 12 1.55068 12C1.55068 12 1.53843 12.9864 1.6487 14.4659C2.14188 20.9599 4.75786 22.9204 11.6011 22.9969C11.7052 22.9969 12.3026 22.9969 12.4067 22.9969" fill="white"/>
<path d="M5.94929 18.2275C5.94929 18.2275 7.06737 18.301 7.84236 17.33C8.43662 16.5856 8.4887 15.8933 8.48563 15.6881C8.48563 15.6268 8.5132 13.213 8.5132 13.1273H1.57196C1.58728 13.504 1.60872 13.9543 1.64854 14.4659C1.97018 18.7237 3.20772 21.0334 5.94929 22.1392V18.2244V18.2275Z" fill="#6C92C4"/>
<path d="M1.76173 9.48203H8.51306C8.51306 9.48203 8.62027 4.90252 9.72303 3.57309C11.7754 1.09188 14.036 1.19603 14.6364 1.13783C14.6946 1.13171 14.7498 1.12864 14.8018 1.12864C14.0667 1.05513 13.2702 1.01224 12.4064 1.00305C12.3023 1.00305 12.1981 1.00305 12.094 1.00305H11.9102C11.806 1.00305 11.7049 1.00305 11.6008 1.00305C4.77594 1.07963 2.15382 3.0309 1.65452 9.48203H1.7648H1.76173Z" fill="#6C92C4"/>
<path d="M22.3594 9.53109C21.9979 4.76167 20.4878 2.43975 17.0018 1.5116V6.34841C17.0018 6.34841 16.9773 6.34841 16.9314 6.34535C16.5148 6.32391 14.3368 6.2657 13.568 7.46036C13.2831 7.90452 13.1391 8.29661 13.0748 8.61519C13.0748 8.61519 13.0748 8.61519 13.0748 8.61825C13.0656 8.6642 13.0595 8.70709 13.0503 8.74997C13.0503 8.7561 13.0503 8.76529 13.0472 8.77141C13.0411 8.80817 13.038 8.84493 13.035 8.88169C13.035 8.89088 13.035 8.90313 13.0319 8.91232C13.0319 8.94295 13.0288 8.97359 13.0258 9.00422C13.0258 9.01647 13.0258 9.02872 13.0258 9.04098C13.0258 9.06854 13.0258 9.09305 13.0258 9.11756C13.0258 9.12981 13.0258 9.14206 13.0258 9.15125C13.0258 9.17576 13.0258 9.19414 13.0288 9.21558C13.0288 9.22477 13.0288 9.23702 13.0288 9.24621C13.0288 9.26459 13.0319 9.28297 13.035 9.30135C13.035 9.31054 13.035 9.31973 13.035 9.32892C13.035 9.34423 13.038 9.35955 13.0411 9.3718C13.0411 9.37793 13.0411 9.38712 13.0442 9.39324C13.0442 9.40856 13.0472 9.41775 13.0503 9.42694C13.0503 9.43 13.0503 9.43613 13.0503 9.43919C13.0533 9.45145 13.0564 9.45757 13.0564 9.4637C13.0564 9.4637 13.0564 9.46676 13.0564 9.46983C13.0564 9.47595 13.0564 9.48208 13.0564 9.48208H16.9865V13.1304H13.0564V16.8185C13.0564 16.8185 12.9369 18.5523 12.4866 19.5233C11.4605 21.7441 9.73588 22.6998 8.49834 22.7703C8.46465 22.7703 8.43095 22.7703 8.40032 22.7703C9.34379 22.9112 10.4006 22.9817 11.5861 22.997C11.6902 22.997 12.2875 22.997 12.3917 22.997C19.2349 22.9173 21.8509 20.9569 22.3441 14.4659C22.4574 12.9864 22.4421 11.997 22.4421 11.997C22.4421 11.997 22.4543 11.0106 22.3441 9.52803" fill="#6C92C4"/>
</svg>
