<svg width="24" height="24" viewBox="0 0 24 24" fill="none" xmlns="http://www.w3.org/2000/svg">
<path fill-rule="evenodd" clip-rule="evenodd" d="M24 0V24H0V0H24ZM2.19629 13.1455V11.3789H2.7002V10.8545H4.39551V11.3789H2.7002V13.1455H2.19629ZM5.25195 13.1455V10.8545H5.75586V13.1455H5.25195ZM7.75195 13.1455L6.82422 10.8545H7.37207L8.02441 12.5498L8.67188 10.8545H9.19629L8.26758 13.1455H7.75195ZM10.252 13.1455V10.8545H12.2402V11.3086H10.7559V11.7705H12.0283V12.2207H10.7559V12.6963H12.2402V13.1455H10.252ZM13.6318 13.1455V10.8545H14.9404C15.4521 10.8546 15.7236 11.1084 15.7236 11.5791C15.7236 11.9416 15.564 12.1752 15.252 12.2627L15.832 13.1455H15.2402L14.6924 12.3037H14.1357V13.1455H13.6318ZM16.6562 11.3037V10.8545H18.792V11.3037H17.9756V13.1455H17.4717V11.3037H16.6562ZM20.3721 12.1162L19.4482 10.8545H20.0801L20.6396 11.6338L21.2002 10.8545H21.8037L20.8799 12.1162V13.1455H20.3721V12.1162Z" fill="#1A1A1A"/>
<path d="M14.8877 11.2998C15.1117 11.2998 15.2158 11.3877 15.2158 11.5752C15.2157 11.7626 15.1116 11.8496 14.8877 11.8496H14.1357V11.2998H14.8877Z" fill="#1A1A1A"/>
</svg>
