<svg width="24" height="24" viewBox="0 0 24 24" fill="none" xmlns="http://www.w3.org/2000/svg">
<path d="M0.484382 14.6641C0.484382 14.2081 0.245212 14.2381 0.0175781 14.2327V14.102C0.21522 14.1112 0.418245 14.1112 0.615886 14.1112C0.828909 14.1112 1.11807 14.102 1.49412 14.102C2.80763 14.102 3.5236 14.9794 3.5236 15.8777C3.5236 16.3798 3.22983 17.6434 1.43337 17.6434C1.17497 17.6434 0.935804 17.6334 0.697404 17.6334C0.459003 17.6334 0.245212 17.6387 0.0175781 17.6434V17.5111C0.321346 17.4811 0.469001 17.4711 0.484382 17.1258V14.6641ZM0.981177 17.0443C0.981177 17.4357 1.26034 17.4803 1.5095 17.4803C2.60615 17.4803 2.96528 16.6536 2.96528 15.8969C2.96528 14.9487 2.35698 14.2635 1.37723 14.2635C1.16882 14.2635 1.07346 14.2781 0.981177 14.2835V17.0443Z" fill="#1A1A1A"/>
<path d="M3.70206 17.5111H3.79819C3.94046 17.5111 4.0412 17.5111 4.0412 17.3427V15.9684C4.0412 15.7454 3.96584 15.7146 3.77743 15.6139V15.5324C4.01659 15.4609 4.30037 15.3655 4.32113 15.3493C4.35651 15.3294 4.3865 15.3247 4.41265 15.3247C4.43879 15.3247 4.44802 15.3547 4.44802 15.3955V17.3435C4.44802 17.5119 4.5603 17.5119 4.7018 17.5119H4.78794V17.6441C4.6149 17.6441 4.43803 17.6341 4.255 17.6341C4.07197 17.6341 3.8897 17.6395 3.70206 17.6441V17.5111ZM4.24577 14.5426C4.11349 14.5426 3.9966 14.4204 3.9966 14.2889C3.9966 14.1573 4.11811 14.0443 4.24577 14.0443C4.37343 14.0443 4.49493 14.1512 4.49493 14.2889C4.49493 14.4265 4.38265 14.5426 4.24577 14.5426Z" fill="#1A1A1A"/>
<path d="M5.27055 15.9984C5.27055 15.8115 5.21441 15.76 4.97678 15.6646V15.5677C5.19442 15.497 5.40282 15.4301 5.64661 15.3247C5.66199 15.3247 5.6766 15.3347 5.6766 15.3747V15.7054C5.96653 15.497 6.21492 15.3247 6.55561 15.3247C6.98703 15.3247 7.1393 15.6392 7.1393 16.0353V17.3442C7.1393 17.5126 7.25158 17.5126 7.39308 17.5126H7.4846V17.6449C7.30618 17.6449 7.1293 17.6349 6.94704 17.6349C6.76478 17.6349 6.58175 17.6403 6.39872 17.6449V17.5126H6.49024C6.63251 17.5126 6.73325 17.5126 6.73325 17.3442V16.0307C6.73325 15.7408 6.55638 15.5993 6.26645 15.5993C6.10418 15.5993 5.84579 15.7308 5.67737 15.843V17.3442C5.67737 17.5126 5.78965 17.5126 5.93192 17.5126H6.02343V17.6449C5.84579 17.6449 5.66737 17.6349 5.48434 17.6349C5.30131 17.6349 5.11905 17.6403 4.93679 17.6449V17.5126H5.02907C5.17058 17.5126 5.27209 17.5126 5.27209 17.3442V15.9999L5.27055 15.9984Z" fill="#1A1A1A"/>
<path d="M7.869 16.243C7.85823 16.2883 7.85823 16.3645 7.869 16.5367C7.89899 17.0189 8.20891 17.415 8.61419 17.415C8.89335 17.415 9.11253 17.2627 9.2994 17.0751L9.37015 17.1458C9.13637 17.455 8.84798 17.7187 8.43193 17.7187C7.62445 17.7187 7.46218 16.9374 7.46218 16.6129C7.46218 15.6185 8.13201 15.324 8.48653 15.324C8.89797 15.324 9.34016 15.5824 9.34478 16.1199C9.34478 16.1515 9.34477 16.1814 9.34016 16.2122L9.29402 16.243H7.869ZM8.76723 16.0799C8.89335 16.0799 8.90796 16.0138 8.90796 15.953C8.90796 15.6939 8.75108 15.4855 8.46654 15.4855C8.15739 15.4855 7.94436 15.7139 7.88284 16.0792H8.76646L8.76723 16.0799Z" fill="#1A1A1A"/>
<path d="M9.46236 17.5111H9.60001C9.74229 17.5111 9.84303 17.5111 9.84303 17.3427V15.9169C9.84303 15.76 9.65615 15.7293 9.58002 15.6885V15.6131C9.94993 15.4555 10.1537 15.324 10.1999 15.324C10.2299 15.324 10.2452 15.3386 10.2452 15.3901V15.8461H10.256C10.3821 15.6485 10.5959 15.324 10.9051 15.324C11.032 15.324 11.1942 15.4093 11.1942 15.5924C11.1942 15.7293 11.0989 15.8515 10.9558 15.8515C10.7982 15.8515 10.7982 15.7293 10.6205 15.7293C10.5344 15.7293 10.2498 15.8461 10.2498 16.1507V17.3419C10.2498 17.5103 10.3514 17.5103 10.4929 17.5103H10.7774V17.6426C10.4982 17.638 10.2852 17.6326 10.0676 17.6326C9.84995 17.6326 9.64616 17.638 9.46313 17.6426V17.5103L9.46236 17.5111Z" fill="#1A1A1A"/>
<path d="M11.4156 16.9374C11.4817 17.2719 11.6847 17.5565 12.0554 17.5565C12.3545 17.5565 12.4653 17.3734 12.4653 17.1958C12.4653 16.5975 11.3602 16.789 11.3602 15.973C11.3602 15.6885 11.5886 15.324 12.1469 15.324C12.3092 15.324 12.5268 15.3693 12.7252 15.4709L12.7614 15.9884H12.6445C12.5937 15.6693 12.4161 15.4855 12.0908 15.4855C11.8877 15.4855 11.6955 15.6024 11.6955 15.8208C11.6955 16.4152 12.8721 16.2322 12.8721 17.0289C12.8721 17.3635 12.6029 17.7187 12 17.7187C11.7962 17.7187 11.5578 17.648 11.3802 17.5465L11.324 16.9628L11.4156 16.9374Z" fill="#1A1A1A"/>
<path d="M17.4548 15.0194H17.3279C17.2318 14.4257 16.8104 14.1873 16.2428 14.1873C15.6753 14.1873 14.8109 14.578 14.8109 15.7954C14.8109 16.8213 15.543 17.5572 16.3236 17.5572C16.8257 17.5572 17.2426 17.2119 17.3441 16.679L17.4602 16.709L17.3441 17.4503C17.1311 17.5826 16.5566 17.7195 16.2221 17.7195C15.0347 17.7195 14.2841 16.9535 14.2841 15.8115C14.2841 14.771 15.2123 14.0251 16.2074 14.0251C16.6189 14.0251 17.0142 14.1573 17.4048 14.2942L17.4556 15.0202L17.4548 15.0194Z" fill="#1A1A1A"/>
<path d="M17.6378 17.5111H17.7347C17.877 17.5111 17.9785 17.5111 17.9785 17.3427V14.5172C17.9785 14.1865 17.9023 14.1765 17.7093 14.1212V14.0397C17.9123 13.9735 18.1254 13.8828 18.2322 13.8213C18.2876 13.7913 18.3284 13.7651 18.3438 13.7651C18.3745 13.7651 18.3845 13.7959 18.3845 13.8366V17.3427C18.3845 17.5111 18.4968 17.5111 18.6383 17.5111H18.7244V17.6434C18.5529 17.6434 18.3745 17.6334 18.1915 17.6334C18.0085 17.6334 17.827 17.6387 17.6378 17.6434V17.5111Z" fill="#1A1A1A"/>
<path d="M20.8967 17.3635C20.8967 17.4557 20.9521 17.4596 21.039 17.4596C21.0997 17.4596 21.1759 17.455 21.242 17.455V17.5619C21.0228 17.5819 20.6076 17.6888 20.5099 17.7188L20.4853 17.7034V17.2927C20.1815 17.5411 19.947 17.7188 19.5863 17.7188C19.3125 17.7188 19.0287 17.5419 19.0287 17.1158V15.8162C19.0287 15.6839 19.008 15.557 18.725 15.5316V15.4355C18.908 15.4301 19.3125 15.4001 19.3794 15.4001C19.4356 15.4001 19.4356 15.4355 19.4356 15.547V16.8559C19.4356 17.0082 19.4356 17.4442 19.877 17.4442C20.0492 17.4442 20.2776 17.3119 20.4907 17.1358V15.7693C20.4907 15.6685 20.2477 15.6124 20.0646 15.5616V15.4701C20.5214 15.4393 20.806 15.3993 20.856 15.3993C20.8967 15.3993 20.8967 15.4347 20.8967 15.4909V17.3635Z" fill="#1A1A1A"/>
<path d="M21.9059 15.6892C22.1089 15.517 22.3834 15.3247 22.6626 15.3247C23.2509 15.3247 23.6062 15.8377 23.6062 16.3898C23.6062 17.0543 23.1194 17.7195 22.3927 17.7195C22.0174 17.7195 21.8197 17.598 21.6875 17.5426L21.5352 17.6587L21.4291 17.6034C21.4737 17.3042 21.4998 17.0089 21.4998 16.6997V14.518C21.4998 14.1873 21.4237 14.1773 21.2306 14.1212V14.0397C21.4344 13.9735 21.6467 13.8828 21.7536 13.8213C21.809 13.7913 21.8497 13.7651 21.8659 13.7651C21.8959 13.7651 21.9059 13.7959 21.9059 13.8366V15.6892ZM21.9059 17.0697C21.9059 17.2627 22.0889 17.5872 22.4288 17.5872C22.9725 17.5872 23.2001 17.0543 23.2001 16.6021C23.2001 16.0545 22.7841 15.5977 22.388 15.5977C22.1996 15.5977 22.0427 15.72 21.9051 15.8369L21.9059 17.0697Z" fill="#1A1A1A"/>
<path d="M0.866701 20.6887C0.733658 20.6887 0.555242 20.6779 0.418354 20.6779C0.281466 20.6779 0.108434 20.6887 0 20.6887V20.5826H0.0507562C0.150731 20.5803 0.242246 20.5718 0.243015 20.4365V18.9899C0.243015 18.8546 0.150731 18.8461 0.0507562 18.8438H0V18.7377C0.108434 18.7377 0.286081 18.7484 0.42143 18.7484C0.55678 18.7484 0.735965 18.7377 0.866701 18.7377V18.8438H0.816714C0.71597 18.8453 0.624455 18.8546 0.623686 18.9899V20.4365C0.623686 20.5718 0.71597 20.5803 0.816714 20.5826H0.866701V20.6887Z" fill="#1A1A1A"/>
<path d="M11.1533 13.6883C8.47323 13.7006 6.26687 11.5296 6.26687 8.88567C6.26764 5.99795 8.47323 4 11.1533 4H12.4099C15.0585 4 17.4755 5.99641 17.4755 8.88644C17.4755 11.5288 15.0585 13.6891 12.4099 13.6891L11.1533 13.6883ZM11.1641 4.40067C8.7147 4.40144 6.72983 6.38631 6.72983 8.83568C6.72983 11.2851 8.7147 13.2692 11.1641 13.2699C13.6134 13.2699 15.5983 11.2851 15.5991 8.83568C15.5991 6.38631 13.6134 4.40144 11.1641 4.40067ZM10.1574 11.4581V6.21251C9.10383 6.61856 8.35633 7.6383 8.35326 8.83568C8.35633 10.0323 9.10383 11.0528 10.1574 11.4581ZM13.9757 8.83568C13.9734 7.63753 13.2251 6.61625 12.17 6.21174V11.4589C13.2251 11.0536 13.9734 10.0338 13.9757 8.83568Z" fill="#1A1A1A"/>
<path d="M2.92528 20.7296L2.79685 20.7257L1.39567 19.1638V20.2704C1.39952 20.5112 1.43566 20.5788 1.6433 20.5819H1.70252V20.688C1.58332 20.688 1.45181 20.6773 1.33415 20.6773C1.21649 20.6773 1.07191 20.688 0.946555 20.688V20.5819H0.998081C1.18111 20.5804 1.23264 20.4635 1.23494 20.2428V19.08C1.23494 18.9331 1.11344 18.8439 0.995004 18.8431H0.946555V18.737C1.05268 18.737 1.17265 18.7478 1.27647 18.7478C1.35876 18.7478 1.43874 18.737 1.53179 18.7408L2.74533 20.1066V19.0907C2.74379 18.8708 2.59767 18.8447 2.51692 18.8431H2.44386V18.737C2.57383 18.737 2.71379 18.7478 2.84299 18.7478C2.95527 18.7478 3.08062 18.737 3.19444 18.737V18.8431H3.14138C3.02679 18.8462 2.91067 18.857 2.90682 19.1815V20.4389C2.90682 20.535 2.91221 20.645 2.92528 20.7296Z" fill="#1A1A1A"/>
<path d="M4.69797 20.6887C4.58877 20.6887 4.3819 20.678 4.23347 20.678C4.06813 20.678 3.86357 20.6887 3.75513 20.6887V20.5826H3.81973C3.972 20.5788 4.03352 20.5772 4.0366 20.3627V18.8992H3.59594C3.39215 18.9038 3.39676 18.9477 3.35139 19.1514H3.2445C3.25526 19.0745 3.27141 18.9823 3.27987 18.9023C3.29064 18.8261 3.29602 18.7369 3.29602 18.6577H3.38369C3.40292 18.7277 3.45521 18.7362 3.52519 18.7377H4.96406C5.04019 18.7362 5.0971 18.7216 5.10171 18.65L5.19246 18.6646C5.18169 18.7392 5.16939 18.8254 5.16093 18.8992C5.15554 18.973 5.15554 19.0561 5.15554 19.1307L5.05019 19.1699L5.04998 19.1671C5.04229 19.0631 5.03017 18.8992 4.85716 18.8992H4.4165V20.3565C4.41958 20.5649 4.50187 20.5795 4.63414 20.5826H4.69797V20.6887Z" fill="#1A1A1A"/>
<path d="M6.75565 20.6872C6.57877 20.6872 6.24886 20.6772 6.00046 20.6772C5.75206 20.6772 5.41138 20.6887 5.25373 20.6887V20.5826H5.30449C5.40446 20.581 5.49597 20.5718 5.49674 20.4365V18.9899C5.49597 18.8553 5.40446 18.8461 5.30449 18.8438H5.25373V18.7377C5.42215 18.7377 5.72207 18.7484 5.95355 18.7484C6.18503 18.7484 6.48418 18.7377 6.6726 18.7377C6.67029 18.7792 6.66952 18.8407 6.66952 18.893C6.66952 18.9876 6.6726 19.1022 6.67798 19.1806L6.57262 19.2091C6.5557 19.0307 6.53263 18.8853 6.24732 18.883H5.87511V19.5821H6.19195C6.35191 19.5805 6.38113 19.4882 6.39959 19.3398H6.50572C6.50033 19.4475 6.49649 19.5674 6.49649 19.6751C6.49649 19.7828 6.49956 19.8935 6.50572 19.9989L6.39959 20.0196C6.38113 19.8512 6.37806 19.7459 6.19503 19.7436H5.87588V20.3749C5.87588 20.5412 6.01811 20.5418 6.19678 20.5426L6.20118 20.5426C6.53417 20.541 6.67029 20.5126 6.75334 20.2027L6.85332 20.228C6.81717 20.3734 6.78103 20.5418 6.75565 20.6872Z" fill="#1A1A1A"/>
<path d="M8.86086 20.6887C8.76858 20.6887 8.67014 20.6779 8.57862 20.6779C8.4948 20.6779 8.40636 20.6887 8.30946 20.6849C8.09798 20.4065 7.91649 20.1104 7.73807 19.7943H7.57504V20.3734C7.57806 20.5776 7.65843 20.5795 7.78251 20.5824L7.78883 20.5826H7.85035V20.6887C7.69193 20.6887 7.51966 20.6779 7.36278 20.6779C7.23051 20.6779 7.08978 20.6887 6.95135 20.6887V20.5826H7.01287C7.11208 20.5818 7.1959 20.538 7.19667 20.4449V19.0422C7.19516 18.8502 7.10224 18.8469 7.01726 18.8439L7.01287 18.8438H6.95135V18.7377C7.04133 18.7377 7.22359 18.7484 7.39201 18.7484C7.56042 18.7484 7.68962 18.7377 7.83651 18.7377C8.18411 18.7377 8.5048 18.8346 8.50557 19.2352C8.50557 19.4844 8.34022 19.6405 8.12797 19.7274L8.5917 20.4218C8.6686 20.5364 8.72705 20.5657 8.86086 20.5826V20.6887ZM8.11259 19.2529C8.11105 19.0122 7.96109 18.8622 7.72115 18.8607C7.64656 18.8607 7.61195 18.8676 7.57657 18.8715V19.6713H7.69885C7.97186 19.6682 8.11028 19.5736 8.11259 19.2529Z" fill="#1A1A1A"/>
<path d="M10.8988 20.7296L10.7712 20.7257L9.36998 19.1638V20.2704C9.37306 20.5112 9.40997 20.5788 9.61761 20.5819H9.67606V20.688C9.55686 20.688 9.42612 20.6765 9.30846 20.6765C9.1908 20.6765 9.04391 20.688 8.9201 20.688V20.5819H8.97086C9.15312 20.5811 9.20618 20.4635 9.20772 20.2428V19.08C9.20772 18.9323 9.08698 18.8439 8.96855 18.8431H8.9201V18.737C9.02546 18.737 9.1462 18.7478 9.25078 18.7478C9.3323 18.7478 9.41228 18.737 9.50457 18.7401L10.7189 20.1066V19.0907C10.7189 18.8708 10.5712 18.8439 10.4912 18.8431H10.4182V18.737C10.5489 18.737 10.6881 18.7478 10.8173 18.7478C10.9296 18.7478 11.0549 18.737 11.1688 18.737V18.8431H11.1157C11.0019 18.8462 10.8842 18.857 10.8811 19.1815V20.4389C10.8811 20.535 10.885 20.6442 10.8988 20.7296Z" fill="#1A1A1A"/>
<path d="M13.0844 20.6902C12.9606 20.6848 12.8229 20.6771 12.6906 20.6771C12.5666 20.6771 12.425 20.6825 12.2911 20.6877L12.2646 20.6887V20.5818H12.3077C12.3707 20.5818 12.4661 20.5679 12.4661 20.5149C12.4661 20.4833 12.443 20.4072 12.4122 20.3195L12.3069 20.0073H11.6978L11.6117 20.2857C11.5832 20.3803 11.5509 20.4533 11.5509 20.4979C11.5517 20.5656 11.6555 20.5818 11.747 20.5818H11.7893V20.6902C11.6786 20.684 11.5532 20.6779 11.4433 20.6779C11.3459 20.6779 11.2366 20.6838 11.1388 20.6891L11.1333 20.6894V20.5825C11.2364 20.5825 11.3494 20.5233 11.3894 20.4118L11.8316 19.1444C11.8678 19.0422 11.9178 18.9045 11.9416 18.7945C12.0277 18.7645 12.1646 18.7023 12.2185 18.6684C12.2254 18.6684 12.24 18.67 12.2484 18.6853L12.7829 20.1988C12.8152 20.2949 12.8483 20.3972 12.8844 20.4787C12.916 20.5525 12.9959 20.5818 13.0844 20.5818V20.6902ZM12.2408 19.8289L12.0008 19.0883L11.757 19.8289H12.2408Z" fill="#1A1A1A"/>
<path d="M14.2924 20.6887C14.1848 20.6887 13.9802 20.678 13.831 20.678C13.6657 20.678 13.4611 20.6887 13.3519 20.6887V20.5826H13.4165C13.5688 20.5788 13.6295 20.5772 13.6334 20.3627V18.8992H13.1927C12.9874 18.903 12.9912 18.9477 12.9459 19.1514H12.839C12.8505 19.0745 12.8659 18.9823 12.8736 18.903C12.8851 18.8254 12.8897 18.7369 12.8897 18.6577H12.9774C12.9966 18.7277 13.0504 18.7362 13.1204 18.7377H14.5593C14.6354 18.7362 14.6916 18.7216 14.6962 18.65L14.7885 18.6646C14.7769 18.7392 14.7646 18.8254 14.7562 18.8992C14.7508 18.973 14.7562 19.0561 14.7562 19.1307L14.6446 19.1699C14.6377 19.0661 14.6262 18.8992 14.4516 18.8992H14.011V20.3565C14.014 20.5649 14.0963 20.5795 14.2278 20.5826H14.2924V20.6887Z" fill="#1A1A1A"/>
<path d="M15.7312 20.6887C15.5974 20.6887 15.4205 20.6772 15.2828 20.6772C15.1452 20.6772 14.9729 20.6887 14.8652 20.6887V20.5826H14.9152C15.0152 20.581 15.1067 20.5718 15.1067 20.4365V18.9899C15.1067 18.8553 15.0152 18.8461 14.9152 18.8438H14.8652V18.7377C14.9729 18.7377 15.1505 18.7484 15.2851 18.7484C15.4197 18.7484 15.6004 18.7377 15.7312 18.7377V18.8438H15.6812C15.5804 18.8461 15.4889 18.8553 15.4882 18.9899V20.4365C15.4889 20.5718 15.5804 20.5803 15.6812 20.5826H15.7312V20.6887Z" fill="#1A1A1A"/>
<path d="M15.79 19.7267C15.7915 19.1461 16.2406 18.6962 16.8212 18.6954C17.4141 18.697 17.8894 19.0646 17.8902 19.6598C17.8902 20.3012 17.4288 20.7287 16.8351 20.7295C16.2444 20.728 15.7915 20.3265 15.79 19.7267ZM17.4803 19.7213C17.4803 19.3206 17.2642 18.8415 16.8158 18.8408C16.3421 18.8408 16.2022 19.2614 16.2014 19.629C16.2014 20.1212 16.4259 20.5826 16.8628 20.5842C17.3888 20.5842 17.4795 20.1235 17.4803 19.7213Z" fill="#1A1A1A"/>
<path d="M19.9127 20.7296L19.7851 20.7257L18.3839 19.1638V20.2704C18.387 20.5112 18.4239 20.5788 18.6315 20.5811H18.6915V20.688C18.5723 20.688 18.4408 20.6773 18.3231 20.6773C18.2055 20.6773 18.0609 20.688 17.9355 20.688V20.5811H17.9855C18.1678 20.5811 18.2201 20.4635 18.2216 20.2428V19.08C18.2216 18.9323 18.1017 18.8439 17.9825 18.8431H17.9355V18.737C18.0417 18.737 18.1609 18.7478 18.2647 18.7478C18.3462 18.7478 18.4262 18.737 18.52 18.7408L19.7328 20.1066V19.0907C19.7328 18.8708 19.5859 18.8447 19.5044 18.8431H19.4321V18.737C19.5621 18.737 19.702 18.7478 19.8297 18.7478C19.9435 18.7478 20.0673 18.737 20.1819 18.737V18.8431H20.1288C20.015 18.8462 19.8974 18.857 19.895 19.1815V20.4389C19.895 20.535 19.8997 20.645 19.9127 20.7296Z" fill="#1A1A1A"/>
<path d="M22.0982 20.688L22.0767 20.6872C21.958 20.6828 21.8293 20.678 21.706 20.678C21.5753 20.678 21.4207 20.6841 21.2792 20.6887V20.5826H21.3207C21.3853 20.5826 21.4807 20.5672 21.4807 20.5142C21.4807 20.4826 21.4561 20.4073 21.4246 20.3188L21.32 20.0066H20.7101L20.6255 20.285C20.5978 20.3796 20.5648 20.4526 20.5655 20.4965C20.5655 20.5641 20.6694 20.5818 20.7601 20.5818H20.8024V20.6887C20.6924 20.6834 20.5663 20.6772 20.4571 20.6772C20.3579 20.6772 20.2464 20.6834 20.1472 20.688V20.5818H20.1749C20.2779 20.5803 20.3641 20.5211 20.4041 20.4096L20.8462 19.1422C20.8816 19.0399 20.9308 18.9023 20.9554 18.7923C21.0423 18.7623 21.1808 18.7008 21.2338 18.6669C21.2408 18.6662 21.2554 18.6685 21.2638 18.6831L21.7968 20.1966C21.8298 20.2927 21.8629 20.395 21.8991 20.4772C21.9314 20.5503 21.9813 20.5795 22.0698 20.5811H22.0982V20.688ZM21.2561 19.8274L21.0154 19.0884L20.7724 19.8274H21.2561Z" fill="#1A1A1A"/>
<path d="M23.6484 20.6904C23.4053 20.6904 23.1539 20.6781 22.9116 20.6781C22.6694 20.6781 22.4133 20.6889 22.1703 20.6889V20.5827H22.2203C22.3202 20.5804 22.4156 20.5727 22.4164 20.4089V18.9901C22.4156 18.8563 22.321 18.8463 22.2203 18.8447H22.1703V18.7386C22.3172 18.7386 22.4725 18.7494 22.6186 18.7494C22.7647 18.7494 22.9078 18.7386 23.0493 18.7386V18.8447H22.9685C22.8616 18.8478 22.7947 18.8432 22.7924 18.9831V20.4074C22.794 20.5104 22.8609 20.5374 22.9478 20.5504C22.9954 20.5535 23.0477 20.5558 23.1 20.5558C23.1677 20.5558 23.2377 20.5527 23.31 20.5451C23.4223 20.532 23.5184 20.4674 23.5668 20.4012C23.6091 20.342 23.6368 20.2567 23.653 20.1967H23.7568C23.726 20.3543 23.6814 20.5327 23.6484 20.6904Z" fill="#1A1A1A"/>
</svg>
