<svg width="24" height="24" viewBox="0 0 24 24" fill="none" xmlns="http://www.w3.org/2000/svg">
<path d="M24.0001 16.4338H0.0010643V18.9H24.0001V16.4338Z" fill="#00358E"/>
<path d="M23.9989 5.10001H0V15.7663H23.9989V5.10001Z" fill="#00358E"/>
<path d="M2.41936 17.051H2.61196V18.2264H2.41936V17.051Z" fill="white"/>
<path d="M14.5828 17.051H14.775V18.2264H14.5828V17.051Z" fill="white"/>
<path d="M3.44208 17.051H3.64286L4.19088 17.9373H4.19905V17.051H4.3843V18.2264H4.18668L3.63551 17.3402L3.62673 17.3406V18.2265H3.44208V17.051Z" fill="white"/>
<path d="M9.83993 17.051H10.0406L10.5886 17.9373H10.5968V17.051H10.7821V18.2264H10.5842L10.0331 17.3402L10.0245 17.3406V18.2265H9.83993V17.051Z" fill="white"/>
<path d="M17.236 17.051H17.4365L17.9848 17.9373H17.993V17.051H18.1784V18.2264H17.9804L17.4292 17.3402L17.4206 17.3406V18.2265H17.236V17.051Z" fill="white"/>
<path d="M5.02516 17.051H5.96453V17.2169H5.58541V18.2264H5.40204V17.2169H5.02516V17.051Z" fill="white"/>
<path d="M12.955 17.051H13.8945V17.2169H13.515V18.2264H13.3318V17.2169H12.955V17.051Z" fill="white"/>
<path d="M6.56883 17.051H7.40387V17.2159H6.76038L6.76083 17.5424H7.35752L7.35707 17.6963H6.76225V18.0659H7.41647V18.2264H6.56883V17.051Z" fill="white"/>
<path d="M8.14765 17.0508H8.69087C8.94759 17.0508 9.07607 17.178 9.07607 17.3728C9.07607 17.5983 8.91677 17.6517 8.87919 17.665L8.87897 17.6696C8.94939 17.6798 9.05919 17.7321 9.05919 17.9181C9.05919 18.055 9.07794 18.1786 9.12196 18.2263H8.92509C8.89382 18.1753 8.89292 18.111 8.89382 18.0536C8.89697 17.8364 8.83442 17.7298 8.64519 17.7298H8.3326V18.2263H8.14765V17.0508ZM8.3305 17.5979H8.67887C8.81844 17.5979 8.89884 17.5313 8.89884 17.4013C8.89884 17.2516 8.80284 17.2107 8.67647 17.2107H8.33005L8.3305 17.5979Z" fill="white"/>
<path d="M11.8757 17.051H12.0704L12.5233 18.2264H12.328L12.2123 17.9063H11.7254L11.6078 18.2264H11.4246L11.8757 17.051ZM11.7713 17.7675H12.1682L11.9801 17.24H11.9603L11.7713 17.7675Z" fill="white"/>
<path d="M19.2792 17.051H19.4739L19.9267 18.2264H19.7318L19.616 17.9063H19.1292L19.0115 18.2264H18.8281L19.2792 17.051ZM19.1748 17.7675H19.5717L19.3838 17.24H19.364L19.1748 17.7675Z" fill="white"/>
<path d="M16.598 17.6385C16.598 17.9747 16.3939 18.2521 16.0414 18.2521C15.6892 18.2521 15.4835 17.976 15.4835 17.6403C15.4835 17.3045 15.6892 17.0253 16.0414 17.0253C16.3939 17.0252 16.598 17.3026 16.598 17.6385ZM15.6616 17.6416C15.6616 17.8839 15.7746 18.1074 16.0384 18.1074C16.3054 18.1074 16.42 17.8897 16.42 17.6453C16.42 17.4096 16.3054 17.1706 16.0382 17.1706C15.7792 17.1705 15.6616 17.3979 15.6616 17.6416Z" fill="white"/>
<path d="M20.6014 17.051H20.7862V18.0592H21.3864V18.2264H20.6014V17.051Z" fill="white"/>
<path d="M6.85594 8.77027C6.85594 8.94074 6.99371 9.07852 7.16411 9.07852C7.33496 9.07852 7.47236 8.94074 7.47236 8.77027C7.47236 8.59987 7.33496 8.4621 7.16411 8.4621C6.98771 8.4621 6.85594 8.59995 6.85594 8.77027Z" fill="white"/>
<path d="M8.30639 12.4861H9.80562V12.2923C9.43115 12.2758 9.32555 12.2464 9.32555 11.9326C9.32555 11.9326 9.2894 10.6803 9.32555 10.556C9.40153 10.2923 9.65637 10.127 9.77667 10.1141C10.0799 10.0812 10.146 10.3061 10.146 10.3061L10.4703 10.0295C10.4703 10.0295 10.3503 9.70614 9.9803 9.70614C9.6026 9.70614 9.3527 10.0628 9.2912 10.3042L9.29893 9.78721L8.32664 9.79336L8.32289 9.94516H8.41056C8.83596 9.94636 8.80798 10.2601 8.80798 10.5578L8.81721 11.9237C8.81721 12.2539 8.64756 12.2706 8.30639 12.2922V12.4861Z" fill="white"/>
<path d="M12.1639 8.76392L10.5122 8.77352V8.96739C10.9854 8.98337 11.0261 9.10554 11.0515 9.22689V11.6981C11.0515 12.1935 10.9744 12.3199 10.5122 12.3199V12.4953H12.1525V12.3199C11.6628 12.3148 11.5856 12.2041 11.5856 11.6981V11.1094H11.8576C12.2871 11.1094 12.6982 11.075 12.9665 10.9987C13.5108 10.8253 13.7143 10.4009 13.7143 9.95506C13.7142 9.06894 13.0555 8.76392 12.1639 8.76392ZM11.7923 10.8197C11.6966 10.8197 11.5779 10.8077 11.5779 10.8077V9.06714C11.5779 9.06714 11.7855 9.06017 11.9026 9.05792C13.1194 9.03767 13.1584 9.59439 13.1584 9.97771C13.1584 10.3547 13.1139 10.8197 11.7923 10.8197Z" fill="white"/>
<path d="M13.7599 12.5047H15.2517V12.2886C14.943 12.2824 14.7464 12.2308 14.7464 11.9221L14.7379 8.76392H13.7311V8.93942L13.9159 8.94722C14.1853 8.94722 14.2485 9.06287 14.2485 9.34314L14.2393 11.8762C14.2393 12.2014 14.1118 12.2854 13.7599 12.2965L13.7599 12.5047Z" fill="white"/>
<path d="M18.1165 11.7622V9.79216L17.1011 9.79359V9.97419C17.4705 9.97419 17.6095 10.0458 17.6095 10.3641C17.6095 10.3641 17.6648 11.5347 17.5616 11.8174C17.5031 11.9768 17.1482 12.4215 16.6303 12.2649C16.227 12.1427 16.228 11.8946 16.228 11.4271V9.79216L15.2257 9.79359V9.97419H15.2484C15.6116 9.97419 15.7489 10.0729 15.7489 10.4305V11.4153C15.7489 12.2366 15.9283 12.4582 16.5567 12.5508C16.8941 12.6011 17.3507 12.5049 17.6323 12.0269V12.4964L18.6164 12.4854V12.2728C18.567 12.2778 18.4485 12.265 18.375 12.2466C18.1613 12.1931 18.1165 11.9993 18.1165 11.7622Z" fill="white"/>
<path d="M18.9745 12.4861H19.1478C19.1643 12.4201 19.1453 12.3118 19.2162 12.3118C19.3646 12.3118 19.5313 12.5893 20.1827 12.5137C20.6463 12.46 21.0039 12.1591 21.0039 11.714C21.0039 11.4058 20.8968 11.2193 20.5612 11.0367C20.5612 11.0367 20.2844 10.9154 19.8497 10.7843C19.3908 10.6451 19.422 10.4678 19.4142 10.3805C19.3958 10.178 19.6343 9.98762 19.8868 9.96489C20.165 9.93969 20.6591 10.0416 20.7363 10.4591H20.9433L20.9403 9.76045H20.7455C20.7235 9.82112 20.694 9.92949 20.6444 9.92949C20.5562 9.92949 20.2844 9.68702 19.9241 9.7063C19.4155 9.7339 18.9725 10.0623 18.9725 10.4757C18.9725 10.7783 19.1243 11.009 19.422 11.1559C19.7209 11.3039 20.0788 11.4035 20.2604 11.4674C20.4411 11.5298 20.5612 11.667 20.5612 11.8762C20.5612 12.1245 20.3083 12.2886 20.0154 12.2886C19.6692 12.2886 19.2832 12.2335 19.1574 11.7104H18.9746L18.9745 12.4861Z" fill="white"/>
<path fill-rule="evenodd" clip-rule="evenodd" d="M6.1832 12.2218C6.10603 12.1554 6.02885 12.0454 5.95175 11.8807L4.47584 8.6992H4.25167L2.84476 11.7967C2.68539 12.1316 2.55909 12.2806 2.28354 12.2855V12.4954L3.44843 12.5001L3.44963 12.2854H3.39585C3.11581 12.2854 3.08716 12.2142 3.08716 12.0544C3.08716 11.9884 3.11431 11.8892 3.17491 11.7526L3.29483 11.4985H5.21159L5.39353 11.8678C5.42053 11.9284 5.43163 11.9884 5.43163 12.0378C5.43163 12.2255 5.31089 12.2806 5.00766 12.2854V12.4861L6.49719 12.4861H7.97813V12.2909C7.65893 12.2854 7.48854 12.1917 7.48854 11.8834V9.7632L6.47979 9.7641L6.47934 9.95242L6.71192 9.9747C6.93362 9.98557 6.98964 10.303 6.98964 10.5836L6.98094 11.8669C6.98094 12.1921 6.84969 12.2799 6.49719 12.2909C6.3604 12.2909 6.2654 12.2933 6.1832 12.2218ZM4.23697 9.41072L3.43493 11.2212L5.10569 11.2388L4.23697 9.41072Z" fill="white"/>
</svg>
