<svg width="24" height="24" viewBox="0 0 24 24" fill="none" xmlns="http://www.w3.org/2000/svg">
<path d="M15.0173 20.6994C15.0209 20.8382 14.9941 20.9761 14.9389 21.1035C14.8915 21.2097 14.8211 21.304 14.7328 21.3797C14.6469 21.4515 14.5473 21.5052 14.4401 21.5373C14.2197 21.6047 13.9843 21.6047 13.7639 21.5373C13.6564 21.505 13.5565 21.4514 13.4702 21.3797C13.3814 21.3044 13.3109 21.21 13.264 21.1035C13.2095 20.9759 13.1832 20.8381 13.1867 20.6994V19.5614H13.6196V20.6603C13.6176 20.7425 13.6302 20.8246 13.6567 20.9025C13.6779 20.9635 13.7128 21.0189 13.7588 21.0643C13.8023 21.1056 13.8549 21.1363 13.9123 21.1539C14.036 21.191 14.1679 21.191 14.2916 21.1539C14.3491 21.1363 14.4017 21.1056 14.4452 21.0643C14.4912 21.0189 14.5261 20.9635 14.5472 20.9025C14.5738 20.8246 14.5864 20.7426 14.5844 20.6603V19.5614H15.0173V20.6994ZM11.0263 19.5119C10.9215 19.5088 10.8179 19.5341 10.7263 19.5849C10.6347 19.6358 10.5586 19.7105 10.5059 19.801V19.5615H10.0805V21.5357H10.51V20.4288C10.51 20.1025 10.6504 19.9208 10.9313 19.9208C11.0231 19.9195 11.1144 19.9364 11.1997 19.9704L11.3319 19.5656C11.2338 19.5305 11.1304 19.5124 11.0263 19.5119ZM12.5559 19.5119C12.4511 19.5088 12.3475 19.5341 12.2559 19.5849C12.1644 19.6358 12.0882 19.7105 12.0355 19.801V19.5615H11.6101V21.5357H12.0396V20.4288C12.0396 20.1025 12.18 19.9208 12.4609 19.9208C12.5528 19.9195 12.644 19.9364 12.7293 19.9704L12.8615 19.5656C12.7634 19.5305 12.6601 19.5124 12.5559 19.5119ZM6.85898 20.5486C6.85327 20.6877 6.87674 20.8264 6.92787 20.9558C6.97901 21.0853 7.05667 21.2026 7.15588 21.3003C7.25508 21.3979 7.37362 21.4737 7.50387 21.5228C7.63413 21.5719 7.77321 21.5932 7.91218 21.5853C8.17005 21.5982 8.42344 21.5142 8.62253 21.3498L8.41603 21.0029C8.26753 21.1161 8.08648 21.1784 7.89976 21.1805C7.7388 21.1707 7.58764 21.0999 7.47712 20.9824C7.3666 20.865 7.30506 20.7098 7.30506 20.5486C7.30506 20.3873 7.3666 20.2322 7.47712 20.1147C7.58764 19.9973 7.7388 19.9265 7.89976 19.9167C8.08648 19.9188 8.26753 19.9811 8.41603 20.0943L8.62253 19.7474C8.42344 19.583 8.17005 19.499 7.91218 19.5119C7.77321 19.504 7.63413 19.5253 7.50388 19.5744C7.37362 19.6235 7.25509 19.6992 7.15589 19.7969C7.05669 19.8945 6.97902 20.0118 6.92789 20.1413C6.87675 20.2708 6.85328 20.4095 6.85898 20.5486ZM17.0791 19.7185C16.836 19.5739 16.5565 19.5022 16.2738 19.5119C15.774 19.5119 15.4519 19.7515 15.4519 20.1438C15.4519 20.466 15.6914 20.6642 16.1333 20.7262L16.3357 20.7551C16.5711 20.7881 16.6826 20.8501 16.6826 20.9616C16.6826 21.1144 16.5257 21.2011 16.2325 21.2011C15.9966 21.2079 15.7653 21.1352 15.5758 20.9947L15.3734 21.3291C15.6236 21.5039 15.9233 21.5937 16.2283 21.5853C16.7983 21.5853 17.1287 21.3167 17.1287 20.9409C17.1287 20.594 16.8685 20.4123 16.439 20.3503L16.2366 20.3214C16.0507 20.2966 15.9021 20.2595 15.9021 20.1273C15.9021 19.9828 16.0425 19.896 16.2779 19.896C16.4941 19.8993 16.7059 19.9576 16.8933 20.0654L17.0791 19.7185ZM9.57464 18.8793C9.575 18.9193 9.56732 18.9589 9.55207 18.9959C9.53681 19.0328 9.51429 19.0663 9.48584 19.0944C9.45739 19.1225 9.42359 19.1445 9.38645 19.1593C9.34931 19.174 9.30958 19.1812 9.26962 19.1803C9.22988 19.1811 9.19039 19.1739 9.15351 19.159C9.11663 19.1442 9.08313 19.1221 9.05503 19.0939C9.02692 19.0658 9.00479 19.0323 8.98996 18.9955C8.97513 18.9586 8.96791 18.9191 8.96873 18.8793C8.96783 18.8394 8.97497 18.7997 8.98973 18.7625C9.00448 18.7254 9.02655 18.6916 9.05461 18.6631C9.08268 18.6347 9.11617 18.6122 9.15311 18.5969C9.19004 18.5817 9.22967 18.574 9.26962 18.5744C9.3098 18.5739 9.34965 18.5815 9.38686 18.5967C9.42406 18.6118 9.45785 18.6343 9.48627 18.6627C9.51468 18.6911 9.53713 18.7249 9.5523 18.7621C9.56748 18.7993 9.57507 18.8392 9.57464 18.8793ZM9.48807 21.5358H9.0553V19.5615H9.48807V21.5358Z" fill="black"/>
<path d="M15.2452 4.58575H8.75551V16.2479H15.2452V4.58575Z" fill="#007AD0"/>
<path d="M24.0003 10.4168C24.0004 11.8085 23.6089 13.172 22.8706 14.3517C22.1323 15.5314 21.077 16.4795 19.8253 17.0877C18.5736 17.696 17.176 17.9398 15.7923 17.7913C14.4086 17.6427 13.0946 17.1079 12.0005 16.2479C12.8833 15.5538 13.5969 14.6683 14.0876 13.6582C14.5783 12.6481 14.8333 11.5398 14.8333 10.4168C14.8333 9.29383 14.5783 8.18551 14.0876 7.17542C13.5969 6.16533 12.8833 5.27984 12.0005 4.58571C13.0946 3.7257 14.4086 3.19087 15.7923 3.04236C17.176 2.89384 18.5736 3.13764 19.8253 3.74588C21.077 4.35411 22.1323 5.30225 22.8706 6.48191C23.6089 7.66157 24.0004 9.02516 24.0003 10.4168Z" fill="#00A2E5"/>
<path d="M9.1674 10.4168C9.16638 9.29366 9.42089 8.18499 9.91168 7.17474C10.4025 6.16449 11.1167 5.27915 12.0002 4.58572C10.9061 3.7257 9.59204 3.19087 8.20831 3.04236C6.82459 2.89384 5.427 3.13763 4.17528 3.74586C2.92356 4.3541 1.86822 5.30222 1.12989 6.48189C0.391547 7.66155 0 9.02514 0 10.4168C0 11.8085 0.391547 13.1721 1.12989 14.3517C1.86822 15.5314 2.92356 16.4795 4.17528 17.0878C5.427 17.696 6.82459 17.9398 8.20831 17.7913C9.59204 17.6427 10.9061 17.1079 12.0002 16.2479C11.1167 15.5545 10.4025 14.6691 9.91168 13.6589C9.42089 12.6486 9.16638 11.54 9.1674 10.4168Z" fill="#0066BA"/>
</svg>
