<svg width="24" height="24" viewBox="0 0 24 24" fill="none" xmlns="http://www.w3.org/2000/svg">
<path opacity="0.7" d="M16.624 6C17.6825 6 18.655 6.25549 19.457 6.67499C21.3695 7.66199 22.4845 9.65649 22.142 11.85C21.8934 13.3607 21.1152 14.7336 19.9468 15.723C18.7784 16.7124 17.296 17.2537 15.765 17.25H13.162L12.0785 24H7.44501L8.18651 19.5L9.06151 13.911L9.24501 12.75L10.304 6H16.624Z" fill="white"/>
<path opacity="0.7" d="M19.457 6.675C18.655 6.2555 17.6825 6 16.624 6H10.304L9.245 12.75H12.9935C16.88 12.75 19.457 9.462 19.457 6.675Z" fill="white"/>
<path d="M19.457 6.675C18.655 6.2555 17.6825 6 16.624 6H10.304L9.245 12.75L9.06098 13.911L8.18648 19.5H3.52798L6.33048 1.5H13.878C16.4195 1.5 18.419 2.9165 19.1555 4.885C19.3679 5.45733 19.4702 6.06466 19.457 6.675Z" fill="white"/>
</svg>
