<svg width="24" height="24" viewBox="0 0 24 24" fill="none" xmlns="http://www.w3.org/2000/svg">
<path d="M0.194883 15.2834H0.374542L0.207596 15.9807C0.182819 16.0842 0.187489 16.1621 0.221735 16.214C0.25585 16.266 0.319347 16.292 0.41216 16.292C0.504389 16.292 0.580015 16.266 0.639101 16.214C0.698252 16.1621 0.740216 16.0842 0.764992 15.9807L0.931874 15.2834H1.11387L0.942835 15.998C0.905671 16.1532 0.83945 16.2695 0.744626 16.3465C0.649738 16.4237 0.525339 16.4622 0.371429 16.4622C0.217389 16.4622 0.111734 16.4238 0.0542045 16.3469C-0.00339006 16.2701 -0.0134432 16.1538 0.0238506 15.998L0.194883 15.2834Z" fill="#696A6A"/>
<path d="M1.0897 16.4317L1.37547 15.238L1.91846 15.9399C1.93299 15.9597 1.94765 15.9809 1.96211 16.0034C1.97658 16.0259 1.99137 16.0512 2.00654 16.0795L2.19716 15.2834H2.36534L2.07977 16.4762L1.52536 15.7617C1.5105 15.7425 1.49669 15.7221 1.48378 15.7007C1.47074 15.6792 1.45901 15.6567 1.44824 15.6332L1.2571 16.4317H1.0897Z" fill="#696A6A"/>
<path d="M2.35049 16.4316L2.62536 15.2834H2.80722L2.53241 16.4316H2.35049Z" fill="#696A6A"/>
<path d="M2.79395 16.4316L3.06882 15.2834H3.69341L3.65547 15.4418H3.2128L3.14425 15.7281H3.58691L3.54774 15.892H3.10501L2.97588 16.4316H2.79395Z" fill="#696A6A"/>
<path d="M3.61887 16.4316L3.89375 15.2834H4.07561L3.8008 16.4316H3.61887Z" fill="#696A6A"/>
<path d="M4.06233 16.4316L4.33721 15.2834H4.9618L4.92385 15.4418H4.48119L4.41225 15.7296H4.85491L4.81573 15.8936H4.37307L4.28422 16.2646H4.72688L4.68692 16.4316H4.06233Z" fill="#696A6A"/>
<path d="M5.11808 16.263H5.27102C5.35508 16.263 5.41955 16.2572 5.46436 16.2457C5.50918 16.2343 5.5503 16.2149 5.58799 16.1877C5.63916 16.1507 5.6819 16.1045 5.71628 16.0493C5.75059 15.9942 5.77659 15.9299 5.79411 15.8567C5.81155 15.7834 5.81635 15.7194 5.80844 15.6643C5.80046 15.609 5.77984 15.5629 5.74644 15.5258C5.72133 15.4986 5.68819 15.4792 5.64681 15.4676C5.60537 15.4562 5.53791 15.4504 5.44413 15.4504H5.31259L5.11808 16.263ZM4.89581 16.4317L5.17068 15.2834H5.41604C5.5756 15.2834 5.68586 15.2915 5.74695 15.308C5.80792 15.3246 5.85832 15.3522 5.89795 15.3908C5.95055 15.4416 5.98401 15.5067 5.99841 15.5861C6.01275 15.6656 6.00769 15.7563 5.9833 15.8583C5.95891 15.9602 5.92058 16.0506 5.86831 16.1293C5.81616 16.208 5.75149 16.2729 5.67457 16.3242C5.61639 16.3629 5.554 16.3904 5.48771 16.407C5.42123 16.4234 5.32213 16.4317 5.19008 16.4317H4.89581Z" fill="#696A6A"/>
<path d="M6.86901 15.7635H6.91571C7.01656 15.7635 7.08655 15.7521 7.12559 15.7297C7.1647 15.7072 7.19097 15.6675 7.20459 15.6105C7.21925 15.5493 7.21166 15.5061 7.18169 15.4811C7.15173 15.456 7.08869 15.4433 6.99237 15.4433H6.94567L6.86901 15.7635ZM6.82095 15.9163L6.69759 16.4317H6.52714L6.80208 15.2834H7.07727C7.1588 15.2834 7.21776 15.288 7.25408 15.2971C7.29027 15.3062 7.32017 15.3213 7.34378 15.3423C7.37251 15.3689 7.39138 15.4049 7.40046 15.4501C7.40948 15.4953 7.40753 15.5451 7.39456 15.5994C7.38146 15.6538 7.35954 15.704 7.32866 15.7501C7.29779 15.7961 7.2616 15.8322 7.22022 15.8583C7.18662 15.8792 7.14959 15.8941 7.10899 15.903C7.06832 15.9119 7.00729 15.9163 6.92576 15.9163H6.82095Z" fill="#696A6A"/>
<path d="M7.61915 15.9807H7.93106L7.87898 15.7186C7.87651 15.702 7.87418 15.6828 7.87217 15.6611C7.87029 15.6393 7.86899 15.6151 7.86815 15.5885C7.85608 15.6136 7.84395 15.637 7.83183 15.6587C7.81976 15.6804 7.80802 15.7004 7.79648 15.7186L7.61915 15.9807ZM8.01427 16.4316L7.95804 16.1359H7.5146L7.31386 16.4316H7.12285L7.95052 15.2379L8.20613 16.4316H8.01427Z" fill="#696A6A"/>
<path d="M8.46696 16.4316L8.59266 15.9061L8.36488 15.2834H8.55602L8.69741 15.6732C8.70065 15.6832 8.70454 15.6962 8.70902 15.7124C8.71356 15.7286 8.71797 15.7461 8.72212 15.765C8.73353 15.7467 8.74527 15.7293 8.75701 15.7131C8.76875 15.6969 8.78062 15.6821 8.79262 15.6684L9.12554 15.2834H9.30753L8.7731 15.9061L8.64734 16.4316H8.46696Z" fill="#696A6A"/>
<path d="M10.2029 15.8645C10.203 15.8556 10.2056 15.8311 10.2107 15.7908C10.2146 15.7574 10.2176 15.7296 10.2198 15.7076C10.209 15.7338 10.1962 15.76 10.1815 15.7861C10.1668 15.8122 10.15 15.8389 10.1307 15.8661L9.6914 16.478L9.54806 15.8536C9.54197 15.8279 9.5373 15.8031 9.53418 15.7791C9.53107 15.755 9.52893 15.7312 9.52789 15.7076C9.52167 15.7318 9.51375 15.7569 9.50409 15.7834C9.49443 15.8098 9.48288 15.8374 9.46933 15.8661L9.21391 16.4316H9.04658L9.59755 15.2347L9.75438 15.9595C9.75665 15.971 9.75996 15.9901 9.76398 16.0167C9.768 16.0434 9.77273 16.0764 9.77825 16.1155C9.7968 16.0826 9.82352 16.0408 9.85867 15.9901C9.86801 15.9765 9.87515 15.966 9.87995 15.9587L10.3759 15.2347L10.36 16.4316H10.191L10.2029 15.8645Z" fill="#696A6A"/>
<path d="M10.5052 16.4316L10.7802 15.2834H11.4047L11.3668 15.4418H10.9241L10.8552 15.7296H11.2979L11.2587 15.8936H10.816L10.7272 16.2646H11.1698L11.1297 16.4316H10.5052Z" fill="#696A6A"/>
<path d="M11.3385 16.4317L11.6242 15.238L12.1672 15.9399C12.1818 15.9597 12.1964 15.9809 12.2109 16.0034C12.2253 16.0259 12.2401 16.0512 12.2553 16.0795L12.4459 15.2834H12.6142L12.3285 16.4762L11.7741 15.7617C11.7593 15.7425 11.7455 15.7221 11.7325 15.7007C11.7195 15.6792 11.7078 15.6567 11.697 15.6332L11.5059 16.4317H11.3385Z" fill="#696A6A"/>
<path d="M13.1948 15.4418L12.9578 16.4317H12.7759L13.0128 15.4418H12.7154L12.7533 15.2834H13.5285L13.4907 15.4418H13.1948Z" fill="#696A6A"/>
<path d="M13.3836 16.2018L13.5454 16.1329C13.547 16.184 13.5628 16.2232 13.593 16.2501C13.6233 16.2771 13.6669 16.2905 13.7241 16.2905C13.7781 16.2905 13.8248 16.275 13.8639 16.2442C13.9032 16.2134 13.9291 16.172 13.9415 16.1203C13.9576 16.0528 13.9173 15.9926 13.821 15.9399C13.8075 15.9321 13.7971 15.9263 13.79 15.9226C13.6814 15.8609 13.6125 15.8051 13.5834 15.7551C13.5544 15.7052 13.5485 15.6442 13.5657 15.572C13.5881 15.4784 13.6373 15.4026 13.7131 15.3446C13.7889 15.2865 13.877 15.2575 13.9774 15.2575C14.06 15.2575 14.1252 15.2738 14.1729 15.3065C14.2206 15.3393 14.2478 15.3862 14.2546 15.4473L14.0945 15.5226C14.0806 15.4866 14.0623 15.4602 14.0396 15.4434C14.0168 15.4266 13.988 15.4183 13.9534 15.4183C13.9045 15.4183 13.8625 15.4314 13.8274 15.4574C13.7925 15.4836 13.7696 15.5187 13.7591 15.5626C13.7426 15.6316 13.7904 15.6959 13.9025 15.7555C13.9112 15.7602 13.9179 15.764 13.9228 15.7665C14.0209 15.8188 14.0847 15.8699 14.114 15.9199C14.1433 15.9699 14.1491 16.0322 14.1311 16.1069C14.1051 16.2158 14.0511 16.3022 13.9689 16.3662C13.8868 16.4302 13.7889 16.4622 13.6753 16.4622C13.5799 16.4622 13.5072 16.4398 13.4571 16.3948C13.4069 16.3498 13.3824 16.2855 13.3836 16.2018Z" fill="#696A6A"/>
<path d="M14.7277 16.4316L15.0026 15.2834H15.1845L14.9096 16.4316H14.7277Z" fill="#696A6A"/>
<path d="M15.1712 16.4317L15.4569 15.238L15.9999 15.9399C16.0145 15.9597 16.0291 15.9809 16.0436 16.0034C16.0581 16.0259 16.0728 16.0512 16.088 16.0795L16.2786 15.2834H16.4468L16.1612 16.4762L15.6068 15.7617C15.592 15.7425 15.5781 15.7221 15.5652 15.7007C15.5522 15.6792 15.5404 15.6567 15.5297 15.6332L15.3386 16.4317H15.1712Z" fill="#696A6A"/>
<path d="M17.0275 15.4418L16.7905 16.4317H16.6086L16.8455 15.4418H16.5481L16.5861 15.2834H17.3612L17.3234 15.4418H17.0275Z" fill="#696A6A"/>
<path d="M17.2255 16.4316L17.5004 15.2834H18.125L18.0871 15.4418H17.6445L17.5755 15.7296H18.0182L17.9789 15.8936H17.5363L17.4475 16.2646H17.8901L17.8501 16.4316H17.2255Z" fill="#696A6A"/>
<path d="M18.3984 15.7727H18.4314C18.5276 15.7727 18.5944 15.7613 18.6315 15.7383C18.6686 15.7153 18.6943 15.6745 18.7081 15.6159C18.7233 15.5527 18.7171 15.5081 18.6893 15.4822C18.6617 15.4562 18.602 15.4433 18.5103 15.4433H18.4773L18.3984 15.7727ZM18.3523 15.9178L18.2292 16.4316H18.0588L18.3337 15.2834H18.5875C18.6619 15.2834 18.7185 15.2883 18.757 15.2983C18.7957 15.3082 18.8268 15.3246 18.8504 15.3477C18.8784 15.3754 18.8966 15.4113 18.905 15.4552C18.9132 15.499 18.9111 15.5472 18.8986 15.5994C18.8766 15.6914 18.8377 15.7635 18.782 15.8155C18.7262 15.8675 18.6547 15.8988 18.5676 15.9092L18.8279 16.4316H18.6222L18.3729 15.9178H18.3523Z" fill="#696A6A"/>
<path d="M18.9357 16.4316L19.2106 15.2834H19.8352L19.7973 15.4418H19.3546L19.286 15.7281H19.7288L19.6895 15.892H19.2469L19.1177 16.4316H18.9357Z" fill="#696A6A"/>
<path d="M20.046 15.9807H20.358L20.3059 15.7186C20.3034 15.702 20.3011 15.6828 20.2991 15.6611C20.2972 15.6393 20.2959 15.6151 20.2951 15.5885C20.283 15.6136 20.2708 15.637 20.2588 15.6587C20.2467 15.6804 20.2349 15.7004 20.2234 15.7186L20.046 15.9807ZM20.4412 16.4316L20.385 16.1359H19.9415L19.7408 16.4316H19.5497L20.3774 15.2379L20.6331 16.4316H20.4412Z" fill="#696A6A"/>
<path d="M21.8175 15.5626C21.7768 15.5176 21.7305 15.4839 21.6785 15.4614C21.6266 15.439 21.569 15.4277 21.5058 15.4277C21.3835 15.4277 21.2743 15.4679 21.1784 15.5484C21.0823 15.629 21.019 15.7333 20.9883 15.8614C20.9587 15.9854 20.9716 16.0875 21.027 16.168C21.0824 16.2486 21.167 16.2889 21.2805 16.2889C21.3469 16.2889 21.4128 16.2769 21.4784 16.2528C21.544 16.2287 21.6103 16.1924 21.6769 16.1437L21.6264 16.3548C21.5688 16.3908 21.5091 16.4178 21.4473 16.4355C21.3854 16.4533 21.3209 16.4622 21.2536 16.4622C21.168 16.4622 21.0922 16.4478 21.0265 16.419C20.9608 16.3903 20.907 16.348 20.8654 16.292C20.824 16.2371 20.7975 16.1724 20.7862 16.0978C20.7746 16.0234 20.779 15.944 20.7991 15.8598C20.8192 15.7756 20.8529 15.6966 20.8999 15.6226C20.9469 15.5486 21.0049 15.4836 21.0738 15.4277C21.143 15.3712 21.2169 15.3285 21.2956 15.2994C21.3744 15.2704 21.4557 15.2559 21.5393 15.2559C21.6051 15.2559 21.6654 15.2657 21.7203 15.2854C21.7753 15.3049 21.826 15.3345 21.8726 15.3744L21.8175 15.5626Z" fill="#696A6A"/>
<path d="M21.835 16.4316L22.1098 15.2834H22.7344L22.6965 15.4418H22.2539L22.1849 15.7296H22.6276L22.5884 15.8936H22.1457L22.0569 16.2646H22.4996L22.4596 16.4316H21.835Z" fill="#696A6A"/>
<path d="M22.4161 8.0126L23.9995 11.1617L20.6708 14.3099L22.4161 8.0126Z" fill="#27803B"/>
<path d="M21.306 8.0126L22.8883 11.1617L19.5583 14.3099L21.306 8.0126Z" fill="#E9661C"/>
<path d="M18.5166 14.2828H17.2659L19.0053 8.00085H20.2561L18.5166 14.2828Z" fill="#66686C"/>
<path d="M17.8672 8.19946C17.7805 8.07993 17.6468 8.01961 17.4651 8.01961H10.5878L10.2471 9.24998L16.5036 9.24927L16.1395 10.5641H11.1343L11.1347 10.5614H9.88384L8.84564 14.3094H10.0972L10.7939 11.7937H16.4201C16.5958 11.7937 16.7612 11.7338 16.9167 11.614C17.0719 11.494 17.1741 11.346 17.2231 11.1693L17.9197 8.65322C17.9706 8.47064 17.953 8.31913 17.8672 8.19946Z" fill="#66686C"/>
<path d="M8.11687 13.8906C8.04779 14.1394 7.82131 14.3114 7.5631 14.3114H1.11024C0.934407 14.3114 0.803717 14.2515 0.717779 14.1318C0.631906 14.0119 0.613486 13.8636 0.662584 13.687L2.2371 8.01922H3.48894L2.0826 13.0815H7.09009L8.49642 8.01922H9.748L8.11687 13.8906Z" fill="#66686C"/>
</svg>
