<svg width="24" height="24" viewBox="0 0 24 24" fill="none" xmlns="http://www.w3.org/2000/svg">
<path d="M0.00612235 15.7569L0.251921 15.7322C0.267035 15.8149 0.296467 15.8762 0.341809 15.9152C0.38715 15.9541 0.448401 15.9732 0.524766 15.9732C0.605904 15.9732 0.66795 15.9557 0.709314 15.9215C0.750678 15.8873 0.77136 15.8468 0.77136 15.8006C0.77136 15.7712 0.76261 15.7457 0.74511 15.7251C0.72761 15.7044 0.697382 15.6861 0.654427 15.671C0.624995 15.6606 0.55738 15.6423 0.452379 15.6169C0.317149 15.5835 0.222489 15.5421 0.167602 15.4936C0.0912372 15.4252 0.0522594 15.3408 0.0522594 15.2422C0.0522594 15.1786 0.0705551 15.1189 0.106351 15.064C0.142147 15.0083 0.194648 14.9662 0.263058 14.9375C0.331468 14.9089 0.413401 14.8938 0.509652 14.8938C0.667154 14.8938 0.784883 14.928 0.86443 14.9972C0.943977 15.0664 0.985341 15.1587 0.989318 15.274L0.735564 15.2836C0.724428 15.2191 0.701359 15.173 0.665563 15.1444C0.629767 15.1157 0.576471 15.1022 0.505675 15.1022C0.434878 15.1022 0.374423 15.1173 0.333059 15.1475C0.306013 15.1666 0.293285 15.1929 0.293285 15.2255C0.293285 15.2549 0.306013 15.2804 0.330672 15.3019C0.362491 15.3289 0.439651 15.3568 0.562948 15.3854C0.686246 15.414 0.776929 15.4443 0.835793 15.4753C0.894658 15.5063 0.940795 15.5493 0.974204 15.6025C1.00761 15.6566 1.02432 15.7235 1.02432 15.803C1.02432 15.8754 1.00443 15.9422 0.964659 16.0051C0.924885 16.0679 0.868407 16.1148 0.795224 16.1451C0.722042 16.1753 0.631358 16.1912 0.52238 16.1912C0.364082 16.1912 0.242376 16.1546 0.157261 16.0806C0.072146 16.0066 0.0212362 15.8993 0.00532688 15.7585L0.00612235 15.7569Z" fill="#1A1A1A"/>
<path d="M1.28857 15.1356V14.9144H1.5296V15.1356H1.28857ZM1.28857 16.1673V15.2597H1.5296V16.1673H1.28857Z" fill="#1A1A1A"/>
<path d="M2.6544 16.1673H2.41338V15.7035C2.41338 15.6057 2.40861 15.542 2.39826 15.5134C2.38792 15.4848 2.37122 15.4625 2.34815 15.4458C2.32508 15.4299 2.29724 15.4219 2.26542 15.4219C2.22406 15.4219 2.18667 15.4331 2.15406 15.4561C2.12144 15.4792 2.09837 15.5094 2.08644 15.5468C2.07451 15.5842 2.06815 15.6542 2.06815 15.756V16.1681H1.82712V15.2604H2.05065V15.3941C2.13019 15.2907 2.22963 15.2382 2.34974 15.2382C2.40304 15.2382 2.45077 15.2477 2.49531 15.2668C2.53906 15.2859 2.57247 15.3106 2.59474 15.34C2.61702 15.3694 2.63293 15.4036 2.64168 15.441C2.65043 15.4784 2.6552 15.5325 2.6552 15.6025L2.6544 16.1673Z" fill="#1A1A1A"/>
<path d="M2.92672 16.2269L3.20036 16.2572C3.20514 16.2906 3.21548 16.3144 3.23218 16.3272C3.25525 16.3455 3.29105 16.3542 3.34037 16.3542C3.40321 16.3542 3.45014 16.3447 3.48196 16.3264C3.50344 16.3136 3.51934 16.2938 3.52969 16.2659C3.53685 16.246 3.54082 16.2094 3.54082 16.1553V16.0225C3.47082 16.1195 3.38014 16.1681 3.27116 16.1681C3.14945 16.1681 3.05241 16.1164 2.98081 16.013C2.92513 15.931 2.89729 15.83 2.89729 15.7083C2.89729 15.5556 2.93388 15.4394 3.00707 15.3591C3.08025 15.2787 3.17173 15.2382 3.28071 15.2382C3.38968 15.2382 3.48594 15.2875 3.55912 15.3861V15.2604H3.78264V16.0758C3.78264 16.1832 3.77389 16.2635 3.75639 16.316C3.73889 16.3693 3.71423 16.4107 3.68162 16.4409C3.6498 16.4711 3.60685 16.495 3.55355 16.5117C3.50025 16.5284 3.43264 16.5372 3.3515 16.5372C3.19718 16.5372 3.0882 16.5109 3.02377 16.4576C2.95934 16.4043 2.92672 16.3375 2.92672 16.2556C2.92672 16.2476 2.92672 16.2381 2.92752 16.2261L2.92672 16.2269ZM3.14309 15.694C3.14309 15.7902 3.16139 15.861 3.19877 15.9064C3.23616 15.9509 3.2815 15.974 3.33559 15.974C3.39366 15.974 3.44298 15.9509 3.48275 15.9048C3.52253 15.8586 3.54321 15.791 3.54321 15.7003C3.54321 15.6097 3.52412 15.5365 3.48514 15.4903C3.44696 15.445 3.39843 15.4219 3.33957 15.4219C3.28071 15.4219 3.23536 15.4442 3.19877 15.4895C3.16139 15.5341 3.14309 15.6017 3.14309 15.694Z" fill="#1A1A1A"/>
<path d="M4.07027 16.1673V14.9144H4.3113V16.1673H4.07027Z" fill="#1A1A1A"/>
<path d="M5.13802 15.8817L5.37666 15.9215C5.34564 16.009 5.29711 16.0758 5.23029 16.1211C5.16348 16.1673 5.08075 16.1895 4.98052 16.1895C4.82222 16.1895 4.70529 16.1378 4.62892 16.0344C4.56926 15.9517 4.53904 15.8467 4.53904 15.7202C4.53904 15.5691 4.57881 15.4514 4.65756 15.3654C4.73631 15.2795 4.83574 15.2374 4.95665 15.2374C5.09188 15.2374 5.19927 15.2819 5.27723 15.3718C5.35518 15.4617 5.39257 15.5993 5.38939 15.7839H4.78563C4.78722 15.8555 4.80711 15.9111 4.84449 15.9509C4.88188 15.9907 4.92881 16.0106 4.9845 16.0106C5.02268 16.0106 5.0545 16.0002 5.07995 15.9803C5.1062 15.9597 5.1245 15.927 5.13802 15.8817ZM5.15075 15.6383C5.14916 15.5675 5.13086 15.5142 5.09666 15.4768C5.06245 15.4402 5.02029 15.4219 4.97097 15.4219C4.91847 15.4219 4.87472 15.441 4.84052 15.48C4.80631 15.519 4.78881 15.5715 4.78961 15.6383H5.15075Z" fill="#1A1A1A"/>
<path d="M6.17812 16.1673V14.9144H7.10563V15.126H6.43187V15.4044H7.0587V15.616H6.43187V15.9565H7.13029V16.1681L6.17812 16.1673Z" fill="#1A1A1A"/>
<path d="M7.99187 16.1672V16.0312C7.95846 16.0797 7.91551 16.1179 7.86142 16.1466C7.80732 16.1752 7.75005 16.1895 7.69039 16.1895C7.63073 16.1895 7.57425 16.176 7.52573 16.1489C7.47721 16.1219 7.44221 16.0845 7.41993 16.036C7.39845 15.9875 7.38732 15.9206 7.38732 15.8347V15.2596H7.62834V15.6772C7.62834 15.8053 7.63312 15.8833 7.64187 15.9119C7.65062 15.9405 7.66653 15.9636 7.69039 15.9803C7.71346 15.997 7.74369 16.0058 7.77948 16.0058C7.82085 16.0058 7.85744 15.9946 7.89005 15.9724C7.92267 15.9501 7.94494 15.9222 7.95687 15.8888C7.9688 15.8554 7.97517 15.7735 7.97517 15.6438V15.2604H8.21619V16.168H7.99267L7.99187 16.1672Z" fill="#1A1A1A"/>
<path d="M8.74539 16.1673H8.50437V15.2596H8.72789V15.3885C8.76607 15.3273 8.80028 15.2875 8.8313 15.2668C8.86153 15.2469 8.89653 15.2366 8.93551 15.2366C8.9904 15.2366 9.0429 15.2517 9.09381 15.2819L9.02062 15.4919C8.98005 15.4657 8.94187 15.4529 8.90767 15.4529C8.87346 15.4529 8.84562 15.4625 8.82176 15.4808C8.79869 15.4991 8.7796 15.5325 8.76607 15.581C8.75255 15.6295 8.74619 15.7314 8.74619 15.8857V16.1665L8.74539 16.1673Z" fill="#1A1A1A"/>
<path d="M9.191 15.7011C9.191 15.6208 9.21089 15.5436 9.24986 15.4689C9.28884 15.3941 9.34452 15.3368 9.41691 15.297C9.4893 15.2573 9.56964 15.2382 9.65873 15.2382C9.79635 15.2382 9.90851 15.2827 9.99681 15.3726C10.0843 15.4617 10.1289 15.5754 10.1289 15.7115C10.1289 15.8475 10.0843 15.9636 9.99601 16.0543C9.90771 16.145 9.79555 16.1903 9.66112 16.1903C9.5776 16.1903 9.49885 16.1713 9.42328 16.1339C9.34771 16.0965 9.29043 16.0408 9.25066 15.9676C9.21168 15.8944 9.191 15.8061 9.191 15.7011ZM9.4368 15.7139C9.4368 15.8045 9.45828 15.8737 9.50123 15.9215C9.54419 15.9692 9.59669 15.9939 9.65953 15.9939C9.72237 15.9939 9.77487 15.97 9.81783 15.9215C9.86078 15.8737 9.88146 15.8037 9.88146 15.7123C9.88146 15.6208 9.85999 15.5548 9.81783 15.5062C9.77487 15.4585 9.72237 15.4339 9.65953 15.4339C9.59669 15.4339 9.54339 15.4577 9.50123 15.5062C9.45828 15.554 9.4368 15.6232 9.4368 15.7139Z" fill="#1A1A1A"/>
<path d="M10.9129 16.1673V14.9144H11.3186C11.4721 14.9144 11.5724 14.9208 11.6193 14.9335C11.6909 14.9526 11.7513 14.9932 11.7999 15.056C11.8484 15.1189 11.8722 15.2 11.8722 15.3002C11.8722 15.3774 11.8579 15.4418 11.8301 15.4943C11.8022 15.5468 11.7664 15.5882 11.7235 15.6176C11.6805 15.6479 11.6368 15.6669 11.5922 15.6773C11.5318 15.6892 11.4443 15.6956 11.3305 15.6956H11.1659V16.1681H10.9121L10.9129 16.1673ZM11.1667 15.126V15.484H11.3051C11.4045 15.484 11.4713 15.4776 11.5047 15.4641C11.5381 15.4506 11.5644 15.4299 11.5835 15.4021C11.6026 15.3742 11.6121 15.3416 11.6121 15.3042C11.6121 15.2581 11.5986 15.2207 11.5724 15.1905C11.5453 15.161 11.5119 15.1419 11.4713 15.1348C11.4411 15.1292 11.3806 15.126 11.29 15.126H11.1667Z" fill="#1A1A1A"/>
<path d="M12.3064 15.5357L12.09 15.4959C12.1147 15.4084 12.1569 15.3432 12.2165 15.301C12.2762 15.2589 12.3653 15.2374 12.483 15.2374C12.5904 15.2374 12.6699 15.2501 12.7224 15.2756C12.7749 15.301 12.8115 15.3336 12.833 15.3726C12.8545 15.4116 12.8648 15.4832 12.8648 15.5882L12.8624 15.869C12.8624 15.9485 12.8664 16.0082 12.8736 16.0456C12.8815 16.0837 12.8958 16.1243 12.9165 16.1673H12.6779C12.6715 16.1514 12.6636 16.1283 12.6548 16.0973C12.6508 16.083 12.6477 16.0742 12.6461 16.0694C12.6047 16.1092 12.561 16.1394 12.5148 16.1593C12.4679 16.1792 12.4186 16.1895 12.3653 16.1895C12.2722 16.1895 12.1982 16.1641 12.1441 16.1132C12.09 16.0623 12.0638 15.9978 12.0638 15.9207C12.0638 15.8698 12.0757 15.8236 12.1004 15.7831C12.125 15.7425 12.1592 15.7123 12.2038 15.6908C12.2483 15.6693 12.312 15.651 12.3947 15.6343C12.5069 15.6136 12.5848 15.5937 12.6278 15.5754V15.5516C12.6278 15.5046 12.6166 15.4712 12.5936 15.4514C12.5705 15.4315 12.5275 15.4219 12.4639 15.4219C12.421 15.4219 12.3875 15.4307 12.3637 15.4474C12.3398 15.4641 12.3199 15.4943 12.3056 15.5365L12.3064 15.5357ZM12.6294 15.7322C12.5983 15.7425 12.5498 15.7544 12.4838 15.7687C12.4178 15.7831 12.374 15.7974 12.3533 15.8109C12.3223 15.8332 12.3064 15.8618 12.3064 15.896C12.3064 15.9302 12.3191 15.9589 12.3438 15.9835C12.3685 16.0082 12.4003 16.0201 12.4392 16.0201C12.4822 16.0201 12.5236 16.0058 12.5625 15.9772C12.5912 15.9557 12.6103 15.9286 12.6198 15.8976C12.6262 15.8769 12.6294 15.8379 12.6294 15.7799V15.7322Z" fill="#1A1A1A"/>
<path d="M13.0391 15.2596H13.2953L13.5124 15.9039L13.7248 15.2596H13.973L13.5952 16.2921C13.5737 16.3454 13.5538 16.386 13.5347 16.4138C13.5156 16.4417 13.4934 16.4647 13.4687 16.4822C13.444 16.4997 13.413 16.5133 13.3772 16.5228C13.3406 16.5324 13.3001 16.5371 13.2547 16.5371C13.2094 16.5371 13.1632 16.5324 13.1187 16.5228L13.0964 16.3343C13.1338 16.3414 13.168 16.3454 13.199 16.3454C13.2555 16.3454 13.2969 16.3287 13.3239 16.2961C13.351 16.2627 13.3716 16.2205 13.386 16.1696L13.0391 15.2596Z" fill="#1A1A1A"/>
<path d="M14.1626 15.2596H14.3837V15.3837C14.4633 15.2859 14.5579 15.2374 14.6677 15.2374C14.7258 15.2374 14.7767 15.2493 14.8196 15.2732C14.8626 15.297 14.8976 15.3336 14.9254 15.3821C14.9652 15.3336 15.009 15.297 15.0543 15.2732C15.1004 15.2493 15.1498 15.2374 15.2023 15.2374C15.2691 15.2374 15.3256 15.2509 15.3717 15.2779C15.4178 15.305 15.4528 15.3448 15.4751 15.3973C15.4918 15.4362 15.4998 15.4991 15.4998 15.5858V16.1673H15.2587V15.6478C15.2587 15.5579 15.2508 15.4991 15.2341 15.4728C15.2118 15.4386 15.1776 15.4211 15.1315 15.4211C15.098 15.4211 15.0662 15.4315 15.0368 15.4521C15.0074 15.4728 14.9859 15.5031 14.9732 15.5428C14.9604 15.5826 14.9533 15.6454 14.9533 15.7306V16.1673H14.7122V15.6693C14.7122 15.581 14.7083 15.5237 14.6995 15.4983C14.6908 15.4728 14.678 15.4537 14.6597 15.441C14.6414 15.4283 14.6176 15.4219 14.5866 15.4219C14.55 15.4219 14.5166 15.4323 14.4863 15.4521C14.4569 15.472 14.4354 15.5007 14.4227 15.5389C14.41 15.5762 14.4036 15.6391 14.4036 15.7266V16.1681H14.1626V15.2596Z" fill="#1A1A1A"/>
<path d="M16.3175 15.8817L16.5562 15.9215C16.5252 16.009 16.4766 16.0758 16.4098 16.1211C16.343 16.1673 16.2603 16.1895 16.16 16.1895C16.0017 16.1895 15.8848 16.1378 15.8084 16.0344C15.7488 15.9517 15.7186 15.8467 15.7186 15.7202C15.7186 15.5691 15.7583 15.4514 15.8371 15.3654C15.9158 15.2795 16.0153 15.2374 16.1362 15.2374C16.2714 15.2374 16.3788 15.2819 16.4568 15.3718C16.5347 15.4617 16.5729 15.5993 16.5689 15.7839H15.9652C15.9667 15.8555 15.9866 15.9111 16.024 15.9509C16.0614 15.9907 16.1075 16.0106 16.164 16.0106C16.2022 16.0106 16.234 16.0002 16.2595 15.9803C16.2857 15.9597 16.304 15.927 16.3175 15.8817ZM16.3303 15.6383C16.3287 15.5675 16.3104 15.5142 16.2762 15.4768C16.242 15.4402 16.1998 15.4219 16.1505 15.4219C16.098 15.4219 16.0542 15.441 16.02 15.48C15.9858 15.519 15.9691 15.5715 15.9691 15.6383H16.3303Z" fill="#1A1A1A"/>
<path d="M17.6416 16.1673H17.4006V15.7035C17.4006 15.6057 17.3958 15.542 17.3854 15.5134C17.3751 15.4848 17.3584 15.4625 17.3353 15.4458C17.3123 15.4299 17.2844 15.4219 17.2526 15.4219C17.2112 15.4219 17.1739 15.4331 17.1412 15.4561C17.1086 15.4792 17.0856 15.5094 17.0736 15.5468C17.0617 15.5842 17.0553 15.6542 17.0553 15.756V16.1681H16.8143V15.2604H17.0378V15.3941C17.1174 15.2907 17.2168 15.2382 17.3369 15.2382C17.3902 15.2382 17.4387 15.2477 17.4825 15.2668C17.5262 15.2859 17.5597 15.3106 17.5819 15.34C17.6042 15.3694 17.6201 15.4036 17.6289 15.441C17.6376 15.4784 17.6424 15.5325 17.6424 15.6025L17.6416 16.1673Z" fill="#1A1A1A"/>
<path d="M18.3531 15.2596V15.4513H18.1892V15.818C18.1892 15.892 18.1908 15.9358 18.194 15.9477C18.1972 15.9596 18.2043 15.97 18.2147 15.9779C18.2258 15.9859 18.2385 15.9899 18.2544 15.9899C18.2767 15.9899 18.3077 15.9819 18.3491 15.9668L18.3706 16.1529C18.3149 16.1768 18.252 16.1887 18.182 16.1887C18.1391 16.1887 18.1001 16.1816 18.0659 16.1673C18.0317 16.1529 18.0062 16.1338 17.9895 16.1108C17.9736 16.0877 17.9625 16.0567 17.9561 16.0169C17.9514 15.9891 17.9482 15.9326 17.9482 15.8475V15.4505H17.8392V15.2588H17.9482V15.0775L18.1892 14.9359V15.2588L18.3531 15.2596Z" fill="#1A1A1A"/>
<path d="M18.488 15.9111L18.729 15.8737C18.7394 15.9199 18.76 15.9557 18.7911 15.9795C18.8221 16.0034 18.8658 16.0153 18.9223 16.0153C18.9844 16.0153 19.0313 16.0042 19.0623 15.9811C19.083 15.9652 19.0941 15.9438 19.0941 15.9167C19.0941 15.8984 19.0886 15.8833 19.0766 15.8714C19.0647 15.8602 19.0377 15.8491 18.9955 15.8395C18.8006 15.7966 18.6773 15.7576 18.6248 15.7218C18.5524 15.6725 18.5166 15.6041 18.5166 15.5174C18.5166 15.4386 18.5477 15.3726 18.6105 15.3185C18.6733 15.2652 18.7696 15.2382 18.9008 15.2382C19.0321 15.2382 19.1188 15.2581 19.1793 15.2986C19.2397 15.3392 19.2819 15.3981 19.3049 15.4768L19.079 15.519C19.0695 15.484 19.0504 15.4569 19.0233 15.4378C18.9963 15.4187 18.9565 15.41 18.9064 15.41C18.8428 15.41 18.7966 15.4187 18.7688 15.437C18.7505 15.4498 18.741 15.4657 18.741 15.4864C18.741 15.5039 18.7489 15.5182 18.7648 15.5301C18.7863 15.546 18.8619 15.5691 18.9899 15.5977C19.1188 15.6272 19.2079 15.663 19.2588 15.7051C19.3089 15.7481 19.3344 15.8077 19.3344 15.8849C19.3344 15.9684 19.2994 16.0408 19.2302 16.1005C19.161 16.1609 19.0576 16.1903 18.9215 16.1903C18.7982 16.1903 18.7004 16.1657 18.628 16.1156C18.5556 16.0655 18.5087 15.9978 18.4864 15.9119L18.488 15.9111Z" fill="#1A1A1A"/>
<path d="M21.2686 16.1673H20.9957L20.8876 15.8841H20.3824L20.279 16.1673H20.011L20.4962 14.9144H20.7627L21.2686 16.1673ZM20.804 15.6725L20.629 15.208L20.4596 15.6725H20.804Z" fill="#1A1A1A"/>
<path d="M21.6828 16.1673H21.4418V15.2596H21.6653V15.3885C21.7035 15.3273 21.7377 15.2875 21.7687 15.2668C21.7989 15.2469 21.8339 15.2366 21.8729 15.2366C21.9278 15.2366 21.9803 15.2517 22.0312 15.2819L21.958 15.4919C21.9175 15.4657 21.8793 15.4529 21.8451 15.4529C21.8109 15.4529 21.7822 15.4625 21.7592 15.4808C21.7361 15.4991 21.717 15.5325 21.7035 15.581C21.6899 15.6295 21.6836 15.7314 21.6836 15.8857V16.1665L21.6828 16.1673Z" fill="#1A1A1A"/>
<path d="M22.7146 15.8817L22.9532 15.9215C22.9222 16.009 22.8737 16.0758 22.8069 16.1211C22.7401 16.1673 22.6573 16.1895 22.5571 16.1895C22.3988 16.1895 22.2819 16.1378 22.2055 16.0344C22.1458 15.9517 22.1156 15.8467 22.1156 15.7202C22.1156 15.5691 22.1554 15.4514 22.2341 15.3654C22.3129 15.2795 22.4123 15.2374 22.5332 15.2374C22.6685 15.2374 22.7751 15.2819 22.8538 15.3718C22.9318 15.4617 22.9691 15.5993 22.966 15.7839H22.3622C22.3638 15.8555 22.3837 15.9111 22.4211 15.9509C22.4585 15.9907 22.5054 16.0106 22.5611 16.0106C22.5993 16.0106 22.6311 16.0002 22.6565 15.9803C22.682 15.9597 22.7011 15.927 22.7146 15.8817ZM22.7273 15.6383C22.7257 15.5675 22.7074 15.5142 22.6732 15.4768C22.639 15.4402 22.5969 15.4219 22.5476 15.4219C22.4951 15.4219 22.4513 15.441 22.4171 15.48C22.3829 15.519 22.3654 15.5715 22.3662 15.6383H22.7273Z" fill="#1A1A1A"/>
<path d="M23.39 15.5357L23.1737 15.4959C23.1983 15.4084 23.2405 15.3432 23.3002 15.301C23.3598 15.2589 23.4489 15.2374 23.5666 15.2374C23.674 15.2374 23.7536 15.2501 23.8061 15.2756C23.8586 15.301 23.8952 15.3336 23.9166 15.3726C23.9381 15.4116 23.9485 15.4832 23.9485 15.5882L23.9461 15.869C23.9461 15.9485 23.9501 16.0082 23.9572 16.0456C23.9652 16.0837 23.9795 16.1243 24.0002 16.1673H23.7615C23.7552 16.1514 23.7472 16.1283 23.7385 16.0973C23.7345 16.083 23.7313 16.0742 23.7297 16.0694C23.6883 16.1092 23.6446 16.1394 23.5985 16.1593C23.5515 16.1792 23.5022 16.1895 23.4489 16.1895C23.3558 16.1895 23.2819 16.1641 23.2278 16.1132C23.1737 16.0623 23.1474 15.9978 23.1474 15.9207C23.1474 15.8698 23.1594 15.8236 23.184 15.7831C23.2087 15.7425 23.2429 15.7123 23.2874 15.6908C23.332 15.6693 23.3956 15.651 23.4783 15.6343C23.5905 15.6136 23.6685 15.5937 23.7114 15.5754V15.5516C23.7114 15.5046 23.7003 15.4712 23.6772 15.4514C23.6541 15.4315 23.6112 15.4219 23.5475 15.4219C23.5046 15.4219 23.4712 15.4307 23.4473 15.4474C23.4235 15.4641 23.4036 15.4943 23.3893 15.5365L23.39 15.5357ZM23.713 15.7322C23.682 15.7425 23.6335 15.7544 23.5674 15.7687C23.5006 15.7831 23.4577 15.7974 23.437 15.8109C23.406 15.8332 23.39 15.8618 23.39 15.896C23.39 15.9302 23.4028 15.9589 23.4274 15.9835C23.4521 16.0082 23.4839 16.0201 23.5229 16.0201C23.5658 16.0201 23.6072 16.0058 23.6462 15.9772C23.6748 15.9557 23.6939 15.9286 23.7035 15.8976C23.7098 15.8769 23.713 15.8379 23.713 15.7799V15.7322Z" fill="#1A1A1A"/>
<path d="M5.33042 9.9913H3.68857C3.68857 9.72163 3.65676 9.54106 3.59391 9.44879C3.49607 9.31276 3.22641 9.24435 2.78493 9.24435C2.34344 9.24435 2.07219 9.28333 1.93378 9.36208C1.79537 9.44083 1.72616 9.61186 1.72616 9.87595C1.72616 10.1146 1.78741 10.2721 1.91071 10.3469C1.99901 10.4002 2.11514 10.432 2.26071 10.4415L2.59163 10.4646C3.30118 10.5115 3.74426 10.5449 3.92085 10.564C4.48165 10.6205 4.88893 10.7701 5.1411 11.0119C5.33996 11.2004 5.45849 11.447 5.49587 11.7517C5.51815 11.9338 5.52928 12.1399 5.52928 12.3689C5.52928 12.8971 5.47917 13.2837 5.37814 13.5287C5.19519 13.9782 4.78473 14.2622 4.14597 14.3815C3.8779 14.4316 3.46903 14.457 2.91777 14.457C1.99821 14.457 1.35786 14.4022 0.995923 14.2924C0.552053 14.1579 0.259322 13.8843 0.117729 13.4738C0.0389778 13.2448 0 12.8637 0 12.3308H1.64184C1.64184 12.3904 1.64184 12.4358 1.64184 12.4668C1.64184 12.7516 1.72377 12.9345 1.88684 13.0165C1.9998 13.0729 2.13662 13.1024 2.29731 13.1055H2.90106C3.20891 13.1055 3.40539 13.0896 3.4905 13.0578C3.64164 12.9982 3.74028 12.9027 3.78801 12.7707C3.81346 12.6895 3.82539 12.5837 3.82539 12.4549C3.82539 12.1661 3.72039 11.9903 3.50959 11.9275C3.43084 11.9028 3.06493 11.8678 2.41185 11.8241C1.88684 11.7867 1.52252 11.7509 1.31888 11.7159C0.781147 11.6156 0.423188 11.4088 0.244208 11.0946C0.0867058 10.8273 0.00795466 10.424 0.00795466 9.88391C0.00795466 9.47265 0.0501143 9.14333 0.135229 8.89515C0.220344 8.64696 0.357164 8.45923 0.54569 8.33036C0.822512 8.13229 1.17649 8.01695 1.60764 7.98195C1.96639 7.95093 2.36412 7.93502 2.80163 7.93502C3.4905 7.93502 3.9821 7.97479 4.27404 8.05354C4.98837 8.24525 5.34553 8.78298 5.34553 9.66675C5.34553 9.73913 5.33996 9.84732 5.32962 9.99209L5.33042 9.9913Z" fill="#1A1A1A"/>
<path d="M12.5501 14.457V7.89999H15.8378C16.2888 7.89999 16.6325 7.93659 16.8695 8.01056C17.4104 8.18 17.7732 8.52682 17.9593 9.05103C18.0555 9.32626 18.1033 9.7407 18.1033 10.2936C18.1033 10.9586 18.05 11.4366 17.945 11.7278C17.7342 12.3029 17.2999 12.6346 16.6444 12.7205C16.5672 12.7332 16.2395 12.7452 15.6604 12.7539L15.3677 12.7635H14.3153V14.4562H12.5509L12.5501 14.457ZM14.3145 11.2433H15.4146C15.763 11.2306 15.9754 11.2036 16.0518 11.1622C16.156 11.1049 16.226 10.9904 16.261 10.8178C16.2833 10.7032 16.2944 10.533 16.2944 10.3063C16.2944 10.0287 16.2721 9.82343 16.2276 9.689C16.1639 9.50127 16.012 9.38672 15.771 9.34456C15.7232 9.3382 15.6095 9.33501 15.4289 9.33501H14.3137L14.3145 11.2433Z" fill="#1A1A1A"/>
<path d="M21.8696 13.3235H19.5102L19.1928 14.457H17.3672L19.3368 7.89999H21.9984L23.9927 14.457H22.2053L21.8696 13.3235ZM21.5188 12.046L20.6923 9.20376L19.8897 12.046H21.5188Z" fill="#1A1A1A"/>
<path d="M10.1146 8.82273C10.8424 8.82273 11.4923 9.15842 11.9187 9.68343L12.2989 8.86807C11.7039 8.30568 10.8941 7.95886 10.0016 7.95886C8.61114 7.95886 7.42192 8.79887 6.9335 9.98729H6.19133L5.75303 10.9259H6.70759C6.70043 11.0126 6.69566 11.1002 6.69566 11.1892C6.69566 11.2966 6.70123 11.4032 6.71157 11.5082H6.2319L5.7944 12.4477H6.95578C7.45771 13.6067 8.63262 14.4196 10.0008 14.4196C10.6905 14.4196 11.3308 14.2128 11.8606 13.8596V12.7086C11.4335 13.1946 10.8098 13.5017 10.1138 13.5017C9.30001 13.5017 8.58489 13.0825 8.16807 12.4477H10.5998L11.0381 11.5082H7.8109C7.7942 11.3953 7.78545 11.2799 7.78545 11.1622C7.78545 11.0827 7.78942 11.0039 7.79738 10.9259H11.3102L11.7477 9.98729H8.10045C8.50375 9.29126 9.25467 8.82273 10.1146 8.82273Z" fill="#1A1A1A"/>
</svg>
