<svg width="24" height="24" viewBox="0 0 24 24" fill="none" xmlns="http://www.w3.org/2000/svg">
<path d="M1.19991 19.4852C0.366426 19.4852 -0.153863 18.8043 0.0408444 17.9698L2.82577 6.018C3.02048 5.18058 3.85571 4.50027 4.69138 4.50027L22.7555 4.5C23.5913 4.5 24.1104 5.18031 23.9141 6.01773L21.1308 17.9695C20.9343 18.804 20.0981 19.4849 19.2624 19.4849L1.19991 19.4852ZM5.39839 8.3165C5.37609 8.42245 4.96001 10.338 4.96001 10.338C4.87067 10.7253 4.80567 11.0013 4.58487 11.1795C4.45954 11.2832 4.31321 11.3332 4.14357 11.3332C3.8709 11.3332 3.71204 11.1978 3.68537 10.941L3.68027 10.8528C3.68027 10.8528 3.76334 10.3341 3.76334 10.3312C3.76334 10.3312 4.19881 8.58699 4.27678 8.35643C4.28086 8.34332 4.28203 8.33647 4.28305 8.3302C3.43543 8.33763 3.28517 8.3302 3.27482 8.3165C3.26914 8.3353 3.24815 8.44344 3.24815 8.44344L2.8035 10.4093L2.76532 10.576L2.69143 11.1214C2.69143 11.2832 2.7232 11.4152 2.78645 11.5268C2.98903 11.8808 3.56688 11.9339 3.89378 11.9339C4.31496 11.9339 4.71006 11.8444 4.97706 11.681C5.43999 11.4075 5.56149 10.9801 5.66954 10.6001L5.6699 10.5988L5.72004 10.4036C5.72004 10.4036 6.16862 8.59209 6.24484 8.35643C6.24776 8.34332 6.24892 8.33647 6.25286 8.3302C5.63798 8.33647 5.45639 8.3302 5.39839 8.3165ZM7.29587 9.90483C7.2463 9.93028 7.1988 9.95876 7.15025 9.98787C7.13571 9.99659 7.12107 10.0054 7.10626 10.0141L7.16427 9.8047L7.1325 9.76943C6.78067 9.84067 6.68408 9.85424 6.38908 9.89569C6.36844 9.89859 6.34682 9.90162 6.32408 9.90483L6.29493 9.92421C6.25456 10.259 6.21871 10.5107 6.06904 11.1687C6.01205 11.4112 5.95288 11.656 5.89357 11.898L5.9096 11.9287C6.26593 11.9099 6.37407 11.9099 6.68376 11.915L6.70883 11.8878C6.71943 11.8335 6.72754 11.7904 6.73544 11.7484C6.75688 11.6346 6.77675 11.529 6.84043 11.2308C6.84912 11.1897 6.85982 11.1382 6.87167 11.0811C6.91568 10.8691 6.97573 10.5798 7.00891 10.4605C7.0863 10.4247 7.16266 10.3894 7.23553 10.3894C7.40513 10.3894 7.38884 10.534 7.38175 10.5969L7.38127 10.6012C7.37384 10.7025 7.31059 11.0333 7.24574 11.3173L7.20245 11.5007C7.1868 11.5709 7.17036 11.6401 7.15395 11.7092C7.13874 11.7733 7.12355 11.8373 7.10903 11.9019L7.12215 11.9287C7.47338 11.9099 7.5805 11.9099 7.88043 11.915L7.9157 11.8878C7.96991 11.573 7.9858 11.4887 8.08199 11.0304L8.13037 10.8198C8.22437 10.4076 8.27159 10.1986 8.20047 10.0284C8.12527 9.83764 7.94485 9.79159 7.77914 9.79159C7.671 9.79159 7.47338 9.81782 7.29587 9.90483ZM9.06007 10.2983C8.94275 10.3171 8.82835 10.3342 8.64792 10.3592L8.63364 10.3722L8.62052 10.3825C8.61556 10.418 8.611 10.4522 8.60651 10.4858C8.59398 10.5796 8.58203 10.6691 8.56368 10.7696C8.54255 10.9108 8.51005 11.0713 8.45715 11.3019C8.4162 11.4784 8.39506 11.5399 8.37175 11.6019C8.36894 11.6096 8.36609 11.6173 8.36318 11.6251C8.3425 11.6807 8.31825 11.7458 8.27789 11.8979L8.28867 11.914L8.29771 11.9287C8.31222 11.928 8.3263 11.9273 8.33998 11.9267C8.48534 11.9197 8.58641 11.9149 8.69004 11.914C8.76675 11.9112 8.84532 11.9122 8.94448 11.9134C8.99171 11.914 9.0436 11.9147 9.10219 11.915L9.11808 11.902L9.13513 11.8877C9.14093 11.8531 9.14564 11.8241 9.14964 11.799C9.15273 11.7796 9.15547 11.7621 9.15788 11.7468C9.16635 11.6926 9.17162 11.659 9.18133 11.6127C9.19076 11.5641 9.20426 11.5043 9.22775 11.4003C9.23276 11.3782 9.23834 11.3534 9.24431 11.3269C9.25746 11.2686 9.27309 11.1989 9.2918 11.1146C9.30875 11.0387 9.32675 10.9629 9.34485 10.8866C9.36067 10.82 9.37656 10.7531 9.39192 10.6854C9.41094 10.6051 9.43045 10.5255 9.44989 10.4462C9.46545 10.3827 9.48096 10.3194 9.49612 10.2562L9.49102 10.239L9.48417 10.2231C9.46271 10.2272 9.44213 10.2312 9.42235 10.235C9.27011 10.2643 9.1648 10.2846 9.06007 10.2983ZM8.82037 9.71124C8.62057 9.84678 8.59783 10.0392 8.76689 10.1406C8.93361 10.2379 9.23252 10.2089 9.43117 10.0695C9.63054 9.93102 9.65546 9.74039 9.48815 9.64129C9.31851 9.54116 9.02077 9.57293 8.82037 9.71124ZM11.4739 11.5848C11.6777 11.3571 11.7711 11.0184 11.8034 10.879C11.9088 10.4167 11.8268 10.2009 11.7237 10.0694C11.5672 9.869 11.2906 9.80473 11.0036 9.80473C10.8311 9.80473 10.4201 9.82178 10.099 10.1178C9.86846 10.3313 9.76192 10.621 9.69765 10.8988C9.6328 11.1818 9.55818 11.6913 10.0267 11.8809C10.1713 11.943 10.3797 11.9601 10.5141 11.9601C10.8573 11.9601 11.2091 11.8655 11.4739 11.5848ZM12.6882 11.8878C12.6967 11.8427 12.7036 11.8054 12.7102 11.7699C12.733 11.647 12.7514 11.5476 12.8168 11.2308C12.8276 11.181 12.8414 11.1158 12.8567 11.0438C12.9007 10.8364 12.9566 10.573 12.987 10.4606L12.9897 10.4593C13.0663 10.4237 13.1405 10.3893 13.2148 10.3893C13.3837 10.3893 13.367 10.5346 13.3598 10.5972L13.3593 10.6011C13.3531 10.7025 13.2898 11.0332 13.2238 11.3172L13.1829 11.5006C13.1688 11.5612 13.1543 11.6211 13.1397 11.6807C13.1218 11.7544 13.1039 11.8277 13.0873 11.9019L13.1004 11.9287C13.4528 11.9099 13.5558 11.9099 13.8575 11.915L13.8939 11.8878C13.9468 11.5729 13.9611 11.4886 14.0602 11.0304L14.1074 10.8197C14.2019 10.4075 14.2497 10.1987 14.1797 10.0285C14.1023 9.83768 13.9207 9.79163 13.7574 9.79163C13.6491 9.79163 13.4504 9.81772 13.2739 9.90487C13.2108 9.93795 13.1476 9.97599 13.0855 10.0142L13.1396 9.80475L13.1106 9.76933C12.7622 9.84002 12.6627 9.85402 12.3743 9.89455C12.3512 9.8978 12.3268 9.90123 12.301 9.90487L12.2743 9.92425C12.2322 10.259 12.198 10.5106 12.0483 11.1687C11.9913 11.4112 11.9321 11.6561 11.873 11.898L11.8888 11.9287C12.2458 11.9099 12.3523 11.9099 12.6614 11.915L12.6882 11.8878ZM15.4055 11.1796C15.4055 11.1796 15.5175 10.7093 15.5244 10.6922C15.5244 10.6922 15.5596 10.6433 15.5949 10.6239H15.6468C16.1363 10.6239 16.6891 10.6239 17.1224 10.3051C17.4172 10.0865 17.6188 9.76372 17.7087 9.37139C17.732 9.2752 17.7492 9.1608 17.7492 9.04639C17.7492 8.89614 17.7191 8.74748 17.6319 8.63133C17.411 8.32221 16.971 8.31653 16.4631 8.3142L16.2127 8.31653C15.5626 8.32455 15.3018 8.32221 15.1947 8.3091C15.1857 8.35646 15.1686 8.4407 15.1686 8.4407L14.9357 9.52179L14.3522 11.9247C14.9199 11.9179 15.1526 11.9179 15.2505 11.9287C15.2727 11.8205 15.4055 11.1796 15.4055 11.1796ZM17.5493 11.9099C17.698 11.9732 17.8312 11.992 17.9666 11.9851C18.1096 11.9774 18.242 11.9057 18.3647 11.8025L18.3315 11.9299L18.3526 11.9571C18.688 11.943 18.7921 11.943 19.1554 11.9458L19.1883 11.9207L19.1945 11.8846C19.2454 11.585 19.2967 11.2829 19.4292 10.7093C19.4964 10.4235 19.5634 10.1405 19.6324 9.85587L19.6216 9.82454C19.2465 9.89406 19.1462 9.90892 18.7853 9.96008L18.758 9.98237L18.747 10.067C18.6909 9.9764 18.6096 9.89901 18.4841 9.85077C18.3236 9.78767 17.9468 9.86899 17.6228 10.164C17.3951 10.3746 17.2858 10.6631 17.2238 10.9399C17.1583 11.2188 17.0831 11.7283 17.5493 11.9099ZM22.0969 9.78867C21.7257 9.86387 21.6585 9.87582 21.3175 9.92188L21.2924 9.94694C21.2924 9.94694 21.2915 9.95078 21.291 9.95308C21.2903 9.95622 21.2895 9.95969 21.2885 9.96298L21.2873 9.95729C21.149 10.2764 21.0883 10.3841 21.0282 10.4907C20.978 10.5797 20.9283 10.6679 20.8342 10.8778C20.8336 10.867 20.8333 10.8583 20.833 10.8494C20.8328 10.8409 20.8325 10.8322 20.8319 10.8214L20.7802 9.82175L20.7477 9.78867C20.6416 9.80918 20.5638 9.82499 20.4994 9.83806C20.3278 9.87293 20.2517 9.88838 19.9905 9.92188L19.9626 9.94694C19.96 9.95469 19.9591 9.96292 19.9582 9.97165C19.9576 9.97639 19.9571 9.98127 19.9563 9.98629L19.9586 9.99139C19.994 10.1723 19.9948 10.1787 20.0156 10.3508C20.0212 10.397 20.0282 10.4551 20.0378 10.5316C20.0485 10.6225 20.061 10.7136 20.0736 10.8044C20.0855 10.8912 20.0975 10.9777 20.1077 11.0635C20.1134 11.1106 20.1187 11.1539 20.1237 11.1952C20.1501 11.4113 20.1699 11.5736 20.2062 11.9498C20.1049 12.117 20.0359 12.2408 19.9729 12.3538C19.885 12.5114 19.8088 12.6482 19.6728 12.8527L19.6744 12.8562L19.51 13.1162C19.4912 13.1436 19.4742 13.1624 19.4503 13.1704C19.4241 13.1834 19.3899 13.1857 19.3426 13.1857H19.2515L19.1161 13.636L19.5806 13.6441C19.8533 13.6429 20.0246 13.5154 20.1169 13.344L20.409 12.8435H20.4043L20.435 12.8082C20.6315 12.3853 22.1259 9.82175 22.1259 9.82175L22.0969 9.78867ZM17.0267 15.7362L17.756 13.3241H17.9979L18.0747 13.0756L18.0821 13.3519C18.0731 13.5227 18.2075 13.6742 18.5605 13.6491H18.9687L19.1092 13.1846H18.9556C18.8672 13.1846 18.8263 13.1623 18.8314 13.1145L18.824 12.8334H18.068V12.8348C17.8236 12.8399 17.0937 12.8583 16.946 12.8977C16.7671 12.9437 16.5787 13.0792 16.5787 13.0792L16.6527 12.8305H15.9456L15.7983 13.3241L15.0592 15.7731H14.9158L14.7752 16.2342H16.1836L16.1364 16.388H16.8304L16.8764 16.2342H17.0711L17.2237 15.7362H17.0267ZM18.5114 14.2457L18.3947 14.6238H17.5716L17.448 15.0371H18.1682L17.6229 15.805C17.5847 15.8614 17.5504 15.8814 17.5124 15.8973C17.4742 15.9166 17.4241 15.9394 17.3661 15.9394H17.1663L17.029 16.392H17.5516C17.8233 16.392 17.9837 16.2685 18.1022 16.1062L18.4762 15.5944L18.5565 16.1141C18.5735 16.2115 18.6435 16.2685 18.6908 16.2906C18.7043 16.2973 18.7178 16.3053 18.7318 16.3136C18.7724 16.3374 18.8168 16.3636 18.8736 16.3686L18.9011 16.3698C18.9689 16.3727 19.0192 16.3748 19.054 16.3748H19.3108L19.465 15.8683H19.3637C19.3056 15.8683 19.2054 15.8585 19.1884 15.8403C19.1758 15.8239 19.1725 15.801 19.1679 15.7692C19.1663 15.758 19.1646 15.7457 19.1622 15.7321L19.0807 15.2113H18.7471L18.8934 15.0371H19.7149L19.8413 14.6238H19.0807L19.1992 14.2457H19.9575L20.0981 13.7795H17.8374L17.6991 14.2457H18.5114ZM11.0275 15.2164H11.8068L11.9492 14.7473H11.1692L11.2883 14.359H12.0505L12.1917 13.9048H10.2846L10.1463 14.359H10.5795L10.464 14.7473H10.0295L9.88554 15.2244H10.3187L10.066 16.0589C10.0373 16.1519 10.0682 16.1965 10.0977 16.2389C10.1033 16.2468 10.1087 16.2547 10.1138 16.2628C10.1463 16.3128 10.1792 16.3459 10.2532 16.3647C10.3296 16.3817 10.3819 16.3919 10.453 16.3919H11.3316L11.4881 15.8722L11.0987 15.9257C11.0235 15.9257 10.8152 15.9167 10.8379 15.8472L11.0275 15.2164ZM10.7298 13.1845C10.6876 13.2625 10.6495 13.3109 10.6153 13.3332C10.5851 13.352 10.5254 13.3599 10.4388 13.3599H10.3358L10.198 13.8165H10.5402C10.7048 13.8165 10.8311 13.7561 10.8915 13.726C10.9182 13.7117 10.9368 13.7066 10.953 13.7023C10.976 13.696 10.9941 13.6911 11.0235 13.6627L11.1391 13.5626H12.2076L12.3494 13.0872H11.5673L11.7038 12.8276H10.9273L10.7298 13.1845ZM12.5276 15.6877L12.8197 14.721H13.8586C14.0101 14.7188 14.1194 14.7171 14.1905 14.712C14.2669 14.704 14.3499 14.6767 14.4404 14.6278C14.5338 14.5765 14.5816 14.5224 14.622 14.4603C14.6671 14.3984 14.7393 14.2628 14.8014 14.0538L15.1685 12.8305L14.0904 12.8368C14.0904 12.8368 13.7584 12.8857 13.6122 12.9398C13.4647 13.0001 13.254 13.1686 13.254 13.1686L13.3513 12.8333H12.6853L11.7529 15.9257C11.7198 16.0458 11.6976 16.1329 11.6925 16.1853C11.691 16.2351 11.7477 16.2845 11.7935 16.3244C11.7995 16.3296 11.8054 16.3347 11.8109 16.3396C11.8546 16.3726 11.9147 16.3755 11.9768 16.3786C11.9939 16.3794 12.0112 16.3802 12.0283 16.3817C12.1115 16.388 12.2299 16.3919 12.3932 16.3919H12.9051L13.0622 15.8614L12.604 15.9047C12.555 15.9047 12.5196 15.8785 12.5049 15.8563C12.4866 15.8301 12.4998 15.7839 12.5276 15.6877ZM14.0112 15.0809C13.989 15.0952 13.9532 15.1003 13.8997 15.1003H13.7442L13.7534 14.8355H13.1066L13.0803 16.1301C13.0793 16.2235 13.0883 16.2776 13.1567 16.3208C13.2251 16.3749 13.4356 16.3818 13.7191 16.3818H14.1244L14.2707 15.8972L13.9179 15.9166L13.8006 15.9234L13.7993 15.9229C13.7837 15.9162 13.7688 15.9099 13.7522 15.8932C13.7492 15.8903 13.7459 15.8883 13.7424 15.8863C13.7285 15.8781 13.7131 15.8689 13.7163 15.7941L13.7191 15.4623L14.0891 15.447C14.2889 15.447 14.3743 15.382 14.4472 15.3201C14.5167 15.2607 14.5395 15.1925 14.5657 15.1003L14.6278 14.8065H14.1193L14.0545 15.0137C14.0454 15.0462 14.0311 15.066 14.0112 15.0809Z" fill="#1A1A1A"/>
<path d="M10.4873 10.9199C10.5664 10.5699 10.6598 10.2761 10.8983 10.2761C11.0851 10.2761 11.0986 10.4947 11.0156 10.8459C11.0007 10.9239 10.9325 11.2137 10.8402 11.3372C10.7758 11.4283 10.6996 11.4835 10.6154 11.4835C10.5903 11.4835 10.4412 11.4835 10.4389 11.2621C10.4377 11.1528 10.46 11.0412 10.4873 10.9199Z" fill="#1A1A1A"/>
<path d="M15.6821 10.0113C15.6821 10.0113 15.9297 8.93417 15.9285 8.93825L15.9365 8.88302L15.94 8.8409L16.039 8.8511C16.039 8.8511 16.5497 8.89497 16.5616 8.89614C16.7632 8.97411 16.8462 9.17508 16.7882 9.43741C16.7353 9.67715 16.5798 9.87871 16.38 9.97606C16.2155 10.0586 16.0139 10.0654 15.8062 10.0654H15.6719L15.6821 10.0113Z" fill="#1A1A1A"/>
<path d="M18.0116 10.9569C18.0919 10.6131 18.1842 10.3222 18.4232 10.3222C18.5743 10.3222 18.6539 10.4617 18.6377 10.6996C18.6249 10.7589 18.611 10.8214 18.5946 10.8921C18.5767 10.9684 18.5577 11.0443 18.5387 11.1201L18.5195 11.197C18.4939 11.2663 18.464 11.3318 18.4312 11.3753C18.3697 11.4625 18.2234 11.5166 18.1391 11.5166C18.1152 11.5166 17.9678 11.5166 17.9627 11.2991C17.9615 11.1908 17.9838 11.0794 18.0116 10.9569Z" fill="#1A1A1A"/>
<path d="M13.2267 13.3388H14.3272L14.2481 13.6007C14.2481 13.6007 13.7294 13.5956 13.6463 13.6109C13.2808 13.6742 13.0673 13.8695 13.0673 13.8695L13.2267 13.3388Z" fill="#1A1A1A"/>
<path d="M13.0081 14.0681H14.0994L14.03 14.2856C14.0268 14.2872 14.0222 14.2866 14.0135 14.2856C13.9957 14.2834 13.9607 14.2791 13.8859 14.2879H12.9409L13.0081 14.0681Z" fill="#1A1A1A"/>
<path d="M16.3419 15.7419H15.7783L15.9417 15.2005H16.5035L16.3419 15.7419Z" fill="#1A1A1A"/>
<path d="M16.6567 14.6949C16.6567 14.6949 16.4802 14.7171 16.364 14.7433C16.2496 14.778 16.0351 14.8873 16.0351 14.8873L16.2286 14.2457H16.7934L16.6567 14.6949Z" fill="#1A1A1A"/>
<path d="M16.6459 13.8142C16.5326 13.8455 16.3219 13.9406 16.3219 13.9406L16.5093 13.3241H17.0711L16.9356 13.7733C16.9356 13.7733 16.762 13.7835 16.6459 13.8142Z" fill="#1A1A1A"/>
</svg>
