<svg width="24" height="24" viewBox="0 0 24 24" fill="none" xmlns="http://www.w3.org/2000/svg">
<path d="M1 1V23H23V1H1Z" fill="white"/>
<path d="M19.0765 6.39748L19.7805 4.48348H23V1H1V23H23V19.524H19.964L18.842 18.2115L17.676 19.524H9.052V12.5355H6.20652L9.76348 4.48348H13.2245L14.0605 6.30948V4.48348H18.358L19.0765 6.39748ZM16.6495 7.666L16.642 6.896L16.9355 7.666L18.3655 11.4865H19.788L21.2255 7.666L21.504 6.90348V11.4865H23V5.62H20.514L19.3845 8.59748L19.084 9.404L18.776 8.59748L17.6395 5.62H15.1535V11.4865H16.6495V7.666ZM13.43 11.4865H15.1535L12.572 5.62H10.57L7.974 11.4865H9.67548L10.13 10.3575H12.9755L13.43 11.4865ZM11.2595 7.60748L11.5525 6.874L11.846 7.60748L12.4545 9.08852H10.6505L11.2595 7.60748ZM10.2545 12.5425V18.3875H15.1535V17.1185H11.7505V16.0995H15.0875V14.838H11.7505V13.8115H15.1535V12.5425H10.2545ZM20.602 18.3875H22.5455L19.8025 15.454L22.5455 12.5425H20.6315L18.864 14.442L17.104 12.5425H15.1535L17.8885 15.476L15.1535 18.3875H17.0455L18.8275 16.4805L20.602 18.3875ZM21.3425 15.4465L23 17.1335V13.782L21.3425 15.4465Z" fill="#006FCF"/>
</svg>
