<svg width="24" height="24" viewBox="0 0 24 24" fill="none" xmlns="http://www.w3.org/2000/svg">
<path d="M17.0334 4.00798L13.2479 13.0433H10.776L8.9125 5.83197C8.8 5.3889 8.70086 5.22646 8.35863 5.037C7.79429 4.73357 6.86729 4.44698 6.0511 4.26953L6.10591 4.00798H10.0834C10.5898 4.00798 11.0463 4.34552 11.162 4.92832L12.1465 10.1556L14.5789 4.00798H17.0334Z" fill="#1A1A1A"/>
<path d="M7.80321 17.4575H8.48242C8.75842 17.4575 8.96925 17.5127 9.11465 17.6231C9.26017 17.7336 9.33267 17.9307 9.33267 18.214C9.33267 18.4939 9.26017 18.6898 9.11465 18.8019C8.96925 18.9146 8.75842 18.9706 8.48242 18.9706H7.80321V17.4575Z" fill="#1A1A1A"/>
<path d="M11.4232 19.3571H12.6546L12.0472 17.6619H12.0362L11.4232 19.3571Z" fill="#1A1A1A"/>
<path d="M22.3075 1H2V23H22.3075V1ZM21.7999 15.2869H2.50861V1.50752H21.7999V15.2869ZM7.05768 16.8723H8.59284C8.89462 16.8723 9.15987 16.9192 9.38808 17.013C9.61637 17.1069 9.79386 17.2523 9.92093 17.4491C10.048 17.6462 10.1113 17.8974 10.1113 18.203C10.1113 18.5084 10.048 18.7589 9.92093 18.9539C9.79386 19.1492 9.61637 19.2938 9.38808 19.3876C9.15987 19.4815 8.89462 19.5284 8.59284 19.5284H7.80321V21.069H7.05768V16.8723ZM10.8268 21.069H10.142L11.6992 16.8723H12.4888L14.0463 21.069H13.251L12.8424 19.9205H11.2355L10.8268 21.069ZM15.358 19.252L13.8779 16.8723H14.7006L15.7995 18.6944H15.8162L16.9041 16.8723H17.5777L16.0978 19.2465V21.069H15.358V19.252Z" fill="#1A1A1A"/>
</svg>
