<svg width="24" height="24" viewBox="0 0 24 24" fill="none" xmlns="http://www.w3.org/2000/svg">
<path d="M7.23077 5.41409C3.60027 5.41409 0.645279 8.36873 0.645279 11.9986C0.645279 15.6286 3.59989 18.5841 7.23077 18.5841H16.773C20.4034 18.5841 23.3575 15.6296 23.3575 11.9986C23.3575 8.36764 20.4039 5.41409 16.7735 5.41409H7.23077ZM0.145279 11.9986C0.145279 8.09251 3.3242 4.91409 7.23077 4.91409H16.7735C20.6801 4.91409 23.8575 8.09152 23.8575 11.9986C23.8575 15.9057 20.6796 19.0841 16.773 19.0841H7.23077C3.3237 19.0841 0.145279 15.9047 0.145279 11.9986Z" fill="#1A1A1A"/>
<path d="M18.4414 11.5662L21.6144 15.3401C22.2717 14.3905 22.6577 13.239 22.6577 11.9991C22.6577 10.6904 22.2278 9.48001 21.5022 8.5015L18.4414 11.5662Z" fill="#1A1A1A"/>
<path d="M9.44928 8.18284C11.8188 8.18284 13.6042 8.78581 13.7883 10.7822L16.2819 8.18234H21.2478C20.1675 6.91806 18.5621 6.1146 16.7727 6.1146H7.23042C5.44047 6.1146 3.83455 6.91756 2.7543 8.18234L9.44928 8.18284Z" fill="#1A1A1A"/>
<path d="M5.54543 10.6994L4.69908 13.026H8.1134C9.12283 13.026 9.42806 12.6081 9.65399 11.8036C9.87742 11.0081 9.31584 10.6994 8.6261 10.6994H5.54543Z" fill="#1A1A1A"/>
<path d="M16.3031 15.6573L13.6653 12.3243C13.1775 14.597 11.5811 15.6573 8.58817 15.6573H2.62433C3.70309 17.0129 5.36735 17.8841 7.23062 17.8841H16.7729C18.6361 17.8841 20.2994 17.0139 21.3782 15.6578L16.3031 15.6573Z" fill="#1A1A1A"/>
</svg>
