<svg width="24" height="24" viewBox="0 0 24 24" fill="none" xmlns="http://www.w3.org/2000/svg">
<path d="M0.484382 14.1641C0.484382 13.7081 0.245212 13.7381 0.0175781 13.7327V13.602C0.21522 13.6112 0.418245 13.6112 0.615886 13.6112C0.828909 13.6112 1.11807 13.602 1.49412 13.602C2.80763 13.602 3.5236 14.4795 3.5236 15.3777C3.5236 15.8799 3.22983 17.1434 1.43337 17.1434C1.17497 17.1434 0.935804 17.1334 0.697404 17.1334C0.459003 17.1334 0.245212 17.1388 0.0175781 17.1434V17.0111C0.321346 16.9811 0.469001 16.9711 0.484382 16.6258V14.1641ZM0.981177 16.5443C0.981177 16.9357 1.26034 16.9803 1.5095 16.9803C2.60615 16.9803 2.96528 16.1536 2.96528 15.3969C2.96528 14.4487 2.35698 13.7635 1.37723 13.7635C1.16882 13.7635 1.07346 13.7781 0.981177 13.7835V16.5443Z" fill="#221F20"/>
<path d="M3.70206 17.0111H3.79819C3.94046 17.0111 4.0412 17.0111 4.0412 16.8427V15.4684C4.0412 15.2454 3.96584 15.2147 3.77743 15.1139V15.0324C4.01659 14.9609 4.30037 14.8655 4.32113 14.8494C4.35651 14.8294 4.3865 14.8248 4.41265 14.8248C4.43879 14.8248 4.44802 14.8548 4.44802 14.8955V16.8435C4.44802 17.0119 4.5603 17.0119 4.7018 17.0119H4.78794V17.1442C4.6149 17.1442 4.43803 17.1342 4.255 17.1342C4.07197 17.1342 3.8897 17.1396 3.70206 17.1442V17.0111ZM4.24577 14.0427C4.11349 14.0427 3.9966 13.9204 3.9966 13.7889C3.9966 13.6574 4.11811 13.5443 4.24577 13.5443C4.37343 13.5443 4.49493 13.6512 4.49493 13.7889C4.49493 13.9265 4.38265 14.0427 4.24577 14.0427Z" fill="#221F20"/>
<path d="M5.27055 15.4984C5.27055 15.3115 5.21441 15.26 4.97678 15.1646V15.0677C5.19442 14.997 5.40282 14.9301 5.64661 14.8247C5.66199 14.8247 5.6766 14.8347 5.6766 14.8747V15.2054C5.96653 14.997 6.21492 14.8247 6.55561 14.8247C6.98703 14.8247 7.1393 15.1393 7.1393 15.5353V16.8442C7.1393 17.0126 7.25158 17.0126 7.39308 17.0126H7.4846V17.1449C7.30618 17.1449 7.1293 17.1349 6.94704 17.1349C6.76478 17.1349 6.58175 17.1403 6.39872 17.1449V17.0126H6.49024C6.63251 17.0126 6.73325 17.0126 6.73325 16.8442V15.5307C6.73325 15.2408 6.55638 15.0993 6.26645 15.0993C6.10418 15.0993 5.84579 15.2308 5.67737 15.3431V16.8442C5.67737 17.0126 5.78965 17.0126 5.93192 17.0126H6.02343V17.1449C5.84579 17.1449 5.66737 17.1349 5.48434 17.1349C5.30131 17.1349 5.11905 17.1403 4.93679 17.1449V17.0126H5.02907C5.17058 17.0126 5.27209 17.0126 5.27209 16.8442V15.4999L5.27055 15.4984Z" fill="#221F20"/>
<path d="M7.869 15.743C7.85823 15.7884 7.85823 15.8645 7.869 16.0368C7.89899 16.5189 8.20891 16.915 8.61419 16.915C8.89335 16.915 9.11253 16.7627 9.2994 16.5751L9.37015 16.6458C9.13637 16.955 8.84798 17.2188 8.43193 17.2188C7.62445 17.2188 7.46218 16.4374 7.46218 16.1129C7.46218 15.1185 8.13201 14.824 8.48653 14.824C8.89797 14.824 9.34016 15.0824 9.34478 15.6199C9.34478 15.6515 9.34477 15.6815 9.34016 15.7122L9.29402 15.743H7.869ZM8.76723 15.58C8.89335 15.58 8.90796 15.5138 8.90796 15.4531C8.90796 15.1939 8.75108 14.9855 8.46654 14.9855C8.15739 14.9855 7.94436 15.2139 7.88284 15.5792H8.76646L8.76723 15.58Z" fill="#221F20"/>
<path d="M9.46236 17.0111H9.60001C9.74229 17.0111 9.84303 17.0111 9.84303 16.8427V15.4169C9.84303 15.26 9.65615 15.2293 9.58002 15.1885V15.1132C9.94993 14.9555 10.1537 14.824 10.1999 14.824C10.2299 14.824 10.2452 14.8386 10.2452 14.8901V15.3462H10.256C10.3821 15.1485 10.5959 14.824 10.9051 14.824C11.032 14.824 11.1942 14.9094 11.1942 15.0924C11.1942 15.2293 11.0989 15.3516 10.9558 15.3516C10.7982 15.3516 10.7982 15.2293 10.6205 15.2293C10.5344 15.2293 10.2498 15.3462 10.2498 15.6507V16.8419C10.2498 17.0104 10.3514 17.0104 10.4929 17.0104H10.7774V17.1426C10.4982 17.138 10.2852 17.1326 10.0676 17.1326C9.84995 17.1326 9.64616 17.138 9.46313 17.1426V17.0104L9.46236 17.0111Z" fill="#221F20"/>
<path d="M11.4156 16.4374C11.4817 16.772 11.6847 17.0565 12.0554 17.0565C12.3545 17.0565 12.4653 16.8735 12.4653 16.6958C12.4653 16.0975 11.3602 16.289 11.3602 15.4731C11.3602 15.1885 11.5886 14.824 12.1469 14.824C12.3092 14.824 12.5268 14.8694 12.7252 14.9709L12.7614 15.4884H12.6445C12.5937 15.1693 12.4161 14.9855 12.0908 14.9855C11.8877 14.9855 11.6955 15.1024 11.6955 15.3208C11.6955 15.9153 12.8721 15.7322 12.8721 16.5289C12.8721 16.8635 12.6029 17.2188 12 17.2188C11.7962 17.2188 11.5578 17.148 11.3802 17.0465L11.324 16.4628L11.4156 16.4374Z" fill="#221F20"/>
<path d="M17.4548 14.5194H17.3279C17.2318 13.9257 16.8104 13.6873 16.2428 13.6873C15.6753 13.6873 14.8109 14.078 14.8109 15.2954C14.8109 16.3213 15.543 17.0573 16.3236 17.0573C16.8257 17.0573 17.2426 16.712 17.3441 16.179L17.4602 16.209L17.3441 16.9504C17.1311 17.0826 16.5566 17.2195 16.2221 17.2195C15.0347 17.2195 14.2841 16.4536 14.2841 15.3115C14.2841 14.271 15.2123 13.5251 16.2074 13.5251C16.6189 13.5251 17.0142 13.6574 17.4048 13.7942L17.4556 14.5202L17.4548 14.5194Z" fill="#221F20"/>
<path d="M17.6378 17.0111H17.7347C17.877 17.0111 17.9785 17.0111 17.9785 16.8427V14.0173C17.9785 13.6866 17.9023 13.6766 17.7093 13.6212V13.5397C17.9123 13.4735 18.1254 13.3828 18.2322 13.3213C18.2876 13.2913 18.3284 13.2651 18.3438 13.2651C18.3745 13.2651 18.3845 13.2959 18.3845 13.3367V16.8427C18.3845 17.0111 18.4968 17.0111 18.6383 17.0111H18.7244V17.1434C18.5529 17.1434 18.3745 17.1334 18.1915 17.1334C18.0085 17.1334 17.827 17.1388 17.6378 17.1434V17.0111Z" fill="#221F20"/>
<path d="M20.8967 16.8635C20.8967 16.9558 20.9521 16.9596 21.039 16.9596C21.0997 16.9596 21.1759 16.955 21.242 16.955V17.0619C21.0228 17.0819 20.6076 17.1888 20.5099 17.2188L20.4853 17.2034V16.7927C20.1815 17.0411 19.947 17.2188 19.5863 17.2188C19.3125 17.2188 19.0287 17.0419 19.0287 16.6159V15.3162C19.0287 15.1839 19.008 15.057 18.725 15.0316V14.9355C18.908 14.9301 19.3125 14.9001 19.3794 14.9001C19.4356 14.9001 19.4356 14.9355 19.4356 15.047V16.3559C19.4356 16.5082 19.4356 16.9442 19.877 16.9442C20.0492 16.9442 20.2776 16.812 20.4907 16.6358V15.2693C20.4907 15.1685 20.2477 15.1124 20.0646 15.0616V14.9701C20.5214 14.9394 20.806 14.8994 20.856 14.8994C20.8967 14.8994 20.8967 14.9347 20.8967 14.9909V16.8635Z" fill="#221F20"/>
<path d="M21.9059 15.1893C22.1089 15.017 22.3834 14.8247 22.6626 14.8247C23.2509 14.8247 23.6062 15.3377 23.6062 15.8898C23.6062 16.5543 23.1194 17.2195 22.3927 17.2195C22.0174 17.2195 21.8197 17.098 21.6875 17.0426L21.5352 17.1588L21.4291 17.1034C21.4737 16.8042 21.4998 16.5089 21.4998 16.1998V14.018C21.4998 13.6873 21.4237 13.6773 21.2306 13.6212V13.5397C21.4344 13.4735 21.6467 13.3828 21.7536 13.3213C21.809 13.2913 21.8497 13.2651 21.8659 13.2651C21.8959 13.2651 21.9059 13.2959 21.9059 13.3367V15.1893ZM21.9059 16.5697C21.9059 16.7627 22.0889 17.0872 22.4288 17.0872C22.9725 17.0872 23.2001 16.5543 23.2001 16.1021C23.2001 15.5545 22.7841 15.0977 22.388 15.0977C22.1996 15.0977 22.0427 15.22 21.9051 15.3369L21.9059 16.5697Z" fill="#221F20"/>
<path d="M0.866701 20.1887C0.733658 20.1887 0.555242 20.178 0.418354 20.178C0.281466 20.178 0.108434 20.1887 0 20.1887V20.0826H0.0507562C0.150731 20.0803 0.242246 20.0718 0.243015 19.9365V18.4899C0.243015 18.3546 0.150731 18.3461 0.0507562 18.3438H0V18.2377C0.108434 18.2377 0.286081 18.2484 0.42143 18.2484C0.55678 18.2484 0.735965 18.2377 0.866701 18.2377V18.3438H0.816714C0.71597 18.3453 0.624455 18.3546 0.623686 18.4899V19.9365C0.623686 20.0718 0.71597 20.0803 0.816714 20.0826H0.866701V20.1887Z" fill="#221F20"/>
<path d="M2.92528 20.2296L2.79685 20.2257L1.39567 18.6638V19.7705C1.39952 20.0112 1.43566 20.0789 1.6433 20.0819H1.70252V20.1881C1.58332 20.1881 1.45181 20.1773 1.33415 20.1773C1.21649 20.1773 1.07191 20.1881 0.946555 20.1881V20.0819H0.998081C1.18111 20.0804 1.23264 19.9635 1.23494 19.7428V18.58C1.23494 18.4331 1.11344 18.3439 0.995004 18.3431H0.946555V18.237C1.05268 18.237 1.17265 18.2478 1.27647 18.2478C1.35876 18.2478 1.43874 18.237 1.53179 18.2409L2.74533 19.6067V18.5908C2.74379 18.3708 2.59767 18.3447 2.51692 18.3431H2.44386V18.237C2.57383 18.237 2.71379 18.2478 2.84299 18.2478C2.95527 18.2478 3.08062 18.237 3.19444 18.237V18.3431H3.14138C3.02679 18.3462 2.91067 18.357 2.90682 18.6815V19.9389C2.90682 20.035 2.91221 20.145 2.92528 20.2296Z" fill="#221F20"/>
<path d="M4.69797 20.1888C4.58877 20.1888 4.3819 20.178 4.23347 20.178C4.06813 20.178 3.86357 20.1888 3.75513 20.1888V20.0826H3.81973C3.972 20.0788 4.03352 20.0773 4.0366 19.8627V18.3992H3.59594C3.39215 18.4038 3.39676 18.4477 3.35139 18.6515H3.2445C3.25526 18.5746 3.27141 18.4823 3.27987 18.4023C3.29064 18.3262 3.29602 18.237 3.29602 18.1577H3.38369C3.40292 18.2277 3.45521 18.2362 3.52519 18.2377H4.96406C5.04019 18.2362 5.0971 18.2216 5.10171 18.1501L5.19246 18.1647C5.18169 18.2393 5.16939 18.3254 5.16093 18.3992C5.15554 18.4731 5.15554 18.5561 5.15554 18.6307L5.05019 18.6699L5.04998 18.6671C5.04229 18.5631 5.03017 18.3992 4.85716 18.3992H4.4165V19.8565C4.41958 20.065 4.50187 20.0796 4.63414 20.0826H4.69797V20.1888Z" fill="#221F20"/>
<path d="M6.75565 20.1872C6.57877 20.1872 6.24886 20.1772 6.00046 20.1772C5.75206 20.1772 5.41138 20.1887 5.25373 20.1887V20.0826H5.30449C5.40446 20.0811 5.49597 20.0718 5.49674 19.9365V18.4899C5.49597 18.3553 5.40446 18.3461 5.30449 18.3438H5.25373V18.2377C5.42215 18.2377 5.72207 18.2484 5.95355 18.2484C6.18503 18.2484 6.48418 18.2377 6.6726 18.2377C6.67029 18.2792 6.66952 18.3407 6.66952 18.393C6.66952 18.4876 6.6726 18.6022 6.67798 18.6806L6.57262 18.7091C6.5557 18.5307 6.53263 18.3853 6.24732 18.383H5.87511V19.0821H6.19195C6.35191 19.0805 6.38113 18.9883 6.39959 18.8398H6.50572C6.50033 18.9475 6.49649 19.0675 6.49649 19.1751C6.49649 19.2828 6.49956 19.3935 6.50572 19.4989L6.39959 19.5197C6.38113 19.3512 6.37806 19.2459 6.19503 19.2436H5.87588V19.875C5.87588 20.0412 6.01811 20.0418 6.19678 20.0426L6.20118 20.0426C6.53417 20.0411 6.67029 20.0126 6.75334 19.7027L6.85332 19.7281C6.81717 19.8734 6.78103 20.0418 6.75565 20.1872Z" fill="#221F20"/>
<path fill-rule="evenodd" clip-rule="evenodd" d="M8.86086 20.1887C8.76858 20.1887 8.67014 20.178 8.57862 20.178C8.4948 20.178 8.40636 20.1887 8.30946 20.1849C8.09798 19.9065 7.91649 19.6104 7.73807 19.2943H7.57504V19.8734C7.57806 20.0776 7.65843 20.0795 7.78251 20.0824L7.78883 20.0826H7.85035V20.1887C7.69193 20.1887 7.51966 20.178 7.36278 20.178C7.23051 20.178 7.08978 20.1887 6.95135 20.1887V20.0826H7.01287C7.11208 20.0818 7.1959 20.038 7.19667 19.9449V18.5422C7.19516 18.3502 7.10224 18.3469 7.01726 18.344L7.01287 18.3438H6.95135V18.2377C7.04133 18.2377 7.22359 18.2484 7.39201 18.2484C7.56042 18.2484 7.68962 18.2377 7.83651 18.2377C8.18411 18.2377 8.5048 18.3346 8.50557 18.7352C8.50557 18.9844 8.34022 19.1405 8.12797 19.2274L8.5917 19.9219C8.6686 20.0365 8.72705 20.0657 8.86086 20.0826V20.1887ZM8.11259 18.7529C8.11028 19.0736 7.97186 19.1682 7.69885 19.1713H7.57657V18.3715C7.61195 18.3676 7.64656 18.3607 7.72115 18.3607C7.96109 18.3623 8.11105 18.5122 8.11259 18.7529Z" fill="#221F20"/>
<path d="M10.8988 20.2296L10.7712 20.2257L9.36998 18.6638V19.7705C9.37306 20.0112 9.40997 20.0789 9.61761 20.0819H9.67606V20.1881C9.55686 20.1881 9.42612 20.1765 9.30846 20.1765C9.1908 20.1765 9.04391 20.1881 8.9201 20.1881V20.0819H8.97086C9.15312 20.0812 9.20618 19.9635 9.20772 19.7428V18.58C9.20772 18.4323 9.08698 18.3439 8.96855 18.3431H8.9201V18.237C9.02546 18.237 9.1462 18.2478 9.25078 18.2478C9.3323 18.2478 9.41228 18.237 9.50457 18.2401L10.7189 19.6067V18.5908C10.7189 18.3708 10.5712 18.3439 10.4912 18.3431H10.4182V18.237C10.5489 18.237 10.6881 18.2478 10.8173 18.2478C10.9296 18.2478 11.0549 18.237 11.1688 18.237V18.3431H11.1157C11.0019 18.3462 10.8842 18.357 10.8811 18.6815V19.9389C10.8811 20.035 10.885 20.1442 10.8988 20.2296Z" fill="#221F20"/>
<path fill-rule="evenodd" clip-rule="evenodd" d="M13.0844 20.1902C12.9606 20.1848 12.8229 20.1772 12.6906 20.1772C12.5666 20.1772 12.425 20.1826 12.2911 20.1877L12.2646 20.1887V20.0818H12.3077C12.3707 20.0818 12.4661 20.0679 12.4661 20.0149C12.4661 19.9834 12.443 19.9072 12.4122 19.8196L12.3069 19.5073H11.6978L11.6117 19.7857C11.5832 19.8803 11.5509 19.9534 11.5509 19.998C11.5517 20.0656 11.6555 20.0818 11.747 20.0818H11.7893V20.1902C11.6786 20.1841 11.5532 20.1779 11.4433 20.1779C11.3459 20.1779 11.2366 20.1839 11.1388 20.1892L11.1333 20.1895V20.0826C11.2364 20.0826 11.3494 20.0233 11.3894 19.9118L11.8316 18.6445C11.8678 18.5422 11.9178 18.4045 11.9416 18.2946C12.0277 18.2646 12.1646 18.2023 12.2185 18.1684C12.2254 18.1684 12.24 18.17 12.2484 18.1854L12.7829 19.6988C12.8152 19.7949 12.8483 19.8972 12.8844 19.9787C12.916 20.0526 12.9959 20.0818 13.0844 20.0818V20.1902ZM12.2408 19.3289H11.757L12.0008 18.5883L12.2408 19.3289Z" fill="#221F20"/>
<path d="M14.2924 20.1888C14.1848 20.1888 13.9802 20.178 13.831 20.178C13.6657 20.178 13.4611 20.1888 13.3519 20.1888V20.0826H13.4165C13.5688 20.0788 13.6295 20.0773 13.6334 19.8627V18.3992H13.1927C12.9874 18.4031 12.9912 18.4477 12.9459 18.6515H12.839C12.8505 18.5746 12.8659 18.4823 12.8736 18.4031C12.8851 18.3254 12.8897 18.237 12.8897 18.1577H12.9774C12.9966 18.2277 13.0504 18.2362 13.1204 18.2377H14.5593C14.6354 18.2362 14.6916 18.2216 14.6962 18.1501L14.7885 18.1647C14.7769 18.2393 14.7646 18.3254 14.7562 18.3992C14.7508 18.4731 14.7562 18.5561 14.7562 18.6307L14.6446 18.6699C14.6377 18.5661 14.6262 18.3992 14.4516 18.3992H14.011V19.8565C14.014 20.065 14.0963 20.0796 14.2278 20.0826H14.2924V20.1888Z" fill="#221F20"/>
<path d="M15.7312 20.1887C15.5974 20.1887 15.4205 20.1772 15.2828 20.1772C15.1452 20.1772 14.9729 20.1887 14.8652 20.1887V20.0826H14.9152C15.0152 20.0811 15.1067 20.0718 15.1067 19.9365V18.4899C15.1067 18.3553 15.0152 18.3461 14.9152 18.3438H14.8652V18.2377C14.9729 18.2377 15.1505 18.2484 15.2851 18.2484C15.4197 18.2484 15.6004 18.2377 15.7312 18.2377V18.3438H15.6812C15.5804 18.3461 15.4889 18.3553 15.4882 18.4899V19.9365C15.4889 20.0718 15.5804 20.0803 15.6812 20.0826H15.7312V20.1887Z" fill="#221F20"/>
<path fill-rule="evenodd" clip-rule="evenodd" d="M15.79 19.2267C15.7915 18.6461 16.2406 18.1962 16.8212 18.1954C17.4141 18.197 17.8894 18.5646 17.8902 19.1598C17.8902 19.8012 17.4288 20.2288 16.8351 20.2295C16.2444 20.228 15.7915 19.8266 15.79 19.2267ZM17.4803 19.2213C17.4795 19.6235 17.3888 20.0842 16.8628 20.0842C16.4259 20.0826 16.2014 19.6212 16.2014 19.129C16.2022 18.7614 16.3421 18.3408 16.8158 18.3408C17.2642 18.3416 17.4803 18.8207 17.4803 19.2213Z" fill="#221F20"/>
<path d="M19.9127 20.2296L19.7851 20.2257L18.3839 18.6638V19.7705C18.387 20.0112 18.4239 20.0789 18.6315 20.0812H18.6915V20.1881C18.5723 20.1881 18.4408 20.1773 18.3231 20.1773C18.2055 20.1773 18.0609 20.1881 17.9355 20.1881V20.0812H17.9855C18.1678 20.0812 18.2201 19.9635 18.2216 19.7428V18.58C18.2216 18.4323 18.1017 18.3439 17.9825 18.3431H17.9355V18.237C18.0417 18.237 18.1609 18.2478 18.2647 18.2478C18.3462 18.2478 18.4262 18.237 18.52 18.2409L19.7328 19.6067V18.5908C19.7328 18.3708 19.5859 18.3447 19.5044 18.3431H19.4321V18.237C19.5621 18.237 19.702 18.2478 19.8297 18.2478C19.9435 18.2478 20.0673 18.237 20.1819 18.237V18.3431H20.1288C20.015 18.3462 19.8974 18.357 19.895 18.6815V19.9389C19.895 20.035 19.8997 20.145 19.9127 20.2296Z" fill="#221F20"/>
<path fill-rule="evenodd" clip-rule="evenodd" d="M22.0982 20.188L22.0767 20.1872C21.958 20.1828 21.8293 20.178 21.706 20.178C21.5753 20.178 21.4207 20.1841 21.2792 20.1888V20.0826H21.3207C21.3853 20.0826 21.4807 20.0672 21.4807 20.0142C21.4807 19.9827 21.4561 19.9073 21.4246 19.8189L21.32 19.5066H20.7101L20.6255 19.785C20.5978 19.8796 20.5648 19.9527 20.5655 19.9965C20.5655 20.0642 20.6694 20.0819 20.7601 20.0819H20.8024V20.1888C20.6924 20.1834 20.5663 20.1772 20.4571 20.1772C20.3579 20.1772 20.2464 20.1834 20.1472 20.188V20.0819H20.1749C20.2779 20.0803 20.3641 20.0211 20.4041 19.9096L20.8462 18.6422C20.8816 18.5399 20.9308 18.4023 20.9554 18.2923C21.0423 18.2623 21.1808 18.2008 21.2338 18.167C21.2408 18.1662 21.2554 18.1685 21.2638 18.1831L21.7968 19.6966C21.8298 19.7927 21.8629 19.895 21.8991 19.9773C21.9314 20.0503 21.9813 20.0796 22.0698 20.0811H22.0982V20.188ZM21.2561 19.3274H20.7724L21.0154 18.5884L21.2561 19.3274Z" fill="#221F20"/>
<path d="M23.6484 20.1904C23.4053 20.1904 23.1539 20.1781 22.9116 20.1781C22.6694 20.1781 22.4133 20.1889 22.1703 20.1889V20.0828H22.2203C22.3202 20.0805 22.4156 20.0728 22.4164 19.909V18.4901C22.4156 18.3563 22.321 18.3463 22.2203 18.3447H22.1703V18.2386C22.3172 18.2386 22.4725 18.2494 22.6186 18.2494C22.7647 18.2494 22.9078 18.2386 23.0493 18.2386V18.3447H22.9685C22.8616 18.3478 22.7947 18.3432 22.7924 18.4832V19.9074C22.794 20.0105 22.8609 20.0374 22.9478 20.0505C22.9954 20.0535 23.0477 20.0558 23.1 20.0558C23.1677 20.0558 23.2377 20.0528 23.31 20.0451C23.4223 20.032 23.5184 19.9674 23.5668 19.9013C23.6091 19.842 23.6368 19.7567 23.653 19.6967H23.7568C23.726 19.8544 23.6814 20.0328 23.6484 20.1904Z" fill="#221F20"/>
<path d="M6.46982 8.42803C6.46982 5.84484 8.5639 3.75076 11.1471 3.75076C13.7303 3.75076 15.8243 5.84484 15.8243 8.42803C15.8243 11.0112 13.7303 13.1053 11.1471 13.1053C8.5639 13.1053 6.46982 11.0112 6.46982 8.42803Z" fill="white"/>
<path d="M11.1533 13.1883C8.47323 13.2006 6.26688 11.0296 6.26688 8.38567C6.26765 5.49795 8.47323 3.5 11.1533 3.5H12.4099C15.0585 3.5 17.4755 5.49641 17.4755 8.38644C17.4755 11.0288 15.0585 13.1891 12.4099 13.1891H11.1533V13.1883ZM11.1641 3.90067C8.71471 3.90144 6.72983 5.88631 6.72983 8.33568C6.72983 10.7851 8.71471 12.7692 11.1641 12.7699C13.6135 12.7699 15.5983 10.7851 15.5991 8.33568C15.5991 5.88631 13.6135 3.90144 11.1641 3.90067ZM10.1574 10.9581V5.71251C9.10384 6.11856 8.35634 7.1383 8.35326 8.33568C8.35634 9.5323 9.10384 10.5528 10.1574 10.9581ZM13.9757 8.33568C13.9734 7.13753 13.2251 6.11625 12.17 5.71174V10.9589C13.2251 10.5536 13.9734 9.53307 13.9757 8.33492" fill="#234E90"/>
</svg>
