<svg width="24" height="24" viewBox="0 0 24 24" fill="none" xmlns="http://www.w3.org/2000/svg">
<path d="M9.91167 8.75473C9.42089 9.76498 9.16638 10.8736 9.1674 11.9968C9.16638 13.1199 9.4209 14.2286 9.91169 15.2389C10.4025 16.2491 11.1167 17.1345 12.0002 17.8279C12.8829 17.1338 13.5964 16.2483 14.0871 15.2382C14.5778 14.2281 14.8328 13.1198 14.8328 11.9968C14.8328 10.8738 14.5778 9.7655 14.0871 8.75541C13.5964 7.74532 12.8829 6.85983 12.0002 6.1657C11.1167 6.85913 10.4025 7.74448 9.91167 8.75473Z" fill="#1A1A1A"/>
<path d="M19.8248 18.6677C21.0765 18.0595 22.1318 17.1114 22.8701 15.9317C23.6084 14.752 23.9999 13.3884 23.9998 11.9968C23.9999 10.6051 23.6084 9.24156 22.8701 8.0619C22.1318 6.88223 21.0765 5.9341 19.8248 5.32586C18.5731 4.71762 17.1755 4.47383 15.7918 4.62234C14.5802 4.75238 13.4221 5.1786 12.4182 5.85995C13.3103 6.58726 14.0334 7.50069 14.5368 8.53693C15.0606 9.61511 15.3328 10.7981 15.3328 11.9968C15.3328 13.1955 15.0606 14.3785 14.5368 15.4567C14.0334 16.4929 13.3103 17.4063 12.4183 18.1336C13.4221 18.815 14.5802 19.2412 15.7918 19.3712C17.1755 19.5198 18.5731 19.276 19.8248 18.6677Z" fill="#1A1A1A"/>
<path d="M9.46194 15.4573C9.96543 16.4937 10.6892 17.407 11.5819 18.1336C10.578 18.815 9.41989 19.2412 8.20831 19.3712C6.82459 19.5198 5.427 19.276 4.17528 18.6677C2.92356 18.0595 1.86822 17.1114 1.12988 15.9317C0.391541 14.7521 0 13.3885 0 11.9968C0 10.6051 0.391541 9.24153 1.12988 8.06187C1.86822 6.88221 2.92356 5.93408 4.17528 5.32585C5.427 4.71761 6.82459 4.47383 8.20831 4.62235C9.41989 4.75239 10.578 5.1786 11.5819 5.85995C10.6892 6.58658 9.96542 7.49985 9.46193 8.53625C8.93806 9.61458 8.66637 10.798 8.66739 11.9968C8.66637 13.1956 8.93808 14.379 9.46194 15.4573Z" fill="#1A1A1A"/>
</svg>
