<svg width="24" height="24" viewBox="0 0 24 24" fill="none" xmlns="http://www.w3.org/2000/svg">
<path d="M0.948799 16.8946C0.915041 16.8946 0.882414 16.9067 0.856764 16.9287C0.831113 16.9506 0.814117 16.981 0.808816 17.0143L0.00162942 22.1337C-0.00131736 22.1524 -0.000181345 22.1715 0.00495783 22.1897C0.010097 22.2079 0.0191185 22.2248 0.0314019 22.2392C0.0436854 22.2536 0.0589358 22.2652 0.0761127 22.2731C0.0932895 22.281 0.111984 22.2852 0.130906 22.2852H1.08838C1.12211 22.2851 1.15471 22.273 1.18036 22.2511C1.206 22.2292 1.22302 22.1989 1.22837 22.1656L1.46531 20.6622C1.47065 20.6289 1.48767 20.5986 1.51332 20.5767C1.53896 20.5548 1.57156 20.5427 1.60529 20.5426H2.47552C3.49263 20.5426 4.35584 19.8007 4.51354 18.7951C4.67263 17.7812 3.88066 16.8967 2.75778 16.8946H0.948799ZM1.87945 18.0374H2.57588C3.14922 18.0374 3.33573 18.3756 3.2767 18.7498C3.21766 19.1247 2.92798 19.4009 2.37325 19.4009H1.66443L1.87945 18.0374ZM6.46091 18.3856C6.21917 18.3865 5.94089 18.436 5.62861 18.5661C4.91238 18.8645 4.56827 19.4817 4.42228 19.9316C4.42228 19.9316 3.9573 21.3041 5.00784 22.0583C5.00784 22.0583 5.98202 22.784 7.07888 22.0133L7.06007 22.1337C7.05712 22.1524 7.05826 22.1715 7.0634 22.1897C7.06854 22.2079 7.07756 22.2248 7.08984 22.2392C7.10213 22.2536 7.11738 22.2652 7.13455 22.2731C7.15173 22.281 7.17042 22.2852 7.18935 22.2852H8.09819C8.16784 22.2852 8.22707 22.2344 8.23797 22.1654L8.79091 18.6596C8.79385 18.6409 8.79272 18.6218 8.78758 18.6036C8.78244 18.5854 8.77342 18.5685 8.76114 18.5541C8.74886 18.5397 8.7336 18.5282 8.71642 18.5202C8.69925 18.5123 8.68055 18.5081 8.66163 18.5081H7.75278C7.68294 18.5081 7.62371 18.559 7.6128 18.6277L7.58318 18.8163C7.58318 18.8163 7.18625 18.3829 6.46091 18.3856ZM6.49063 19.493C6.59499 19.493 6.69045 19.5072 6.776 19.5348C7.16804 19.6608 7.39057 20.0372 7.32613 20.4457C7.24678 20.9486 6.83443 21.319 6.30572 21.319C6.20135 21.319 6.1057 21.3047 6.02014 21.2772C5.62811 21.1512 5.40427 20.7746 5.46881 20.3661C5.54816 19.8634 5.96191 19.493 6.49063 19.493Z" fill="#1A1A1A"/>
<path d="M14.0365 16.8946C13.9668 16.8946 13.9076 16.9454 13.8967 17.0143L13.0893 22.1337C13.0863 22.1524 13.0875 22.1715 13.0926 22.1898C13.0978 22.208 13.1068 22.2249 13.1191 22.2393C13.1314 22.2537 13.1467 22.2652 13.1639 22.2732C13.1811 22.2811 13.1998 22.2852 13.2188 22.2852H14.1762C14.2459 22.2852 14.3051 22.2345 14.316 22.1656L14.5532 20.6622C14.5585 20.6289 14.5755 20.5986 14.6012 20.5767C14.6268 20.5548 14.6594 20.5427 14.6932 20.5426H15.5634C16.5805 20.5426 17.4437 19.8007 17.6014 18.7951C17.7605 17.7812 16.9683 16.8967 15.8455 16.8946H14.0365ZM14.9671 18.0374H15.6635C16.2369 18.0374 16.4236 18.3756 16.3646 18.7498C16.3055 19.1247 16.0158 19.4009 15.4609 19.4009H14.7521L14.9671 18.0374ZM19.5488 18.3856C19.307 18.3865 19.0288 18.436 18.7165 18.5661C18.0002 18.8645 17.6559 19.4817 17.5099 19.9316C17.5099 19.9316 17.0451 21.3041 18.0957 22.0583C18.0957 22.0583 19.0699 22.784 20.1667 22.0133L20.1477 22.1337C20.1448 22.1524 20.1459 22.1715 20.1511 22.1898C20.1562 22.208 20.1653 22.2249 20.1776 22.2393C20.1899 22.2537 20.2052 22.2652 20.2224 22.2732C20.2396 22.2811 20.2583 22.2852 20.2772 22.2852H21.1859C21.2196 22.2851 21.2522 22.273 21.2779 22.2511C21.3035 22.2291 21.3205 22.1988 21.3258 22.1654L21.8788 18.6596C21.8817 18.6409 21.8806 18.6218 21.8754 18.6036C21.8703 18.5853 21.8612 18.5684 21.8489 18.554C21.8366 18.5396 21.8214 18.5281 21.8042 18.5202C21.787 18.5122 21.7682 18.5081 21.7493 18.5081H20.8407C20.7708 18.5081 20.7116 18.559 20.7007 18.6277L20.6709 18.8163C20.6709 18.8163 20.2741 18.3829 19.5488 18.3856ZM19.5783 19.493C19.6827 19.493 19.7783 19.5072 19.8639 19.5348C20.2559 19.6608 20.4782 20.0372 20.4139 20.4457C20.3345 20.9486 19.9222 21.319 19.3935 21.319C19.2891 21.319 19.1937 21.3047 19.1081 21.2772C18.7161 21.1512 18.4922 20.7746 18.5568 20.3661C18.636 19.8634 19.0496 19.493 19.5783 19.493Z" fill="#1A1A1A"/>
<path d="M9.22207 18.5081C9.20532 18.5081 9.1888 18.512 9.17387 18.5196C9.15894 18.5272 9.14602 18.5382 9.13616 18.5518C9.1263 18.5653 9.11979 18.581 9.11715 18.5975C9.11452 18.614 9.11584 18.631 9.12101 18.6469L10.1172 21.7388L9.21627 23.196C9.17264 23.2668 9.22337 23.3579 9.30662 23.3579H10.3712C10.4016 23.358 10.4316 23.3501 10.4582 23.3352C10.4847 23.3202 10.507 23.2987 10.5228 23.2726L13.3051 18.6691C13.348 18.5984 13.297 18.5079 13.2144 18.5079H12.1498C12.1191 18.5079 12.0889 18.5159 12.0621 18.5311C12.0354 18.5463 12.0131 18.5682 11.9974 18.5947L10.9022 20.4441L10.3461 18.6085C10.3279 18.5487 10.273 18.508 10.2105 18.508L9.22207 18.5081Z" fill="#1A1A1A"/>
<path d="M22.9115 16.8946C22.8419 16.8946 22.7826 16.9454 22.7717 17.0143L21.9643 22.1337C21.9614 22.1524 21.9625 22.1715 21.9677 22.1898C21.9728 22.208 21.9819 22.2249 21.9942 22.2393C22.0065 22.2537 22.0217 22.2652 22.0389 22.2732C22.0562 22.2811 22.0749 22.2852 22.0938 22.2852H23.0511C23.1207 22.2852 23.18 22.2345 23.1909 22.1656L23.9984 17.046C24.0014 17.0273 24.0003 17.0082 23.9951 16.9899C23.9899 16.9717 23.9809 16.9548 23.9685 16.9404C23.9562 16.926 23.9409 16.9144 23.9237 16.9065C23.9065 16.8986 23.8877 16.8945 23.8688 16.8946H22.9115Z" fill="#1A1A1A"/>
<path d="M10.0657 8.05804L9.48053 11.7688H7.12391C7.07837 11.7688 7.03337 11.7589 6.99201 11.7398C6.95065 11.7208 6.91392 11.693 6.88433 11.6583C6.85475 11.6237 6.83302 11.5831 6.82064 11.5393C6.80826 11.4954 6.80552 11.4494 6.81262 11.4045L8.40178 1.3276C8.41621 1.23633 8.46272 1.15321 8.53294 1.09316C8.60317 1.03311 8.69251 1.00008 8.78491 1L12.8342 1.0001C14.7517 1.0001 16.1463 2.39584 16.1138 4.08585C16.1111 4.22604 16.0988 4.36589 16.0771 4.50441C15.7861 6.36072 14.1924 7.73064 12.3147 7.73064H10.449C10.2581 7.73064 10.0954 7.86943 10.0657 8.05804Z" fill="#1A1A1A"/>
<path d="M16.6875 4.4705C16.6824 4.51286 16.6765 4.55514 16.6699 4.59732C16.3334 6.74398 14.4895 8.33065 12.3147 8.33065H10.6301L9.99334 12.3688H9.38609L9.11351 14.0969C9.10644 14.1418 9.1092 14.1878 9.12159 14.2316C9.13399 14.2754 9.15572 14.316 9.1853 14.3506C9.21489 14.3852 9.25161 14.413 9.29296 14.432C9.3343 14.4511 9.37928 14.461 9.4248 14.461H11.4499C11.6409 14.461 11.8033 14.3222 11.8331 14.1336L12.3666 10.7502C12.381 10.659 12.4275 10.5759 12.4977 10.5158C12.568 10.4558 12.6573 10.4227 12.7497 10.4226H13.9422C15.8198 10.4226 17.4134 9.05282 17.7044 7.19661C17.8731 6.12039 17.4618 5.12359 16.6875 4.4705Z" fill="#1A1A1A"/>
</svg>
