<svg width="24" height="24" viewBox="0 0 24 24" fill="none" xmlns="http://www.w3.org/2000/svg">
<path d="M17.3922 13.725H18.9358C18.9839 13.725 19.0758 13.7174 19.1202 13.7076C19.4167 13.6437 19.6635 13.3803 19.6635 13.022C19.6635 12.6638 19.4167 12.3996 19.1202 12.3357C19.0765 12.3259 18.9847 12.3184 18.9358 12.3184H17.3922V13.725Z" fill="#1A1A1A"/>
<path d="M19.4799 10.8757C19.4799 10.5234 19.233 10.2871 18.9433 10.2382C18.9162 10.2337 18.8425 10.2262 18.7913 10.2262H17.3922V11.5244H18.7913C18.8425 11.5244 18.9162 11.5169 18.9433 11.5123C19.2338 11.4634 19.4799 11.2279 19.4799 10.8757Z" fill="#1A1A1A"/>
<path d="M18.7552 3.99473C17.2824 3.99473 16.0888 5.18833 16.0888 6.66114V9.43066H19.8622C19.9495 9.43066 20.0564 9.43668 20.1234 9.44045C20.9776 9.48334 21.6067 9.9221 21.6067 10.683C21.6067 11.2813 21.1763 11.793 20.3928 11.9082V11.9383C21.2583 11.9985 21.9206 12.4741 21.9206 13.2252C21.9206 14.0372 21.1936 14.5588 20.2242 14.5588H16.0888V19.9947H20C21.4728 19.9947 22.6664 18.8004 22.6664 17.3283V3.99473H18.7552Z" fill="#1A1A1A"/>
<path d="M3.9999 3.99466C2.52709 3.99466 1.33349 5.18826 1.33349 6.66108V13.2462C2.08156 13.6082 2.85371 13.8445 3.64017 13.8445C4.56208 13.8445 5.06858 13.2816 5.06858 12.5245V9.43059H7.36171V12.5245C7.36171 13.7346 6.61891 14.7055 4.06989 14.7055C2.53612 14.7055 1.33273 14.3743 1.33273 14.3743V19.9939H5.24393C6.71674 19.9939 7.91034 18.7996 7.91034 17.3275V3.99466H3.9999Z" fill="#1A1A1A"/>
<path d="M11.3777 3.99473C9.90489 3.99473 8.71128 5.18833 8.71128 6.66114V10.1524C9.38711 9.5729 10.5551 9.21091 12.4539 9.29595C13.4699 9.3411 14.5476 9.61354 14.5476 9.61354V10.7424C14.008 10.4692 13.3615 10.2156 12.5284 10.1531C11.088 10.044 10.221 10.7484 10.221 11.9947C10.221 13.241 11.088 13.9447 12.5284 13.8356C13.3615 13.7731 14.017 13.5127 14.5476 13.247V14.3752C14.5476 14.3752 13.4699 14.6476 12.4539 14.6935C10.5559 14.7785 9.38711 14.4166 8.71128 13.8371V19.9947H12.6225C14.0953 19.9947 15.2889 18.8004 15.2889 17.3283V3.99473H11.3777Z" fill="#1A1A1A"/>
</svg>
