<svg width="24" height="24" viewBox="0 0 24 24" fill="none" xmlns="http://www.w3.org/2000/svg">
<path d="M15.2452 6.16577H8.75551V17.828H15.2452V6.16577Z" fill="#FF5F00"/>
<path d="M23.9998 11.9968C23.9999 13.3885 23.6084 14.7521 22.8701 15.9317C22.1318 17.1114 21.0765 18.0595 19.8248 18.6678C18.5731 19.276 17.1755 19.5198 15.7918 19.3713C14.4081 19.2228 13.0941 18.6879 12 17.8279C12.8828 17.1338 13.5964 16.2483 14.0871 15.2382C14.5778 14.2281 14.8328 13.1198 14.8328 11.9968C14.8328 10.8738 14.5778 9.76553 14.0871 8.75544C13.5964 7.74535 12.8828 6.85986 12 6.16573C13.0941 5.30572 14.4081 4.77089 15.7918 4.62237C17.1755 4.47386 18.5731 4.71766 19.8248 5.32589C21.0765 5.93413 22.1318 6.88227 22.8701 8.06193C23.6084 9.24159 23.9999 10.6052 23.9998 11.9968Z" fill="#F79E1B"/>
<path d="M9.1674 11.9968C9.16638 10.8736 9.42089 9.76495 9.91167 8.7547C10.4025 7.74445 11.1167 6.8591 12.0002 6.16567C10.9061 5.30566 9.59203 4.77083 8.20831 4.62232C6.82459 4.4738 5.427 4.71758 4.17528 5.32581C2.92356 5.93405 1.86822 6.88218 1.12988 8.06184C0.391541 9.2415 0 10.6051 0 11.9968C0 13.3884 0.391541 14.752 1.12988 15.9317C1.86822 17.1113 2.92356 18.0595 4.17528 18.6677C5.427 19.2759 6.82459 19.5197 8.20831 19.3712C9.59203 19.2227 10.9061 18.6879 12.0002 17.8279C11.1167 17.1344 10.4025 16.2491 9.91169 15.2388C9.4209 14.2286 9.16638 13.1199 9.1674 11.9968Z" fill="#EB001B"/>
</svg>
