<svg width="24" height="24" viewBox="0 0 24 24" fill="none" xmlns="http://www.w3.org/2000/svg">
<path d="M7.2555 21.563V20.3286C7.26274 20.2248 7.24776 20.1207 7.21156 20.0231C7.17536 19.9255 7.11878 19.8368 7.04558 19.7628C6.97239 19.6888 6.88425 19.6313 6.78707 19.5941C6.68989 19.5568 6.58588 19.5408 6.48199 19.5469C6.34603 19.538 6.21018 19.5658 6.08861 19.6273C5.96703 19.6889 5.86418 19.7819 5.79076 19.8966C5.72387 19.7853 5.62817 19.694 5.51376 19.6324C5.39935 19.5709 5.27046 19.5413 5.14066 19.5469C5.02752 19.5412 4.91486 19.5652 4.81383 19.6164C4.7128 19.6677 4.6269 19.7444 4.56465 19.839V19.5963H4.13672V21.563H4.56874V20.4727C4.5594 20.4054 4.56507 20.3369 4.58536 20.2721C4.60564 20.2072 4.64003 20.1477 4.68605 20.0977C4.73208 20.0478 4.7886 20.0086 4.85155 19.9831C4.9145 19.9576 4.98232 19.9463 5.05014 19.9502C5.33404 19.9502 5.47806 20.1353 5.47806 20.4686V21.563H5.9101V20.4727C5.90145 20.4055 5.90762 20.3373 5.92816 20.2728C5.9487 20.2082 5.98312 20.149 6.029 20.0992C6.07488 20.0494 6.13111 20.0103 6.19373 19.9845C6.25635 19.9588 6.32385 19.947 6.39149 19.9502C6.68359 19.9502 6.8235 20.1353 6.8235 20.4686V21.563H7.2555ZM9.66663 20.5796V19.5963H9.2387V19.8349C9.16565 19.7408 9.07113 19.6655 8.96304 19.6154C8.85495 19.5653 8.73642 19.5418 8.61739 19.5469C8.35225 19.5599 8.10227 19.6744 7.91922 19.8666C7.73616 20.0589 7.63406 20.3142 7.63406 20.5797C7.63406 20.8451 7.73616 21.1004 7.91922 21.2927C8.10227 21.4849 8.35225 21.5994 8.61739 21.6124C8.73643 21.6175 8.85495 21.594 8.96304 21.5439C9.07113 21.4938 9.16566 21.4185 9.2387 21.3244V21.563H9.66663V20.5796ZM8.07432 20.5796C8.08096 20.4636 8.12142 20.352 8.19072 20.2587C8.26001 20.1653 8.3551 20.0943 8.46427 20.0544C8.57344 20.0144 8.69191 20.0073 8.80507 20.0339C8.91823 20.0605 9.02113 20.1196 9.10109 20.204C9.18104 20.2884 9.23456 20.3943 9.25504 20.5088C9.27551 20.6232 9.26205 20.7411 9.21631 20.848C9.17057 20.9548 9.09456 21.046 8.99764 21.1101C8.90072 21.1743 8.78714 21.2087 8.6709 21.2091C8.58942 21.2102 8.50861 21.1945 8.43354 21.1628C8.35847 21.1311 8.29077 21.0842 8.23473 21.025C8.17868 20.9659 8.13549 20.8958 8.10788 20.8191C8.08027 20.7425 8.06885 20.6609 8.07432 20.5796ZM18.8228 19.5446C18.9673 19.5432 19.1107 19.5701 19.2449 19.6237C19.3699 19.6736 19.484 19.7475 19.5806 19.8414C19.6757 19.9346 19.7511 20.046 19.8024 20.1689C19.9093 20.4323 19.9093 20.727 19.8024 20.9903C19.7511 21.1133 19.6757 21.2247 19.5806 21.318C19.484 21.4118 19.3699 21.4857 19.2449 21.5356C18.9734 21.6411 18.6723 21.6411 18.4008 21.5356C18.2759 21.4859 18.1621 21.4119 18.066 21.318C17.9715 21.2244 17.8964 21.1131 17.8452 20.9903C17.7385 20.7269 17.7385 20.4323 17.8452 20.1689C17.8965 20.0462 17.9715 19.9349 18.066 19.8414C18.1621 19.7474 18.2759 19.6734 18.4008 19.6237C18.535 19.5701 18.6783 19.5432 18.8228 19.5446ZM18.8228 19.9492C18.7391 19.9484 18.6561 19.9641 18.5785 19.9954C18.5053 20.0248 18.4389 20.0688 18.3834 20.1247C18.3275 20.1819 18.2835 20.2497 18.254 20.324C18.191 20.4886 18.191 20.6707 18.254 20.8354C18.2835 20.9097 18.3274 20.9774 18.3834 21.0346C18.4389 21.0905 18.5053 21.1346 18.5785 21.1639C18.7355 21.2256 18.9101 21.2256 19.0672 21.1639C19.1406 21.1344 19.2073 21.0904 19.2633 21.0346C19.3197 20.9776 19.3641 20.9098 19.3938 20.8354C19.4568 20.6707 19.4568 20.4886 19.3938 20.324C19.3641 20.2495 19.3197 20.1817 19.2633 20.1247C19.2073 20.0689 19.1406 20.0249 19.0672 19.9954C18.9895 19.9641 18.9065 19.9484 18.8228 19.9492ZM11.9951 20.5796C11.991 19.9666 11.6124 19.5469 11.0611 19.5469C10.7942 19.5609 10.5431 19.6777 10.3605 19.8729C10.1779 20.068 10.078 20.3263 10.0817 20.5935C10.0854 20.8607 10.1925 21.1161 10.3805 21.3061C10.5685 21.4961 10.8227 21.6058 11.0899 21.6124C11.3834 21.6227 11.6705 21.5246 11.8963 21.3367L11.6865 21.0199C11.524 21.1501 11.3228 21.2225 11.1146 21.2256C10.9732 21.2375 10.8327 21.1939 10.7229 21.1041C10.613 21.0142 10.5425 20.8852 10.5262 20.7442H11.9868C11.9909 20.6907 11.9951 20.6373 11.9951 20.5796ZM10.5303 20.4068C10.5378 20.2748 10.5967 20.1509 10.6943 20.0617C10.792 19.9726 10.9207 19.9251 11.0528 19.9296C11.1821 19.927 11.3071 19.9759 11.4004 20.0653C11.4937 20.1548 11.5478 20.2776 11.5507 20.4068H10.5303ZM13.7971 20.0983C13.6104 19.9909 13.3994 19.9328 13.1841 19.9296C12.9495 19.9296 12.8096 20.016 12.8096 20.16C12.8096 20.2917 12.9578 20.3286 13.1429 20.3533L13.3445 20.3821C13.7724 20.4439 14.0316 20.6249 14.0316 20.9705C14.0316 21.3449 13.7025 21.6124 13.1347 21.6124C12.8308 21.6208 12.5322 21.5314 12.283 21.3573L12.4846 21.024C12.6734 21.164 12.9038 21.2365 13.1388 21.2297C13.4309 21.2297 13.5873 21.1434 13.5873 20.9911C13.5873 20.88 13.4762 20.8183 13.2417 20.7854L13.04 20.7566C12.5998 20.6948 12.3612 20.4974 12.3612 20.1764C12.3612 19.7855 12.6821 19.5469 13.1799 19.5469C13.4616 19.5372 13.7401 19.6086 13.9823 19.7526L13.7971 20.0983ZM15.8532 19.9872H15.1538V20.8759C15.1538 21.0734 15.2237 21.2051 15.4377 21.2051C15.5712 21.2006 15.7015 21.1624 15.8162 21.094L15.9396 21.4602C15.7792 21.5602 15.5938 21.613 15.4048 21.6124C14.8987 21.6124 14.7218 21.3409 14.7218 20.8841V19.9872H14.3226V19.5963H14.7218L14.7217 18.9997H15.1537L15.1538 19.5963H15.8532V19.9872ZM17.3341 19.5469C17.4379 19.5473 17.5409 19.5654 17.6386 19.6004L17.5069 20.0036C17.4219 19.9698 17.331 19.953 17.2395 19.9542C16.9597 19.9542 16.8198 20.1353 16.8198 20.4603V21.563H16.3919V19.5963H16.8157V19.8349C16.8682 19.7447 16.9441 19.6703 17.0353 19.6196C17.1266 19.569 17.2298 19.5438 17.3341 19.5469Z" fill="black"/>
<path d="M15.2446 4.58569H8.75494V16.2479H15.2446V4.58569Z" fill="#7375CF"/>
<path d="M24.0004 10.4168C24.0004 11.8085 23.6089 13.172 22.8706 14.3517C22.1323 15.5314 21.077 16.4795 19.8253 17.0877C18.5736 17.696 17.1761 17.9398 15.7924 17.7913C14.4087 17.6427 13.0947 17.1079 12.0005 16.2479C12.8833 15.5538 13.5969 14.6683 14.0876 13.6582C14.5784 12.6481 14.8333 11.5398 14.8333 10.4168C14.8333 9.29383 14.5784 8.18552 14.0876 7.17543C13.5969 6.16534 12.8833 5.27984 12.0005 4.58571C13.0947 3.7257 14.4087 3.19087 15.7924 3.04236C17.1761 2.89384 18.5736 3.13764 19.8253 3.74588C21.077 4.35411 22.1323 5.30225 22.8706 6.48191C23.6089 7.66157 24.0004 9.02516 24.0004 10.4168Z" fill="#00A2E5"/>
<path d="M9.1674 10.4168C9.16638 9.29365 9.42089 8.18499 9.91168 7.17475C10.4025 6.1645 11.1167 5.27914 12.0002 4.58572C10.9061 3.7257 9.59204 3.19087 8.20831 3.04236C6.82459 2.89384 5.427 3.13763 4.17528 3.74586C2.92356 4.35409 1.86822 5.30222 1.12989 6.48188C0.391547 7.66155 0 9.02514 0 10.4168C0 11.8085 0.391547 13.1721 1.12989 14.3517C1.86822 15.5314 2.92356 16.4795 4.17528 17.0878C5.427 17.696 6.82459 17.9398 8.20831 17.7913C9.59204 17.6427 10.9061 17.1079 12.0002 16.2479C11.1167 15.5545 10.4025 14.6691 9.91168 13.6589C9.42089 12.6486 9.16638 11.54 9.1674 10.4168Z" fill="#EB001B"/>
</svg>
