<svg width="24" height="24" viewBox="0 0 24 24" fill="none" xmlns="http://www.w3.org/2000/svg">
<path d="M21.8507 4.34991H2.14931C2.06726 4.34991 1.98506 4.34991 1.90315 4.35039C1.83391 4.35089 1.76484 4.35165 1.69576 4.35354C1.54511 4.35761 1.39317 4.3665 1.2444 4.39324C1.09326 4.42044 0.95261 4.46481 0.8154 4.53467C0.680509 4.60327 0.557016 4.69299 0.449995 4.80006C0.342928 4.90713 0.253204 5.03042 0.184621 5.16545C0.114747 5.30266 0.0703489 5.44336 0.043336 5.59462C0.0164551 5.74343 0.00750735 5.89534 0.00344744 6.04584C0.00159148 6.11491 0.000795452 6.18399 0.000344512 6.25305C-0.000133977 6.33513 2.55194e-05 6.41716 2.55194e-05 6.49939V17.5653C2.55194e-05 17.6475 -0.000133977 17.7294 0.000344512 17.8116C0.000795452 17.8807 0.00159148 17.9498 0.00344744 18.0189C0.00750735 18.1692 0.0164551 18.3211 0.043336 18.4699C0.0703489 18.6212 0.114747 18.7618 0.184621 18.8991C0.253204 19.0341 0.342928 19.1576 0.449995 19.2645C0.557016 19.3717 0.680509 19.4614 0.8154 19.5298C0.95261 19.5999 1.09326 19.6443 1.2444 19.6715C1.39317 19.698 1.54511 19.7071 1.69576 19.7111C1.76484 19.7127 1.83391 19.7136 1.90315 19.714C1.98506 19.7146 2.06726 19.7146 2.14931 19.7146H21.8507C21.9326 19.7146 22.0148 19.7146 22.0967 19.714C22.1658 19.7136 22.2349 19.7127 22.3043 19.7111C22.4546 19.7071 22.6065 19.698 22.7556 19.6715C22.9066 19.6443 23.0473 19.5999 23.1845 19.5298C23.3195 19.4614 23.4426 19.3717 23.5499 19.2645C23.6568 19.1576 23.7465 19.0341 23.8153 18.8991C23.8853 18.7618 23.9296 18.6212 23.9565 18.4699C23.9834 18.3211 23.9922 18.1692 23.9962 18.0189C23.9981 17.9498 23.999 17.8807 23.9994 17.8116C24 17.7294 24 17.6475 24 17.5653V6.49939C24 6.41716 24 6.33513 23.9994 6.25305C23.999 6.18399 23.9981 6.11491 23.9962 6.04584C23.9922 5.89534 23.9834 5.74343 23.9565 5.59462C23.9296 5.44336 23.8853 5.30266 23.8153 5.16545C23.7465 5.03042 23.6568 4.90713 23.5499 4.80006C23.4426 4.69299 23.3195 4.60327 23.1845 4.53467C23.0473 4.46481 22.9066 4.42044 22.7556 4.39324C22.6065 4.3665 22.4546 4.35761 22.3043 4.35354C22.2349 4.35165 22.1658 4.35089 22.0967 4.35039C22.0148 4.34991 21.9326 4.34991 21.8507 4.34991Z" fill="black"/>
<path d="M21.8507 4.86206L22.0931 4.86252C22.1587 4.86299 22.2244 4.8637 22.2904 4.8655C22.4053 4.8686 22.5396 4.87482 22.6648 4.89727C22.7737 4.91687 22.8649 4.94668 22.9526 4.99128C23.039 5.03523 23.1183 5.09282 23.1875 5.16192C23.2569 5.23147 23.3146 5.31084 23.3591 5.39829C23.4035 5.48522 23.4331 5.57607 23.4526 5.68572C23.475 5.80958 23.4812 5.94428 23.4843 6.05983C23.4861 6.12505 23.4869 6.19027 23.4873 6.25704C23.4879 6.33779 23.4879 6.41849 23.4879 6.4994V17.5653C23.4879 17.6462 23.4879 17.7268 23.4873 17.8092C23.4869 17.8744 23.4861 17.9397 23.4843 18.005C23.4812 18.1204 23.475 18.255 23.4523 18.3803C23.4331 18.4885 23.4035 18.5793 23.3589 18.6667C23.3145 18.7539 23.2569 18.8332 23.1878 18.9023C23.1182 18.9719 23.0392 19.0294 22.9517 19.0737C22.8647 19.1181 22.7736 19.1479 22.6658 19.1673C22.5381 19.19 22.3981 19.1963 22.2927 19.1992C22.2264 19.2007 22.1604 19.2016 22.0928 19.2019C22.0122 19.2025 21.9313 19.2025 21.8507 19.2025H2.14932C2.14824 19.2025 2.1472 19.2025 2.14611 19.2025C2.06645 19.2025 1.98663 19.2025 1.90552 19.2019C1.83939 19.2016 1.7734 19.2007 1.7096 19.1992C1.60178 19.1963 1.46173 19.1901 1.33502 19.1674C1.22631 19.1479 1.13518 19.1181 1.04708 19.0731C0.96039 19.0292 0.881467 18.9718 0.811854 18.9021C0.742778 18.8331 0.685374 18.7541 0.64099 18.6667C0.596563 18.5794 0.566839 18.4883 0.547295 18.3789C0.524703 18.2538 0.518497 18.1197 0.515395 18.0051C0.513625 17.9395 0.512885 17.8739 0.512465 17.8087L0.512146 17.6161L0.512161 17.5653V6.4994L0.512146 6.44857L0.51245 6.25643C0.512885 6.19082 0.513625 6.12522 0.515395 6.05967C0.518497 5.94496 0.524703 5.81081 0.547482 5.68469C0.566853 5.57625 0.596563 5.4851 0.641222 5.39739C0.685257 5.3107 0.742763 5.23156 0.812204 5.16213C0.881367 5.09294 0.960548 5.03542 1.04779 4.99105C1.13495 4.94667 1.22625 4.91687 1.33496 4.89731C1.46021 4.87481 1.59463 4.8686 1.70976 4.86548C1.77539 4.8637 1.84101 4.86299 1.90614 4.86254L2.14932 4.86206H21.8507Z" fill="white"/>
<path d="M6.55184 9.51775C6.75733 9.26071 6.89678 8.9156 6.86 8.56293C6.55919 8.57789 6.1921 8.76139 5.97957 9.01862C5.78875 9.2389 5.61985 9.59847 5.66388 9.93635C6.00156 9.96564 6.33893 9.76756 6.55184 9.51775Z" fill="black"/>
<path d="M6.85617 10.0023C6.36577 9.97311 5.94882 10.2807 5.71463 10.2807C5.48031 10.2807 5.12169 10.017 4.73382 10.0242C4.22897 10.0316 3.76053 10.317 3.50435 10.771C2.97741 11.6792 3.36529 13.0264 3.8777 13.7661C4.12654 14.132 4.42644 14.535 4.8216 14.5205C5.19495 14.5058 5.3413 14.2787 5.79513 14.2787C6.24863 14.2787 6.38045 14.5205 6.77567 14.5132C7.18552 14.5058 7.44176 14.147 7.69059 13.7807C7.97606 13.3636 8.09292 12.9608 8.10027 12.9387C8.09292 12.9313 7.30995 12.631 7.30269 11.7303C7.2953 10.9762 7.91741 10.6175 7.94669 10.5952C7.59538 10.0756 7.04647 10.017 6.85617 10.0023Z" fill="black"/>
<path d="M11.1261 8.98173C12.192 8.98173 12.9342 9.71644 12.9342 10.7861C12.9342 11.8596 12.1767 12.5982 11.0994 12.5982H9.9193V14.4749H9.06666V8.98173L11.1261 8.98173ZM9.9193 11.8825H10.8976C11.64 11.8825 12.0625 11.4828 12.0625 10.79C12.0625 10.0972 11.64 9.70124 10.9015 9.70124H9.9193V11.8825Z" fill="black"/>
<path d="M13.157 13.3367C13.157 12.6362 13.6937 12.2061 14.6455 12.1528L15.7418 12.0881V11.7798C15.7418 11.3343 15.441 11.0679 14.9386 11.0679C14.4627 11.0679 14.1657 11.2962 14.0935 11.6541H13.3169C13.3626 10.9308 13.9792 10.3978 14.969 10.3978C15.9397 10.3978 16.5602 10.9118 16.5602 11.715V14.4749H15.7722V13.8163H15.7532C15.521 14.2617 15.0147 14.5434 14.4894 14.5434C13.7052 14.5434 13.157 14.0561 13.157 13.3367ZM15.7418 12.9751V12.6591L14.7558 12.72C14.2647 12.7543 13.9869 12.9713 13.9869 13.3139C13.9869 13.664 14.2762 13.8925 14.7177 13.8925C15.2925 13.8925 15.7418 13.4966 15.7418 12.9751Z" fill="black"/>
<path d="M17.3041 15.9482V15.2819C17.3649 15.2971 17.5019 15.2971 17.5705 15.2971C17.9512 15.2971 18.1568 15.1373 18.2823 14.7262C18.2823 14.7185 18.3547 14.4825 18.3547 14.4787L16.9082 10.4702H17.7989L18.8116 13.7288H18.8267L19.8394 10.4702H20.7073L19.2074 14.6842C18.8649 15.655 18.469 15.9672 17.6391 15.9672C17.5705 15.9672 17.3649 15.9595 17.3041 15.9482Z" fill="black"/>
</svg>
