<svg width="24" height="24" viewBox="0 0 24 24" fill="none" xmlns="http://www.w3.org/2000/svg">
<path d="M8.73257 8.43128L5.72137 15.6157H3.75679L2.27496 9.8822C2.185 9.52905 2.10678 9.39968 1.83317 9.25089C1.38671 9.00856 0.649031 8.78131 0 8.6402L0.0440833 8.43128H3.20646C3.60956 8.43128 3.97193 8.69961 4.06345 9.16381L4.84605 13.3211L6.78021 8.43128H8.73257ZM16.4303 13.27C16.4382 11.3738 13.8083 11.2694 13.8264 10.4223C13.832 10.1645 14.0774 9.89046 14.6147 9.8205C14.881 9.78564 15.6147 9.75905 16.4469 10.142L16.7733 8.61851C16.3262 8.4562 15.7508 8.29999 15.0349 8.29999C13.1979 8.29999 11.9051 9.27653 11.8942 10.6749C11.8824 11.7091 12.817 12.2863 13.5211 12.63C14.2455 12.9819 14.4886 13.2081 14.4858 13.5229C14.4807 14.0048 13.9081 14.2176 13.3729 14.226C12.4388 14.2403 11.8967 13.9732 11.4647 13.7723L11.1278 15.3463C11.5621 15.5455 12.3636 15.7193 13.1946 15.728C15.1471 15.728 16.4243 14.7636 16.4303 13.27ZM21.2811 15.6158H23L21.4996 8.43128H19.9131C19.5563 8.43128 19.2554 8.639 19.1222 8.95836L16.3334 15.6157H18.2849L18.6724 14.5425H21.0569L21.2811 15.6158ZM19.2074 13.0701L20.1856 10.3726L20.7486 13.0701H19.2074ZM11.3881 8.43128L9.85131 15.6157H7.99286L9.53027 8.43128H11.3881Z" fill="#1A1A1A"/>
</svg>
