<svg width="24" height="24" viewBox="0 0 24 24" fill="none" xmlns="http://www.w3.org/2000/svg">
<path d="M16.7733 19.2277H7.23109C3.24422 19.2277 0.00146484 15.985 0.00146484 11.9986C0.00146484 8.01225 3.24422 4.76999 7.23059 4.76999H16.7728C20.7587 4.76999 24.0015 8.01275 24.0015 11.9986C24.0015 15.9845 20.7587 19.2277 16.7728 19.2277M7.23059 4.91412C3.32402 4.91412 0.1451 8.09254 0.1451 11.9986C0.1451 15.9047 3.32352 19.0841 7.23059 19.0841H16.7728C20.6794 19.0841 23.8573 15.9057 23.8573 11.9986C23.8573 8.09155 20.6799 4.91412 16.7733 4.91412H7.23109H7.23059Z" fill="#221F20"/>
<path d="M7.23078 4.91409C3.32421 4.91409 0.145294 8.09251 0.145294 11.9986C0.145294 15.9047 3.32372 19.0841 7.23078 19.0841H16.773C20.6796 19.0841 23.8575 15.9057 23.8575 11.9986C23.8575 8.09152 20.6801 4.91409 16.7735 4.91409H7.23128H7.23078Z" fill="white"/>
<path d="M18.4414 11.5662L21.6144 15.3401C22.2717 14.3905 22.6577 13.2389 22.6577 11.9991C22.6577 10.6904 22.2278 9.48 21.5022 8.50149L18.4414 11.5662Z" fill="#D03733"/>
<path d="M9.44928 8.18284C11.8188 8.18284 13.6042 8.7858 13.7883 10.7822L16.2819 8.18234H21.2478C20.1675 6.91805 18.5621 6.11459 16.7727 6.11459H7.23042C5.44047 6.11459 3.83455 6.91755 2.7543 8.18234L9.44928 8.18284Z" fill="#D03733"/>
<path d="M5.54543 10.6994L4.69908 13.026H8.1134C9.12284 13.026 9.42806 12.6081 9.65399 11.8036C9.87742 11.0081 9.31585 10.6994 8.6261 10.6994H5.54543Z" fill="#D03733"/>
<path d="M16.3031 15.6573L13.6653 12.3243C13.1775 14.597 11.5811 15.6573 8.58817 15.6573H2.62433C3.70309 17.0128 5.36736 17.8841 7.23062 17.8841H16.7729C18.6361 17.8841 20.2994 17.0138 21.3782 15.6578L16.3031 15.6573Z" fill="#D03733"/>
</svg>
