<svg width="24" height="24" viewBox="0 0 24 24" fill="none" xmlns="http://www.w3.org/2000/svg">
<path d="M8.7002 6.48917C7.48157 6.48917 6.48941 7.48132 6.48941 8.69995C6.48941 9.91858 7.48157 10.9107 8.7002 10.9107C9.91882 10.9107 10.911 9.91858 10.911 8.69995C10.911 7.48132 9.91882 6.48917 8.7002 6.48917Z" fill="#1A1A1A"/>
<path d="M6.48941 15.2947C6.48941 14.076 7.48157 13.0839 8.7002 13.0839C9.91882 13.0839 10.911 14.076 10.911 15.2947C10.911 16.5133 9.91882 17.5054 8.7002 17.5054C7.48157 17.5054 6.48941 16.5133 6.48941 15.2947Z" fill="#1A1A1A"/>
<path d="M13.089 15.2947C13.089 14.076 14.0812 13.0839 15.2998 13.0839C16.5184 13.0839 17.5106 14.076 17.5106 15.2947C17.5106 16.5133 16.5184 17.5054 15.2998 17.5054C14.0812 17.5054 13.089 16.5133 13.089 15.2947Z" fill="#1A1A1A"/>
<path d="M1 4.3C1 2.47746 2.47746 1 4.3 1H19.7C21.5225 1 23 2.47746 23 4.3V19.7C23 21.5225 21.5225 23 19.7 23H4.3C2.47746 23 1 21.5225 1 19.7V4.3ZM8.7002 11.45C10.2208 11.45 11.4502 10.2151 11.4502 8.69995C11.4502 7.18475 10.2154 5.94995 8.7002 5.94995C7.185 5.94995 5.9502 7.18475 5.9502 8.69995C5.9502 10.2151 7.185 11.45 8.7002 11.45ZM5.9502 15.3C5.9502 16.8152 7.185 18.05 8.7002 18.05C10.2208 18.05 11.4502 16.8152 11.4502 15.3C11.4502 13.7849 10.2154 12.55 8.7002 12.55C7.185 12.55 5.9502 13.7849 5.9502 15.3ZM15.2998 11.45C16.815 11.45 18.0498 10.2205 18.0498 8.69995C18.0498 7.18475 16.815 5.94995 15.2998 5.94995C13.7846 5.94995 12.5498 7.18475 12.5498 8.69995C12.5498 10.2151 13.7846 11.45 15.2998 11.45ZM12.5498 15.3C12.5498 16.8152 13.7846 18.05 15.2998 18.05C16.815 18.05 18.0498 16.8152 18.0498 15.3C18.0498 13.7849 16.815 12.55 15.2998 12.55C13.7846 12.55 12.5498 13.7849 12.5498 15.3Z" fill="#1A1A1A"/>
</svg>
