<svg width="24" height="24" viewBox="0 0 24 24" fill="none" xmlns="http://www.w3.org/2000/svg">
<path d="M0.00613604 15.7569L0.251935 15.7322C0.267049 15.8149 0.296481 15.8762 0.341823 15.9152C0.387164 15.9542 0.448415 15.9732 0.52478 15.9732C0.605917 15.9732 0.667964 15.9557 0.709328 15.9215C0.750692 15.8873 0.771374 15.8468 0.771374 15.8006C0.771374 15.7712 0.762624 15.7457 0.745124 15.7251C0.727624 15.7044 0.697396 15.6861 0.654441 15.671C0.625008 15.6606 0.557394 15.6423 0.452392 15.6169C0.317163 15.5835 0.222503 15.5421 0.167616 15.4936C0.0912509 15.4252 0.0522731 15.3409 0.0522731 15.2422C0.0522731 15.1786 0.0705688 15.1189 0.106365 15.064C0.142161 15.0083 0.194661 14.9662 0.263071 14.9375C0.331482 14.9089 0.413415 14.8938 0.509666 14.8938C0.667168 14.8938 0.784897 14.928 0.864444 14.9972C0.94399 15.0664 0.985354 15.1587 0.989332 15.274L0.735578 15.2836C0.724442 15.2191 0.701373 15.173 0.665577 15.1444C0.629781 15.1157 0.576485 15.1022 0.505689 15.1022C0.434892 15.1022 0.374437 15.1173 0.333072 15.1476C0.306027 15.1666 0.293299 15.1929 0.293299 15.2255C0.293299 15.2549 0.306027 15.2804 0.330686 15.3019C0.362505 15.3289 0.439665 15.3568 0.562962 15.3854C0.686259 15.414 0.776942 15.4443 0.835807 15.4753C0.894671 15.5063 0.940808 15.5493 0.974218 15.6026C1.00763 15.6567 1.02433 15.7235 1.02433 15.803C1.02433 15.8754 1.00445 15.9422 0.964672 16.0051C0.924899 16.0679 0.868421 16.1148 0.795238 16.1451C0.722055 16.1753 0.631372 16.1912 0.522393 16.1912C0.364096 16.1912 0.242389 16.1546 0.157275 16.0806C0.0721597 16.0067 0.0212499 15.8993 0.00534058 15.7585L0.00613604 15.7569Z" fill="#1953A0"/>
<path d="M1.28859 15.1356V14.9144H1.52961V15.1356H1.28859ZM1.28859 16.1673V15.2597H1.52961V16.1673H1.28859Z" fill="#1953A0"/>
<path d="M2.65442 16.1673H2.41339V15.7035C2.41339 15.6057 2.40862 15.542 2.39828 15.5134C2.38794 15.4848 2.37123 15.4625 2.34816 15.4458C2.3251 15.4299 2.29725 15.4219 2.26544 15.4219C2.22407 15.4219 2.18668 15.4331 2.15407 15.4561C2.12146 15.4792 2.09839 15.5094 2.08646 15.5468C2.07452 15.5842 2.06816 15.6542 2.06816 15.756V16.1681H1.82713V15.2605H2.05066V15.3941C2.13021 15.2907 2.22964 15.2382 2.34976 15.2382C2.40305 15.2382 2.45078 15.2477 2.49533 15.2668C2.53908 15.2859 2.57249 15.3106 2.59476 15.34C2.61703 15.3694 2.63294 15.4036 2.64169 15.441C2.65044 15.4784 2.65521 15.5325 2.65521 15.6025L2.65442 16.1673Z" fill="#1953A0"/>
<path d="M2.92674 16.2269L3.20038 16.2572C3.20515 16.2906 3.21549 16.3144 3.2322 16.3272C3.25526 16.3455 3.29106 16.3542 3.34038 16.3542C3.40322 16.3542 3.45015 16.3447 3.48197 16.3264C3.50345 16.3137 3.51936 16.2938 3.5297 16.2659C3.53686 16.246 3.54084 16.2094 3.54084 16.1554V16.0225C3.47084 16.1196 3.38015 16.1681 3.27117 16.1681C3.14947 16.1681 3.05242 16.1164 2.98083 16.013C2.92515 15.931 2.8973 15.83 2.8973 15.7083C2.8973 15.5556 2.9339 15.4394 3.00708 15.3591C3.08026 15.2788 3.17174 15.2382 3.28072 15.2382C3.3897 15.2382 3.48595 15.2875 3.55913 15.3861V15.2605H3.78266V16.0758C3.78266 16.1832 3.77391 16.2635 3.75641 16.316C3.73891 16.3693 3.71425 16.4107 3.68163 16.4409C3.64981 16.4712 3.60686 16.495 3.55356 16.5117C3.50027 16.5284 3.43265 16.5372 3.35152 16.5372C3.19719 16.5372 3.08822 16.5109 3.02378 16.4576C2.95935 16.4043 2.92674 16.3375 2.92674 16.2556C2.92674 16.2476 2.92674 16.2381 2.92753 16.2262L2.92674 16.2269ZM3.1431 15.694C3.1431 15.7902 3.1614 15.861 3.19879 15.9064C3.23617 15.9509 3.28151 15.974 3.33561 15.974C3.39368 15.974 3.44299 15.9509 3.48277 15.9048C3.52254 15.8586 3.54322 15.791 3.54322 15.7003C3.54322 15.6097 3.52413 15.5365 3.48515 15.4903C3.44697 15.445 3.39845 15.4219 3.33958 15.4219C3.28072 15.4219 3.23538 15.4442 3.19879 15.4895C3.1614 15.5341 3.1431 15.6017 3.1431 15.694Z" fill="#1953A0"/>
<path d="M4.07028 16.1673V14.9144H4.31131V16.1673H4.07028Z" fill="#1953A0"/>
<path d="M5.13803 15.8817L5.37667 15.9215C5.34565 16.009 5.29713 16.0758 5.23031 16.1211C5.16349 16.1673 5.08076 16.1896 4.98053 16.1896C4.82224 16.1896 4.7053 16.1379 4.62894 16.0344C4.56928 15.9517 4.53905 15.8467 4.53905 15.7202C4.53905 15.5691 4.57882 15.4514 4.65757 15.3655C4.73632 15.2795 4.83576 15.2374 4.95667 15.2374C5.0919 15.2374 5.19929 15.2819 5.27724 15.3718C5.3552 15.4617 5.39258 15.5993 5.3894 15.7839H4.78564C4.78723 15.8555 4.80712 15.9111 4.84451 15.9509C4.88189 15.9907 4.92883 16.0106 4.98451 16.0106C5.02269 16.0106 5.05451 16.0002 5.07997 15.9803C5.10622 15.9597 5.12451 15.9271 5.13803 15.8817ZM5.15076 15.6383C5.14917 15.5675 5.13088 15.5142 5.09667 15.4768C5.06247 15.4402 5.02031 15.4219 4.97099 15.4219C4.91849 15.4219 4.87474 15.441 4.84053 15.48C4.80633 15.519 4.78883 15.5715 4.78962 15.6383H5.15076Z" fill="#1953A0"/>
<path d="M6.17813 16.1673V14.9144H7.10564V15.126H6.43188V15.4044H7.05871V15.616H6.43188V15.9565H7.1303V16.1681L6.17813 16.1673Z" fill="#1953A0"/>
<path d="M7.99189 16.1672V16.0312C7.95848 16.0797 7.91552 16.1179 7.86143 16.1466C7.80734 16.1752 7.75006 16.1895 7.6904 16.1895C7.63074 16.1895 7.57427 16.176 7.52574 16.149C7.47722 16.1219 7.44222 16.0845 7.41995 16.036C7.39847 15.9875 7.38733 15.9207 7.38733 15.8347V15.2596H7.62836V15.6772C7.62836 15.8053 7.63313 15.8833 7.64188 15.9119C7.65063 15.9405 7.66654 15.9636 7.6904 15.9803C7.71347 15.997 7.7437 16.0058 7.7795 16.0058C7.82086 16.0058 7.85745 15.9946 7.89007 15.9724C7.92268 15.9501 7.94495 15.9222 7.95689 15.8888C7.96882 15.8554 7.97518 15.7735 7.97518 15.6438V15.2604H8.21621V16.168H7.99268L7.99189 16.1672Z" fill="#1953A0"/>
<path d="M8.74541 16.1673H8.50438V15.2597H8.72791V15.3885C8.76609 15.3273 8.80029 15.2875 8.83132 15.2668C8.86154 15.2469 8.89654 15.2366 8.93552 15.2366C8.99041 15.2366 9.04291 15.2517 9.09382 15.2819L9.02064 15.4919C8.98007 15.4657 8.94189 15.4529 8.90768 15.4529C8.87348 15.4529 8.84563 15.4625 8.82177 15.4808C8.7987 15.4991 8.77961 15.5325 8.76609 15.581C8.75256 15.6295 8.7462 15.7314 8.7462 15.8857V16.1665L8.74541 16.1673Z" fill="#1953A0"/>
<path d="M9.19101 15.7011C9.19101 15.6208 9.2109 15.5436 9.24988 15.4689C9.28886 15.3941 9.34454 15.3368 9.41693 15.297C9.48931 15.2573 9.56966 15.2382 9.65875 15.2382C9.79636 15.2382 9.90852 15.2827 9.99682 15.3726C10.0843 15.4617 10.1289 15.5755 10.1289 15.7115C10.1289 15.8475 10.0843 15.9636 9.99603 16.0543C9.90773 16.145 9.79557 16.1904 9.66113 16.1904C9.57761 16.1904 9.49886 16.1713 9.42329 16.1339C9.34772 16.0965 9.29045 16.0408 9.25067 15.9676C9.2117 15.8944 9.19101 15.8061 9.19101 15.7011ZM9.43681 15.7139C9.43681 15.8046 9.45829 15.8738 9.50125 15.9215C9.5442 15.9692 9.5967 15.9939 9.65954 15.9939C9.72238 15.9939 9.77489 15.97 9.81784 15.9215C9.8608 15.8738 9.88148 15.8038 9.88148 15.7123C9.88148 15.6208 9.86 15.5548 9.81784 15.5063C9.77489 15.4585 9.72238 15.4339 9.65954 15.4339C9.5967 15.4339 9.54341 15.4577 9.50125 15.5063C9.45829 15.554 9.43681 15.6232 9.43681 15.7139Z" fill="#1953A0"/>
<path d="M10.9129 16.1673V14.9144H11.3186C11.4721 14.9144 11.5724 14.9208 11.6193 14.9335C11.6909 14.9526 11.7513 14.9932 11.7999 15.056C11.8484 15.1189 11.8723 15.2 11.8723 15.3002C11.8723 15.3774 11.8579 15.4418 11.8301 15.4943C11.8023 15.5468 11.7665 15.5882 11.7235 15.6176C11.6806 15.6479 11.6368 15.667 11.5923 15.6773C11.5318 15.6892 11.4443 15.6956 11.3305 15.6956H11.1659V16.1681H10.9121L10.9129 16.1673ZM11.1667 15.126V15.484H11.3051C11.4045 15.484 11.4713 15.4776 11.5048 15.4641C11.5382 15.4506 11.5644 15.4299 11.5835 15.4021C11.6026 15.3742 11.6121 15.3416 11.6121 15.3042C11.6121 15.2581 11.5986 15.2207 11.5724 15.1905C11.5453 15.161 11.5119 15.1419 11.4713 15.1348C11.4411 15.1292 11.3807 15.126 11.29 15.126H11.1667Z" fill="#1953A0"/>
<path d="M12.3064 15.5357L12.0901 15.4959C12.1147 15.4084 12.1569 15.3432 12.2165 15.301C12.2762 15.2589 12.3653 15.2374 12.483 15.2374C12.5904 15.2374 12.6699 15.2501 12.7224 15.2756C12.7749 15.301 12.8115 15.3336 12.833 15.3726C12.8545 15.4116 12.8648 15.4832 12.8648 15.5882L12.8624 15.869C12.8624 15.9485 12.8664 16.0082 12.8736 16.0456C12.8815 16.0838 12.8959 16.1243 12.9165 16.1673H12.6779C12.6715 16.1514 12.6636 16.1283 12.6548 16.0973C12.6509 16.083 12.6477 16.0742 12.6461 16.0694C12.6047 16.1092 12.561 16.1394 12.5148 16.1593C12.4679 16.1792 12.4186 16.1896 12.3653 16.1896C12.2722 16.1896 12.1982 16.1641 12.1441 16.1132C12.0901 16.0623 12.0638 15.9978 12.0638 15.9207C12.0638 15.8698 12.0757 15.8236 12.1004 15.7831C12.1251 15.7425 12.1593 15.7123 12.2038 15.6908C12.2483 15.6693 12.312 15.651 12.3947 15.6343C12.5069 15.6136 12.5848 15.5938 12.6278 15.5755V15.5516C12.6278 15.5047 12.6166 15.4713 12.5936 15.4514C12.5705 15.4315 12.5276 15.4219 12.4639 15.4219C12.421 15.4219 12.3876 15.4307 12.3637 15.4474C12.3398 15.4641 12.3199 15.4943 12.3056 15.5365L12.3064 15.5357ZM12.6294 15.7322C12.5984 15.7425 12.5498 15.7544 12.4838 15.7688C12.4178 15.7831 12.374 15.7974 12.3534 15.8109C12.3223 15.8332 12.3064 15.8618 12.3064 15.896C12.3064 15.9302 12.3191 15.9589 12.3438 15.9835C12.3685 16.0082 12.4003 16.0201 12.4393 16.0201C12.4822 16.0201 12.5236 16.0058 12.5626 15.9772C12.5912 15.9557 12.6103 15.9286 12.6198 15.8976C12.6262 15.8769 12.6294 15.838 12.6294 15.7799V15.7322Z" fill="#1953A0"/>
<path d="M13.0392 15.2596H13.2953L13.5125 15.904L13.7248 15.2596H13.973L13.5952 16.2921C13.5737 16.3454 13.5538 16.386 13.5347 16.4138C13.5156 16.4417 13.4934 16.4648 13.4687 16.4823C13.444 16.4998 13.413 16.5133 13.3772 16.5228C13.3406 16.5324 13.3001 16.5371 13.2547 16.5371C13.2094 16.5371 13.1632 16.5324 13.1187 16.5228L13.0964 16.3343C13.1338 16.3415 13.168 16.3454 13.199 16.3454C13.2555 16.3454 13.2969 16.3287 13.3239 16.2961C13.351 16.2627 13.3717 16.2205 13.386 16.1696L13.0392 15.2596Z" fill="#1953A0"/>
<path d="M14.1626 15.2597H14.3837V15.3837C14.4633 15.2859 14.5579 15.2374 14.6677 15.2374C14.7258 15.2374 14.7767 15.2493 14.8196 15.2732C14.8626 15.297 14.8976 15.3336 14.9254 15.3822C14.9652 15.3336 15.009 15.297 15.0543 15.2732C15.1004 15.2493 15.1498 15.2374 15.2023 15.2374C15.2691 15.2374 15.3256 15.2509 15.3717 15.278C15.4178 15.305 15.4528 15.3448 15.4751 15.3973C15.4918 15.4362 15.4998 15.4991 15.4998 15.5858V16.1673H15.2587V15.6478C15.2587 15.558 15.2508 15.4991 15.2341 15.4728C15.2118 15.4386 15.1776 15.4211 15.1315 15.4211C15.0981 15.4211 15.0662 15.4315 15.0368 15.4522C15.0074 15.4728 14.9859 15.5031 14.9732 15.5428C14.9604 15.5826 14.9533 15.6455 14.9533 15.7306V16.1673H14.7123V15.6693C14.7123 15.581 14.7083 15.5238 14.6995 15.4983C14.6908 15.4728 14.6781 15.4538 14.6598 15.441C14.6415 15.4283 14.6176 15.4219 14.5866 15.4219C14.55 15.4219 14.5166 15.4323 14.4863 15.4522C14.4569 15.472 14.4354 15.5007 14.4227 15.5389C14.41 15.5763 14.4036 15.6391 14.4036 15.7266V16.1681H14.1626V15.2597Z" fill="#1953A0"/>
<path d="M16.3176 15.8817L16.5562 15.9215C16.5252 16.009 16.4767 16.0758 16.4098 16.1211C16.343 16.1673 16.2603 16.1896 16.1601 16.1896C16.0018 16.1896 15.8848 16.1379 15.8085 16.0344C15.7488 15.9517 15.7186 15.8467 15.7186 15.7202C15.7186 15.5691 15.7583 15.4514 15.8371 15.3655C15.9158 15.2795 16.0153 15.2374 16.1362 15.2374C16.2714 15.2374 16.3788 15.2819 16.4568 15.3718C16.5347 15.4617 16.5729 15.5993 16.5689 15.7839H15.9652C15.9668 15.8555 15.9866 15.9111 16.024 15.9509C16.0614 15.9907 16.1076 16.0106 16.164 16.0106C16.2022 16.0106 16.234 16.0002 16.2595 15.9803C16.2857 15.9597 16.304 15.9271 16.3176 15.8817ZM16.3303 15.6383C16.3287 15.5675 16.3104 15.5142 16.2762 15.4768C16.242 15.4402 16.1998 15.4219 16.1505 15.4219C16.098 15.4219 16.0543 15.441 16.0201 15.48C15.9859 15.519 15.9691 15.5715 15.9691 15.6383H16.3303Z" fill="#1953A0"/>
<path d="M17.6416 16.1673H17.4006V15.7035C17.4006 15.6057 17.3958 15.542 17.3855 15.5134C17.3751 15.4848 17.3584 15.4625 17.3353 15.4458C17.3123 15.4299 17.2844 15.4219 17.2526 15.4219C17.2113 15.4219 17.1739 15.4331 17.1413 15.4561C17.1086 15.4792 17.0856 15.5094 17.0736 15.5468C17.0617 15.5842 17.0553 15.6542 17.0553 15.756V16.1681H16.8143V15.2605H17.0378V15.3941C17.1174 15.2907 17.2168 15.2382 17.3369 15.2382C17.3902 15.2382 17.4388 15.2477 17.4825 15.2668C17.5263 15.2859 17.5597 15.3106 17.5819 15.34C17.6042 15.3694 17.6201 15.4036 17.6289 15.441C17.6376 15.4784 17.6424 15.5325 17.6424 15.6025L17.6416 16.1673Z" fill="#1953A0"/>
<path d="M18.3531 15.2596V15.4513H18.1892V15.8181C18.1892 15.892 18.1908 15.9358 18.194 15.9477C18.1972 15.9596 18.2043 15.97 18.2147 15.9779C18.2258 15.9859 18.2385 15.9899 18.2544 15.9899C18.2767 15.9899 18.3077 15.9819 18.3491 15.9668L18.3706 16.1529C18.3149 16.1768 18.2521 16.1887 18.1821 16.1887C18.1391 16.1887 18.1001 16.1816 18.0659 16.1673C18.0317 16.1529 18.0063 16.1339 17.9895 16.1108C17.9736 16.0877 17.9625 16.0567 17.9561 16.0169C17.9514 15.9891 17.9482 15.9326 17.9482 15.8475V15.4505H17.8392V15.2588H17.9482V15.0775L18.1892 14.9359V15.2588L18.3531 15.2596Z" fill="#1953A0"/>
<path d="M18.488 15.9111L18.729 15.8738C18.7394 15.9199 18.7601 15.9557 18.7911 15.9796C18.8221 16.0034 18.8659 16.0154 18.9223 16.0154C18.9844 16.0154 19.0313 16.0042 19.0623 15.9811C19.083 15.9652 19.0942 15.9438 19.0942 15.9167C19.0942 15.8984 19.0886 15.8833 19.0767 15.8714C19.0647 15.8602 19.0377 15.8491 18.9955 15.8396C18.8006 15.7966 18.6773 15.7576 18.6248 15.7218C18.5524 15.6725 18.5166 15.6041 18.5166 15.5174C18.5166 15.4386 18.5477 15.3726 18.6105 15.3185C18.6734 15.2652 18.7696 15.2382 18.9009 15.2382C19.0321 15.2382 19.1188 15.2581 19.1793 15.2986C19.2397 15.3392 19.2819 15.3981 19.305 15.4768L19.079 15.519C19.0695 15.484 19.0504 15.4569 19.0234 15.4378C18.9963 15.4188 18.9565 15.41 18.9064 15.41C18.8428 15.41 18.7967 15.4188 18.7688 15.437C18.7505 15.4498 18.741 15.4657 18.741 15.4864C18.741 15.5039 18.7489 15.5182 18.7648 15.5301C18.7863 15.546 18.8619 15.5691 18.99 15.5977C19.1188 15.6272 19.2079 15.663 19.2588 15.7051C19.3089 15.7481 19.3344 15.8077 19.3344 15.8849C19.3344 15.9684 19.2994 16.0408 19.2302 16.1005C19.161 16.1609 19.0576 16.1904 18.9215 16.1904C18.7982 16.1904 18.7004 16.1657 18.628 16.1156C18.5556 16.0655 18.5087 15.9979 18.4864 15.9119L18.488 15.9111Z" fill="#1953A0"/>
<path d="M21.2686 16.1673H20.9958L20.8876 15.8841H20.3825L20.279 16.1673H20.011L20.4962 14.9144H20.7627L21.2686 16.1673ZM20.8041 15.6725L20.6291 15.208L20.4596 15.6725H20.8041Z" fill="#1953A0"/>
<path d="M21.6828 16.1673H21.4418V15.2597H21.6653V15.3885C21.7035 15.3273 21.7377 15.2875 21.7687 15.2668C21.7989 15.2469 21.8339 15.2366 21.8729 15.2366C21.9278 15.2366 21.9803 15.2517 22.0312 15.2819L21.958 15.4919C21.9175 15.4657 21.8793 15.4529 21.8451 15.4529C21.8109 15.4529 21.7822 15.4625 21.7592 15.4808C21.7361 15.4991 21.717 15.5325 21.7035 15.581C21.69 15.6295 21.6836 15.7314 21.6836 15.8857V16.1665L21.6828 16.1673Z" fill="#1953A0"/>
<path d="M22.7146 15.8817L22.9533 15.9215C22.9222 16.009 22.8737 16.0758 22.8069 16.1211C22.7401 16.1673 22.6573 16.1896 22.5571 16.1896C22.3988 16.1896 22.2819 16.1379 22.2055 16.0344C22.1459 15.9517 22.1156 15.8467 22.1156 15.7202C22.1156 15.5691 22.1554 15.4514 22.2342 15.3655C22.3129 15.2795 22.4123 15.2374 22.5332 15.2374C22.6685 15.2374 22.7751 15.2819 22.8538 15.3718C22.9318 15.4617 22.9692 15.5993 22.966 15.7839H22.3622C22.3638 15.8555 22.3837 15.9111 22.4211 15.9509C22.4585 15.9907 22.5054 16.0106 22.5611 16.0106C22.5993 16.0106 22.6311 16.0002 22.6565 15.9803C22.682 15.9597 22.7011 15.9271 22.7146 15.8817ZM22.7273 15.6383C22.7257 15.5675 22.7075 15.5142 22.6732 15.4768C22.639 15.4402 22.5969 15.4219 22.5476 15.4219C22.4951 15.4219 22.4513 15.441 22.4171 15.48C22.3829 15.519 22.3654 15.5715 22.3662 15.6383H22.7273Z" fill="#1953A0"/>
<path d="M23.3901 15.5357L23.1737 15.4959C23.1984 15.4084 23.2405 15.3432 23.3002 15.301C23.3598 15.2589 23.4489 15.2374 23.5667 15.2374C23.674 15.2374 23.7536 15.2501 23.8061 15.2756C23.8586 15.301 23.8952 15.3336 23.9167 15.3726C23.9381 15.4116 23.9485 15.4832 23.9485 15.5882L23.9461 15.869C23.9461 15.9485 23.9501 16.0082 23.9572 16.0456C23.9652 16.0838 23.9795 16.1243 24.0002 16.1673H23.7615C23.7552 16.1514 23.7472 16.1283 23.7385 16.0973C23.7345 16.083 23.7313 16.0742 23.7297 16.0694C23.6884 16.1092 23.6446 16.1394 23.5985 16.1593C23.5515 16.1792 23.5022 16.1896 23.4489 16.1896C23.3559 16.1896 23.2819 16.1641 23.2278 16.1132C23.1737 16.0623 23.1474 15.9978 23.1474 15.9207C23.1474 15.8698 23.1594 15.8236 23.184 15.7831C23.2087 15.7425 23.2429 15.7123 23.2874 15.6908C23.332 15.6693 23.3956 15.651 23.4784 15.6343C23.5905 15.6136 23.6685 15.5938 23.7114 15.5755V15.5516C23.7114 15.5047 23.7003 15.4713 23.6772 15.4514C23.6542 15.4315 23.6112 15.4219 23.5476 15.4219C23.5046 15.4219 23.4712 15.4307 23.4473 15.4474C23.4235 15.4641 23.4036 15.4943 23.3893 15.5365L23.3901 15.5357ZM23.713 15.7322C23.682 15.7425 23.6335 15.7544 23.5674 15.7688C23.5006 15.7831 23.4577 15.7974 23.437 15.8109C23.406 15.8332 23.3901 15.8618 23.3901 15.896C23.3901 15.9302 23.4028 15.9589 23.4274 15.9835C23.4521 16.0082 23.4839 16.0201 23.5229 16.0201C23.5659 16.0201 23.6072 16.0058 23.6462 15.9772C23.6748 15.9557 23.6939 15.9286 23.7035 15.8976C23.7098 15.8769 23.713 15.838 23.713 15.7799V15.7322Z" fill="#1953A0"/>
<path d="M5.33042 9.99133H3.68857C3.68857 9.72166 3.65676 9.54109 3.59391 9.44882C3.49607 9.3128 3.22641 9.24439 2.78493 9.24439C2.34344 9.24439 2.07219 9.28336 1.93378 9.36211C1.79537 9.44087 1.72616 9.61189 1.72616 9.87599C1.72616 10.1146 1.78741 10.2721 1.91071 10.3469C1.99901 10.4002 2.11514 10.432 2.26071 10.4416L2.59163 10.4646C3.30118 10.5116 3.74426 10.545 3.92085 10.5641C4.48165 10.6205 4.88893 10.7701 5.1411 11.0119C5.33996 11.2004 5.45849 11.447 5.49587 11.7517C5.51815 11.9339 5.52928 12.1399 5.52928 12.369C5.52928 12.8972 5.47917 13.2838 5.37814 13.5288C5.19519 13.9782 4.78473 14.2622 4.14597 14.3815C3.8779 14.4316 3.46903 14.4571 2.91777 14.4571C1.99821 14.4571 1.35786 14.4022 0.995923 14.2924C0.552053 14.158 0.259322 13.8843 0.117729 13.4739C0.0389778 13.2448 0 12.8638 0 12.3308H1.64184C1.64184 12.3905 1.64184 12.4358 1.64184 12.4668C1.64184 12.7516 1.72377 12.9346 1.88684 13.0165C1.9998 13.073 2.13662 13.1024 2.29731 13.1056H2.90106C3.20891 13.1056 3.40539 13.0897 3.4905 13.0578C3.64164 12.9982 3.74028 12.9027 3.78801 12.7707C3.81346 12.6895 3.82539 12.5838 3.82539 12.4549C3.82539 12.1661 3.72039 11.9903 3.50959 11.9275C3.43084 11.9028 3.06493 11.8678 2.41185 11.8241C1.88684 11.7867 1.52252 11.7509 1.31888 11.7159C0.781147 11.6157 0.423188 11.4088 0.244208 11.0946C0.0867058 10.8274 0.00795466 10.4241 0.00795466 9.88394C0.00795466 9.47268 0.0501143 9.14336 0.135229 8.89518C0.220344 8.64699 0.357164 8.45926 0.54569 8.3304C0.822512 8.13232 1.17649 8.01698 1.60764 7.98198C1.96639 7.95096 2.36412 7.93505 2.80163 7.93505C3.4905 7.93505 3.9821 7.97482 4.27404 8.05357C4.98837 8.24528 5.34553 8.78302 5.34553 9.66678C5.34553 9.73917 5.33996 9.84735 5.32962 9.99212L5.33042 9.99133Z" fill="#1953A0"/>
<path d="M12.5501 14.457V7.90002H15.8378C16.2888 7.90002 16.6325 7.93662 16.8695 8.01059C17.4104 8.18003 17.7732 8.52685 17.9593 9.05106C18.0555 9.32629 18.1033 9.74073 18.1033 10.2936C18.1033 10.9586 18.05 11.4367 17.945 11.7278C17.7342 12.3029 17.2999 12.6346 16.6444 12.7205C16.5672 12.7333 16.2395 12.7452 15.6604 12.754L15.3677 12.7635H14.3153V14.4563H12.5509L12.5501 14.457ZM14.3145 11.2434H15.4146C15.763 11.2306 15.9754 11.2036 16.0518 11.1622C16.156 11.105 16.226 10.9904 16.261 10.8178C16.2833 10.7032 16.2944 10.533 16.2944 10.3063C16.2944 10.0287 16.2721 9.82346 16.2276 9.68903C16.1639 9.5013 16.012 9.38675 15.771 9.34459C15.7232 9.33823 15.6095 9.33504 15.4289 9.33504H14.3137L14.3145 11.2434Z" fill="#1953A0"/>
<path d="M21.8696 13.3235H19.5102L19.1928 14.457H17.3672L19.3368 7.90002H21.9984L23.9927 14.457H22.2053L21.8696 13.3235ZM21.5188 12.046L20.6923 9.20379L19.8897 12.046H21.5188Z" fill="#1953A0"/>
<path d="M10.1144 8.85059C10.808 8.85059 11.4579 9.16082 11.897 9.70094L11.9257 9.73594L11.9448 9.69537L12.325 8.88002L12.3337 8.86173L12.3194 8.84741C11.6942 8.25638 10.8709 7.93103 10.0022 7.93103C9.3237 7.93103 8.67062 8.1291 8.11379 8.50456C7.57049 8.87048 7.15287 9.38037 6.90787 9.97697L6.93412 9.95947H6.17445L6.16729 9.97538L5.72978 10.9148L5.71149 10.9546H6.7098L6.68195 10.9244C6.674 11.0222 6.67002 11.1081 6.67002 11.1901C6.67002 11.2951 6.67559 11.404 6.68593 11.5122L6.71377 11.4812H6.21661L6.20945 11.4971L5.77115 12.4365L5.75285 12.4763H6.95798L6.93253 12.4596C7.45594 13.6679 8.66187 14.4491 10.0038 14.4491C10.6768 14.4491 11.3251 14.2542 11.8795 13.8851L11.8923 13.8771V12.6362L11.8429 12.6927C11.4054 13.1907 10.777 13.4754 10.1176 13.4754C9.34199 13.4754 8.62289 13.0856 8.19573 12.4342L8.17266 12.4779H10.6227L10.6299 12.462L11.0682 11.5226L11.0872 11.4828H7.81549L7.84333 11.5066C7.82663 11.3929 7.81788 11.2776 7.81788 11.1646C7.81788 11.0874 7.82186 11.0087 7.82981 10.9315L7.80197 10.957H11.333L11.3402 10.9411L11.7777 10.0016L11.7968 9.96185H8.10584L8.1297 10.004C8.54096 9.29446 9.30301 8.85377 10.1192 8.85377L10.1144 8.85059ZM8.10107 10.0152H11.7483L11.7228 9.97538L11.2853 10.9148L11.3108 10.8989H7.77254L7.77015 10.9244C7.7622 11.0039 7.75822 11.0843 7.75822 11.163C7.75822 11.2791 7.76697 11.3969 7.78367 11.5138L7.78765 11.5377H11.0395L11.0141 11.4979L10.5758 12.4373L10.6012 12.4214H8.11698L8.14561 12.4652C8.58391 13.1334 9.31972 13.5319 10.1144 13.5319C10.7897 13.5319 11.4341 13.24 11.8827 12.7301L11.8334 12.7118V13.8628L11.8461 13.8398C11.3012 14.2025 10.6641 14.3942 10.0022 14.3942C8.68255 14.3942 7.49731 13.6266 6.98264 12.4389L6.97548 12.4222H5.79581L5.82126 12.4628L6.25877 11.5234L6.23331 11.5401H6.744L6.74082 11.509C6.73048 11.4032 6.72491 11.2966 6.72491 11.1924C6.72491 11.1129 6.72889 11.0278 6.73684 10.9315L6.73923 10.9013H5.75444L5.7799 10.9411L6.2182 10.0016L6.19274 10.0183H6.95321L6.96037 10.0008C7.20139 9.41378 7.61106 8.91343 8.14561 8.55308C8.69289 8.18478 9.33483 7.98989 10.0022 7.98989C10.8566 7.98989 11.6655 8.30967 12.2804 8.89116L12.2741 8.85854L11.8938 9.67469L11.9408 9.66912C11.4905 9.11548 10.8247 8.79809 10.1144 8.79809C9.27836 8.79809 8.498 9.24991 8.07641 9.97697L8.05175 10.0191H8.10107V10.0152Z" fill="#1953A0"/>
<path d="M10.1146 8.82274C10.8424 8.82274 11.4923 9.15842 11.9187 9.68343L12.2989 8.86808C11.7039 8.30569 10.8941 7.95886 10.0016 7.95886C8.61113 7.95886 7.42191 8.79887 6.93349 9.9873H6.19132L5.75302 10.9259H6.70758C6.70042 11.0127 6.69565 11.1002 6.69565 11.1892C6.69565 11.2966 6.70122 11.4032 6.71156 11.5082H6.23189L5.79439 12.4477H6.95577C7.4577 13.6067 8.63261 14.4196 10.0008 14.4196C10.6905 14.4196 11.3308 14.2128 11.8606 13.8596V12.7086C11.4334 13.1946 10.8098 13.5017 10.1138 13.5017C9.3 13.5017 8.58488 13.0825 8.16806 12.4477H10.5998L11.0381 11.5082H7.81089C7.79419 11.3953 7.78544 11.2799 7.78544 11.1622C7.78544 11.0827 7.78941 11.0039 7.79737 10.9259H11.3101L11.7477 9.9873H8.10044C8.50374 9.29127 9.25387 8.82274 10.1138 8.82274H10.1146Z" fill="#F5C445"/>
</svg>
