<svg width="24" height="24" viewBox="0 0 24 24" fill="none" xmlns="http://www.w3.org/2000/svg">
<path d="M9.62857 4.16999C9.12776 4.23515 8.45411 4.23487 7.90891 4.23018V6.03045H8.92685C10.3181 6.03045 13.6868 5.73086 14.6941 2.44833H12.5449C11.9112 3.69768 10.8293 4.01638 9.62857 4.16999Z" fill="#1A1A1A"/>
<path d="M23 3.86398V5.72351H20.904V11.2848H18.7145V5.72351H17.0751L15.6431 7.75888L18.4486 11.2848H15.726L14.2 9.21567L12.5958 11.2848L7.90887 11.2848V6.63955H10.0539V11.1127L12.8149 7.75888L11.6782 6.35093C11.8459 6.29502 12.0316 6.22284 12.1904 6.15575C12.7125 5.93525 13.171 5.59933 13.5813 5.26294L14.2 6.1469L15.8697 3.86401L23 3.86398ZM7.5035 9.03722C7.5035 5.87886 3.10429 7.22577 3.10429 5.98451C3.10429 5.55815 3.56867 5.38649 4.26101 5.38649C5.10902 5.38649 6.20294 5.67166 7.05122 5.94641V4.15451C6.34676 3.95236 5.34303 3.7224 4.25463 3.7224C1.80307 3.7224 1.00279 4.8756 1.00001 6.12393C0.992944 9.29255 5.32608 7.94318 5.32608 9.17409C5.32608 9.58855 4.86662 9.77473 3.9472 9.7754C3.04221 9.7754 2.0747 9.55583 1.08074 9.22789V11.0194C1.6259 11.2408 2.48746 11.4684 3.95604 11.4684C6.10333 11.4587 7.5035 10.8025 7.5035 9.03722Z" fill="#1A1A1A"/>
<path d="M2.647 16.4885C2.362 16.4885 2.107 16.418 1.882 16.277C1.657 16.136 1.48 15.9365 1.351 15.6785C1.222 15.4205 1.1575 15.122 1.1575 14.783C1.1575 14.444 1.222 14.1485 1.351 13.8965C1.48 13.6445 1.6585 13.451 1.8865 13.316C2.1145 13.178 2.371 13.109 2.656 13.109C2.914 13.109 3.1405 13.1555 3.3355 13.2485C3.5335 13.3385 3.6895 13.469 3.8035 13.64C3.9205 13.808 3.988 14.009 4.006 14.243H3.3715C3.3445 14.069 3.2725 13.9325 3.1555 13.8335C3.0385 13.7345 2.8825 13.685 2.6875 13.685C2.5045 13.685 2.3485 13.7315 2.2195 13.8245C2.0905 13.9145 1.9915 14.042 1.9225 14.207C1.8565 14.372 1.8235 14.564 1.8235 14.783C1.8235 15.008 1.8565 15.206 1.9225 15.377C1.9915 15.548 2.0905 15.68 2.2195 15.773C2.3485 15.866 2.5045 15.9125 2.6875 15.9125C2.8885 15.9125 3.046 15.8585 3.16 15.7505C3.274 15.6425 3.3445 15.5045 3.3715 15.3365H4.0015C3.9835 15.5795 3.916 15.788 3.799 15.962C3.685 16.133 3.529 16.2635 3.331 16.3535C3.133 16.4435 2.905 16.4885 2.647 16.4885Z" fill="#1A1A1A"/>
<path d="M5.45212 16.4615C5.22412 16.4615 5.01862 16.409 4.83562 16.304C4.65562 16.196 4.51462 16.049 4.41262 15.863C4.31362 15.674 4.26412 15.464 4.26412 15.233C4.26412 15.002 4.31362 14.7935 4.41262 14.6075C4.51462 14.4185 4.65562 14.2715 4.83562 14.1665C5.01862 14.0585 5.22412 14.0045 5.45212 14.0045C5.68012 14.0045 5.88412 14.0585 6.06412 14.1665C6.24712 14.2715 6.38812 14.4185 6.48712 14.6075C6.58912 14.7935 6.64012 15.002 6.64012 15.233C6.64012 15.464 6.58912 15.674 6.48712 15.863C6.38812 16.049 6.24712 16.196 6.06412 16.304C5.88412 16.409 5.68012 16.4615 5.45212 16.4615ZM5.45212 15.9665C5.56912 15.9665 5.67112 15.9365 5.75812 15.8765C5.84512 15.8165 5.91112 15.731 5.95612 15.62C6.00412 15.509 6.02812 15.38 6.02812 15.233C6.02812 15.086 6.00412 14.957 5.95612 14.846C5.91112 14.735 5.84512 14.6495 5.75812 14.5895C5.67112 14.5295 5.56912 14.4995 5.45212 14.4995C5.33512 14.4995 5.23312 14.5295 5.14612 14.5895C5.05912 14.6495 4.99162 14.735 4.94362 14.846C4.89862 14.957 4.87612 15.086 4.87612 15.233C4.87612 15.38 4.89862 15.509 4.94362 15.62C4.99162 15.731 5.05912 15.8165 5.14612 15.8765C5.23312 15.9365 5.33512 15.9665 5.45212 15.9665Z" fill="#1A1A1A"/>
<path d="M8.2142 14C8.2772 14 8.3372 14.006 8.3942 14.018V14.594C8.3342 14.588 8.2907 14.585 8.2637 14.585C8.0717 14.585 7.9277 14.6405 7.8317 14.7515C7.7357 14.8625 7.6877 15.0305 7.6877 15.2555V16.385H7.0532V14.063H7.6742L7.6652 14.3825C7.7162 14.2595 7.7882 14.165 7.8812 14.099C7.9742 14.033 8.0852 14 8.2142 14Z" fill="#1A1A1A"/>
<path d="M10.0634 14.0045C10.2404 14.0045 10.4009 14.054 10.5449 14.153C10.6889 14.249 10.8029 14.3885 10.8869 14.5715C10.9709 14.7545 11.0129 14.969 11.0129 15.215C11.0129 15.461 10.9694 15.6785 10.8824 15.8675C10.7984 16.0565 10.6799 16.2035 10.5269 16.3085C10.3769 16.4105 10.2059 16.4615 10.0139 16.4615C9.88489 16.4615 9.76639 16.436 9.65839 16.385C9.55339 16.337 9.46339 16.265 9.38839 16.169V17.303H8.75389V14.063H9.31639L9.33889 14.3645C9.49789 14.1245 9.73939 14.0045 10.0634 14.0045ZM9.87889 15.9035C9.98089 15.9035 10.0709 15.8765 10.1489 15.8225C10.2299 15.7655 10.2914 15.686 10.3334 15.584C10.3784 15.479 10.4009 15.356 10.4009 15.215C10.4009 15.077 10.3784 14.957 10.3334 14.855C10.2914 14.75 10.2299 14.6705 10.1489 14.6165C10.0709 14.5595 9.98089 14.531 9.87889 14.531C9.77689 14.531 9.68539 14.5595 9.60439 14.6165C9.52639 14.6705 9.46489 14.75 9.41989 14.855C9.37789 14.957 9.35689 15.077 9.35689 15.215C9.35689 15.353 9.37789 15.4745 9.41989 15.5795C9.46489 15.6815 9.52639 15.761 9.60439 15.818C9.68539 15.875 9.77689 15.9035 9.87889 15.9035Z" fill="#1A1A1A"/>
<path d="M12.4878 16.4615C12.2598 16.4615 12.0543 16.409 11.8713 16.304C11.6913 16.196 11.5503 16.049 11.4483 15.863C11.3493 15.674 11.2998 15.464 11.2998 15.233C11.2998 15.002 11.3493 14.7935 11.4483 14.6075C11.5503 14.4185 11.6913 14.2715 11.8713 14.1665C12.0543 14.0585 12.2598 14.0045 12.4878 14.0045C12.7158 14.0045 12.9198 14.0585 13.0998 14.1665C13.2828 14.2715 13.4238 14.4185 13.5228 14.6075C13.6248 14.7935 13.6758 15.002 13.6758 15.233C13.6758 15.464 13.6248 15.674 13.5228 15.863C13.4238 16.049 13.2828 16.196 13.0998 16.304C12.9198 16.409 12.7158 16.4615 12.4878 16.4615ZM12.4878 15.9665C12.6048 15.9665 12.7068 15.9365 12.7938 15.8765C12.8808 15.8165 12.9468 15.731 12.9918 15.62C13.0398 15.509 13.0638 15.38 13.0638 15.233C13.0638 15.086 13.0398 14.957 12.9918 14.846C12.9468 14.735 12.8808 14.6495 12.7938 14.5895C12.7068 14.5295 12.6048 14.4995 12.4878 14.4995C12.3708 14.4995 12.2688 14.5295 12.1818 14.5895C12.0948 14.6495 12.0273 14.735 11.9793 14.846C11.9343 14.957 11.9118 15.086 11.9118 15.233C11.9118 15.38 11.9343 15.509 11.9793 15.62C12.0273 15.731 12.0948 15.8165 12.1818 15.8765C12.2688 15.9365 12.3708 15.9665 12.4878 15.9665Z" fill="#1A1A1A"/>
<path d="M15.2498 14C15.3128 14 15.3728 14.006 15.4298 14.018V14.594C15.3698 14.588 15.3263 14.585 15.2993 14.585C15.1073 14.585 14.9633 14.6405 14.8673 14.7515C14.7713 14.8625 14.7233 15.0305 14.7233 15.2555V16.385H14.0888V14.063H14.7098L14.7008 14.3825C14.7518 14.2595 14.8238 14.165 14.9168 14.099C15.0098 14.033 15.1208 14 15.2498 14Z" fill="#1A1A1A"/>
<path d="M17.1586 16.385C17.1316 16.259 17.1151 16.181 17.1091 16.151C17.0281 16.247 16.9261 16.322 16.8031 16.376C16.6801 16.427 16.5436 16.4525 16.3936 16.4525C16.2316 16.4525 16.0891 16.424 15.9661 16.367C15.8461 16.307 15.7531 16.2245 15.6871 16.1195C15.6211 16.0115 15.5881 15.887 15.5881 15.746C15.5881 15.56 15.6466 15.4085 15.7636 15.2915C15.8836 15.1745 16.0606 15.092 16.2946 15.044L17.1046 14.882V14.711C17.1046 14.627 17.0716 14.564 17.0056 14.522C16.9396 14.48 16.8421 14.459 16.7131 14.459C16.5841 14.459 16.4866 14.483 16.4206 14.531C16.3546 14.579 16.3141 14.657 16.2991 14.765L15.7186 14.756C15.7396 14.501 15.8311 14.3135 15.9931 14.1935C16.1581 14.0705 16.3966 14.009 16.7086 14.009C17.0416 14.009 17.2921 14.0825 17.4601 14.2295C17.6281 14.3735 17.7121 14.588 17.7121 14.873V15.899C17.7121 16.01 17.7181 16.1045 17.7301 16.1825C17.7451 16.2605 17.7691 16.328 17.8021 16.385H17.1586ZM16.5736 15.9845C16.6756 15.9845 16.7656 15.965 16.8436 15.926C16.9246 15.884 16.9876 15.824 17.0326 15.746C17.0806 15.665 17.1046 15.569 17.1046 15.458V15.287L16.5106 15.413C16.4116 15.434 16.3366 15.47 16.2856 15.521C16.2346 15.569 16.2091 15.6305 16.2091 15.7055C16.2091 15.7895 16.2406 15.857 16.3036 15.908C16.3696 15.959 16.4596 15.9845 16.5736 15.9845Z" fill="#1A1A1A"/>
<path d="M18.9975 14.5175V15.656C18.9975 15.734 19.014 15.791 19.047 15.827C19.083 15.86 19.14 15.8765 19.218 15.8765H19.4295V16.385H19.0155C18.8595 16.385 18.7335 16.364 18.6375 16.322C18.5415 16.277 18.471 16.2065 18.426 16.1105C18.384 16.0145 18.363 15.8885 18.363 15.7325V14.5175L18.048 14.531V14.063L18.363 14.072V13.3475H18.9975V14.0765L19.4295 14.063V14.531L18.9975 14.5175Z" fill="#1A1A1A"/>
<path d="M21.9981 15.413H20.3151C20.3271 15.587 20.3811 15.7235 20.4771 15.8225C20.5731 15.9215 20.7006 15.971 20.8596 15.971C21.0846 15.971 21.2346 15.8705 21.3096 15.6695L21.9396 15.7145C21.8616 15.9635 21.7311 16.151 21.5481 16.277C21.3651 16.4 21.1401 16.4615 20.8731 16.4615C20.6241 16.4615 20.4081 16.4075 20.2251 16.2995C20.0421 16.1915 19.9026 16.0445 19.8066 15.8585C19.7106 15.6695 19.6626 15.455 19.6626 15.215C19.6626 14.987 19.7091 14.7815 19.8021 14.5985C19.8951 14.4155 20.0271 14.2715 20.1981 14.1665C20.3721 14.0585 20.5746 14.0045 20.8056 14.0045C21.0366 14.0045 21.2421 14.057 21.4221 14.162C21.6021 14.267 21.7431 14.417 21.8451 14.612C21.9471 14.807 21.9981 15.038 21.9981 15.305V15.413ZM20.8281 14.468C20.6841 14.468 20.5656 14.5145 20.4726 14.6075C20.3796 14.6975 20.3256 14.822 20.3106 14.981H21.3411C21.3231 14.819 21.2691 14.693 21.1791 14.603C21.0891 14.513 20.9721 14.468 20.8281 14.468Z" fill="#1A1A1A"/>
<path d="M2.647 21.4885C2.362 21.4885 2.107 21.418 1.882 21.277C1.657 21.136 1.48 20.9365 1.351 20.6785C1.222 20.4205 1.1575 20.122 1.1575 19.783C1.1575 19.444 1.222 19.1485 1.351 18.8965C1.48 18.6445 1.6585 18.451 1.8865 18.316C2.1145 18.178 2.371 18.109 2.656 18.109C2.914 18.109 3.1405 18.1555 3.3355 18.2485C3.5335 18.3385 3.6895 18.469 3.8035 18.64C3.9205 18.808 3.988 19.009 4.006 19.243H3.3715C3.3445 19.069 3.2725 18.9325 3.1555 18.8335C3.0385 18.7345 2.8825 18.685 2.6875 18.685C2.5045 18.685 2.3485 18.7315 2.2195 18.8245C2.0905 18.9145 1.9915 19.042 1.9225 19.207C1.8565 19.372 1.8235 19.564 1.8235 19.783C1.8235 20.008 1.8565 20.206 1.9225 20.377C1.9915 20.548 2.0905 20.68 2.2195 20.773C2.3485 20.866 2.5045 20.9125 2.6875 20.9125C2.8885 20.9125 3.046 20.8585 3.16 20.7505C3.274 20.6425 3.3445 20.5045 3.3715 20.3365H4.0015C3.9835 20.5795 3.916 20.788 3.799 20.962C3.685 21.133 3.529 21.2635 3.331 21.3535C3.133 21.4435 2.905 21.4885 2.647 21.4885Z" fill="#1A1A1A"/>
<path d="M5.80312 21.385C5.77612 21.259 5.75962 21.181 5.75362 21.151C5.67262 21.247 5.57062 21.322 5.44762 21.376C5.32462 21.427 5.18812 21.4525 5.03812 21.4525C4.87612 21.4525 4.73362 21.424 4.61062 21.367C4.49062 21.307 4.39762 21.2245 4.33162 21.1195C4.26562 21.0115 4.23262 20.887 4.23262 20.746C4.23262 20.56 4.29112 20.4085 4.40812 20.2915C4.52812 20.1745 4.70512 20.092 4.93912 20.044L5.74912 19.882V19.711C5.74912 19.627 5.71612 19.564 5.65012 19.522C5.58412 19.48 5.48662 19.459 5.35762 19.459C5.22862 19.459 5.13112 19.483 5.06512 19.531C4.99912 19.579 4.95862 19.657 4.94362 19.765L4.36312 19.756C4.38412 19.501 4.47562 19.3135 4.63762 19.1935C4.80262 19.0705 5.04112 19.009 5.35312 19.009C5.68612 19.009 5.93662 19.0825 6.10462 19.2295C6.27262 19.3735 6.35662 19.588 6.35662 19.873V20.899C6.35662 21.01 6.36262 21.1045 6.37462 21.1825C6.38962 21.2605 6.41362 21.328 6.44662 21.385H5.80312ZM5.21812 20.9845C5.32012 20.9845 5.41012 20.965 5.48812 20.926C5.56912 20.884 5.63212 20.824 5.67712 20.746C5.72512 20.665 5.74912 20.569 5.74912 20.458V20.287L5.15512 20.413C5.05612 20.434 4.98112 20.47 4.93012 20.521C4.87912 20.569 4.85362 20.6305 4.85362 20.7055C4.85362 20.7895 4.88512 20.857 4.94812 20.908C5.01412 20.959 5.10412 20.9845 5.21812 20.9845Z" fill="#1A1A1A"/>
<path d="M8.056 19C8.119 19 8.179 19.006 8.236 19.018V19.594C8.176 19.588 8.1325 19.585 8.1055 19.585C7.9135 19.585 7.7695 19.6405 7.6735 19.7515C7.5775 19.8625 7.5295 20.0305 7.5295 20.2555V21.385H6.895V19.063H7.516L7.507 19.3825C7.558 19.2595 7.63 19.165 7.723 19.099C7.816 19.033 7.927 19 8.056 19Z" fill="#1A1A1A"/>
<path d="M10.0942 18.181H10.7287V21.385H10.1662L10.1437 21.097C9.98468 21.34 9.75968 21.4615 9.46868 21.4615C9.27668 21.4615 9.10418 21.4105 8.95118 21.3085C8.80118 21.2035 8.68268 21.0565 8.59568 20.8675C8.51168 20.6785 8.46968 20.461 8.46968 20.215C8.46968 19.969 8.51168 19.7545 8.59568 19.5715C8.67968 19.3885 8.79368 19.249 8.93768 19.153C9.08168 19.054 9.24218 19.0045 9.41918 19.0045C9.71018 19.0045 9.93518 19.102 10.0942 19.297V18.181ZM9.60368 20.9035C9.70568 20.9035 9.79568 20.875 9.87368 20.818C9.95468 20.761 10.0162 20.6815 10.0582 20.5795C10.1032 20.4745 10.1257 20.353 10.1257 20.215C10.1257 20.077 10.1032 19.957 10.0582 19.855C10.0162 19.75 9.95468 19.6705 9.87368 19.6165C9.79568 19.5595 9.70568 19.531 9.60368 19.531C9.50168 19.531 9.41018 19.5595 9.32918 19.6165C9.25118 19.6705 9.18968 19.75 9.14468 19.855C9.10268 19.957 9.08168 20.077 9.08168 20.215C9.08168 20.356 9.10268 20.479 9.14468 20.584C9.18968 20.686 9.25118 20.7655 9.32918 20.8225C9.41018 20.8765 9.50168 20.9035 9.60368 20.9035Z" fill="#1A1A1A"/>
</svg>
