<svg width="24" height="24" viewBox="0 0 24 24" fill="none" xmlns="http://www.w3.org/2000/svg">
<path d="M8.67887 17.5979H8.3305L8.33005 17.2107H8.67647C8.80285 17.2107 8.89884 17.2516 8.89884 17.4013C8.89884 17.5313 8.81845 17.5979 8.67887 17.5979Z" fill="#1A1A1A"/>
<path d="M11.7713 17.7675H12.1682L11.9801 17.24H11.9603L11.7713 17.7675Z" fill="#1A1A1A"/>
<path d="M19.5717 17.7675H19.1748L19.364 17.24H19.3838L19.5717 17.7675Z" fill="#1A1A1A"/>
<path d="M15.6616 17.6416C15.6616 17.8839 15.7746 18.1074 16.0384 18.1074C16.3054 18.1074 16.42 17.8897 16.42 17.6453C16.42 17.4096 16.3054 17.1706 16.0382 17.1706C15.7792 17.1705 15.6616 17.3979 15.6616 17.6416Z" fill="#1A1A1A"/>
<path d="M0.0010643 16.4339H24.0001V18.9001H0.0010643V16.4339ZM2.61196 17.051H2.41936V18.2264H2.61196V17.051ZM14.5828 17.051V18.2264H14.775V17.051H14.5828ZM3.64286 17.051H3.44209V18.2265H3.62673V17.3406L3.63551 17.3402L4.18668 18.2264H4.3843V17.051H4.19905V17.9373H4.19088L3.64286 17.051ZM9.83993 17.051V18.2265H10.0245V17.3406L10.0331 17.3402L10.5842 18.2264H10.7821V17.051H10.5968V17.9373H10.5886L10.0406 17.051H9.83993ZM17.4365 17.051H17.236V18.2265H17.4206V17.3406L17.4292 17.3402L17.9804 18.2264H18.1784V17.051H17.993V17.9373H17.9848L17.4365 17.051ZM5.02517 17.051V17.2169H5.40204V18.2264H5.58541V17.2169H5.96453V17.051H5.02517ZM13.8945 17.051H12.955V17.2169H13.3318V18.2264H13.5151V17.2169H13.8945V17.051ZM6.56883 17.051V18.2264H7.41647V18.0659H6.76226V17.6963H7.35708L7.35752 17.5424H6.76083L6.76038 17.2159H7.40387V17.051H6.56883ZM8.69087 17.0508H8.14765V18.2263H8.3326V17.7298H8.6452C8.83442 17.7298 8.89697 17.8364 8.89382 18.0536C8.89292 18.111 8.89382 18.1753 8.92509 18.2263H9.12197C9.07794 18.1786 9.05919 18.055 9.05919 17.918C9.05919 17.7321 8.94939 17.6798 8.87897 17.6696L8.87919 17.665L8.8806 17.6645C8.92057 17.6504 9.07607 17.5956 9.07607 17.3728C9.07607 17.178 8.94759 17.0508 8.69087 17.0508ZM11.8757 17.051L11.4246 18.2264H11.6078L11.7254 17.9063H12.2123L12.3281 18.2264H12.5233L12.0704 17.051H11.8757ZM19.4739 17.051H19.2792L18.8281 18.2264H19.0115L19.1292 17.9063H19.616L19.7318 18.2264H19.9267L19.4739 17.051ZM16.598 17.6385C16.598 17.3026 16.3939 17.0252 16.0414 17.0253C15.6892 17.0253 15.4835 17.3045 15.4835 17.6403C15.4835 17.976 15.6892 18.2521 16.0414 18.2521C16.3939 18.2521 16.598 17.9747 16.598 17.6385ZM20.7862 17.051H20.6014V18.2264H21.3864V18.0592H20.7862V17.051Z" fill="#1A1A1A"/>
<path d="M4.23697 9.41074L3.43493 11.2212L5.10569 11.2388L4.23697 9.41074Z" fill="#1A1A1A"/>
<path d="M11.7923 10.8198C11.6966 10.8198 11.5779 10.8078 11.5779 10.8078V9.06717C11.5779 9.06717 11.7855 9.06019 11.9026 9.05794C13.1194 9.03769 13.1584 9.59441 13.1584 9.97774C13.1584 10.3548 13.1139 10.8198 11.7923 10.8198Z" fill="#1A1A1A"/>
<path d="M23.9989 5.10001V15.7663H0V5.10001H23.9989ZM6.85594 8.7703C6.85594 8.94077 6.99371 9.07855 7.16411 9.07855C7.33496 9.07855 7.47236 8.94077 7.47236 8.7703C7.47236 8.5999 7.33496 8.46213 7.16411 8.46213C6.98771 8.46213 6.85594 8.59998 6.85594 8.7703ZM5.95175 11.8808L4.47584 8.69922H4.25167L2.84476 11.7967C2.68539 12.1316 2.55909 12.2807 2.28354 12.2855V12.4954L3.44843 12.5001L3.44963 12.2855H3.39585C3.11581 12.2855 3.08716 12.2142 3.08716 12.0544C3.08716 11.9885 3.11431 11.8892 3.17491 11.7526L3.29483 11.4986H5.21159L5.39353 11.8679C5.42053 11.9285 5.43163 11.9884 5.43163 12.0378C5.43163 12.2255 5.31089 12.2806 5.00766 12.2855V12.4862L7.97813 12.4861V12.2909C7.65893 12.2854 7.48853 12.1917 7.48853 11.8834V9.76321L6.47979 9.76411L6.47934 9.95244L6.71192 9.97471C6.93361 9.98559 6.98964 10.303 6.98964 10.5836L6.98094 11.8669C6.98094 12.1914 6.85027 12.2795 6.49954 12.2908C6.37949 12.2886 6.24708 12.2774 6.1832 12.2218C6.10603 12.1554 6.02885 12.0454 5.95175 11.8808ZM9.80562 12.4862V12.2924C9.43115 12.2758 9.32555 12.2465 9.32555 11.9327C9.32555 11.9327 9.2894 10.6803 9.32555 10.5561C9.40152 10.2924 9.65637 10.127 9.77667 10.1142C10.0799 10.0812 10.146 10.3062 10.146 10.3062L10.4703 10.0296C10.4703 10.0296 10.3503 9.70618 9.98029 9.70618C9.6026 9.70618 9.3527 10.0629 9.2912 10.3042L9.29893 9.78725L8.32663 9.7934L8.32288 9.9452H8.41056C8.81122 9.94633 8.8097 10.2247 8.80817 10.5058L8.80798 10.5578L8.81721 11.9238C8.81721 12.254 8.64756 12.2706 8.30639 12.2922V12.4862H9.80562ZM12.1639 8.76395L10.5122 8.77355V8.96742C10.9854 8.98339 11.0261 9.10557 11.0515 9.22692V11.6981C11.0515 12.1935 10.9744 12.3199 10.5122 12.3199V12.4953H12.1525V12.3199C11.6628 12.3148 11.5856 12.2042 11.5856 11.6981V11.1095H11.8576C12.2871 11.1095 12.6982 11.075 12.9665 10.9988C13.5108 10.8253 13.7142 10.4009 13.7142 9.95509C13.7142 9.06897 13.0555 8.76395 12.1639 8.76395ZM15.2517 12.5048V12.2886C14.943 12.2825 14.7464 12.2308 14.7464 11.9221L14.7379 8.76395H13.731V8.93944L13.9159 8.94724C14.1853 8.94724 14.2485 9.06289 14.2485 9.34317L14.2393 11.8762C14.2393 12.2014 14.1118 12.2855 13.7599 12.2965V12.5048H15.2517ZM18.1165 11.7622V9.79218L17.1011 9.7936V9.9742C17.4705 9.9742 17.6095 10.0458 17.6095 10.3641C17.6095 10.3641 17.6648 11.5347 17.5616 11.8175C17.5031 11.9768 17.1482 12.4215 16.6303 12.2649C16.228 12.143 16.228 11.8958 16.228 11.4305V9.79218L15.2257 9.7936V9.9742H15.2484C15.6116 9.9742 15.7489 10.0729 15.7489 10.4305V11.4153C15.7489 12.2366 15.9283 12.4582 16.5567 12.5508C16.8941 12.6011 17.3507 12.5049 17.6323 12.0269V12.4964L18.6164 12.4854V12.2728C18.567 12.2778 18.4485 12.265 18.375 12.2466C18.1613 12.1931 18.1165 11.9993 18.1165 11.7622ZM19.1478 12.4862C19.1525 12.4674 19.1543 12.4453 19.1561 12.4232C19.1608 12.3674 19.1654 12.3118 19.2162 12.3118C19.261 12.3118 19.3076 12.3372 19.3687 12.3705C19.5097 12.4473 19.7283 12.5664 20.1827 12.5137C20.6463 12.46 21.0039 12.1591 21.0039 11.714C21.0039 11.4058 20.8968 11.2193 20.5612 11.0367C20.5612 11.0367 20.2844 10.9155 19.8497 10.7843C19.4281 10.6565 19.4202 10.4964 19.4156 10.4036C19.4152 10.3954 19.4148 10.3877 19.4142 10.3806C19.3958 10.178 19.6343 9.98764 19.8868 9.96492C20.165 9.93972 20.6591 10.0416 20.7363 10.4591H20.9433L20.9403 9.76047H20.7455C20.7426 9.76867 20.7394 9.77774 20.7362 9.7873C20.7152 9.84846 20.6873 9.92952 20.6444 9.92952C20.6162 9.92952 20.5691 9.90462 20.5062 9.87142C20.3729 9.801 20.1689 9.69322 19.9241 9.70632C19.4155 9.73392 18.9725 10.0623 18.9725 10.4757C18.9725 10.7784 19.1243 11.009 19.422 11.1559C19.6494 11.2685 19.911 11.3531 20.1032 11.4153C20.1635 11.4348 20.217 11.4521 20.2604 11.4674C20.4411 11.5299 20.5612 11.667 20.5612 11.8762C20.5612 12.1245 20.3083 12.2886 20.0154 12.2886C19.6692 12.2886 19.2832 12.2336 19.1574 11.7105H18.9746L18.9745 12.4862H19.1478Z" fill="#1A1A1A"/>
</svg>
