<svg width="24" height="24" viewBox="0 0 24 24" fill="none" xmlns="http://www.w3.org/2000/svg">
<path d="M15.7122 14.5004C18.2547 14.5004 19.5259 16.167 19.5259 16.167C19.5259 16.167 20.1837 15.3772 19.9496 14.917C19.5259 14.0837 17.8637 13.6704 16.136 13.6671C15.1294 13.6652 13.1698 13.6671 13.1698 13.6671L12.7461 12.0005L14.8648 12.4172L17.2292 9.76023C17.5539 9.39529 17.4944 8.83583 17.0999 8.54487L16.7931 8.31866C16.4269 8.04862 15.9088 8.11329 15.6229 8.46474L14.441 9.91729L10.6274 9.084C10.6274 9.084 10.2036 12.0005 10.2036 14.0837C10.2036 14.917 11.0511 14.917 11.8986 14.917C13.2327 14.917 14.3781 14.5004 15.7122 14.5004Z" fill="#1A1A1A"/>
<path d="M7.66115 20.3334H18.6784V22H7.66115V20.3334Z" fill="#1A1A1A"/>
<path d="M6.81366 19.5001H18.7844C19.3598 19.5001 19.7567 18.9517 19.5192 18.4363C18.9769 17.2591 17.9454 15.504 16.5597 15.3337C14.1968 15.0433 13.5935 15.7503 11.0511 15.7503C9.33273 15.7503 9.35611 14.917 9.35611 14.0837C9.35611 11.9063 9.77985 10.3642 9.77985 7.41742C9.77985 5.3342 8.63333 2.07817 5.96618 2.00104C4.48672 1.95825 3 3.25097 3 3.25097L6.81366 19.5001Z" fill="#1A1A1A"/>
<path d="M10.6273 5.75081C10.9083 6.85577 10.6274 8.66735 10.6274 8.66735C10.6274 8.66735 12.746 7.83403 12.746 5.75079C12.746 4.27047 11.373 3.44181 10.6273 3.25094C9.88165 3.06007 9.35619 3.25096 9.35619 3.25096C9.35619 3.25096 10.2036 4.08423 10.6273 5.75081Z" fill="#1A1A1A"/>
</svg>
