<svg width="24" height="24" viewBox="0 0 24 24" fill="none" xmlns="http://www.w3.org/2000/svg">
<path d="M3.3086 16.6966C3.3086 16.6966 3.3086 19.965 5.41865 20.5778C7.5287 21.1906 10.945 21.0885 15.4665 20.5778C16.3708 20.3735 16.9737 19.6586 17.1746 19.1479C17.3756 18.6372 17.7775 16.4923 17.7775 16.4923C17.7775 16.4923 17.5766 15.6752 18.3804 15.573C21.7966 14.9602 22.5 11.1811 22.5 11.1811C22.5 11.1811 16.3708 8.83192 13.256 13.326C13.3565 13.326 14.3612 13.9388 14.3612 14.8581C14.3612 15.7773 14.1603 16.7987 12.4521 16.6966C10.945 16.3901 11.3469 16.3901 10.0407 16.1859C8.73444 15.9816 6.02152 15.3688 3.40908 16.5944L3.3086 16.6966Z" fill="#1A1A1A"/>
<path d="M12.5526 16.0838C13.1076 16.0838 13.5574 15.6265 13.5574 15.0624C13.5574 14.4983 13.1076 14.041 12.5526 14.041C11.9977 14.041 11.5479 14.4983 11.5479 15.0624C11.5479 15.6265 11.9977 16.0838 12.5526 16.0838Z" fill="#1A1A1A"/>
<path d="M12.4522 13.0196C12.4522 13.0196 15.0646 8.32125 22.0981 10.364C22.0981 10.364 21.0933 4.74641 12.8541 4.44C12.8541 4.44 10.8445 8.52552 12.4522 13.0196Z" fill="#1A1A1A"/>
<path d="M2.00239 14.4495C2.00239 14.4495 5.21771 12.7132 10.4426 13.8367C10.6435 13.8367 6.82536 8.42336 11.2464 2.09079C11.2464 2.09079 11.4474 1.88651 11.8493 2.09079C12.2512 2.29507 12.0502 2.90789 12.0502 2.90789C12.0502 2.90789 8.23206 8.5255 11.9498 13.5303C11.9498 13.5303 10.4426 13.9388 11.0455 15.573C11.0455 15.573 6.82536 14.3474 2.30383 16.0837C2.30383 16.0837 1.5 16.0837 1.5 15.4709C1.5 14.8581 1.70096 14.4495 2.00239 14.4495Z" fill="#1A1A1A"/>
</svg>
