<svg width="24" height="24" viewBox="0 0 24 24" fill="none" xmlns="http://www.w3.org/2000/svg">
<path d="M4 3C4 2.44772 4.44772 2 5 2H7C7.55228 2 8 2.44772 8 3V4H16V3C16 2.44772 16.4477 2 17 2H19C19.5523 2 20 2.44772 20 3V7C20 7.55228 19.5523 8 19 8H17C16.4477 8 16 7.55228 16 7V6H13V18H16V17C16 16.4477 16.4477 16 17 16H19C19.5523 16 20 16.4477 20 17V21C20 21.5523 19.5523 22 19 22H17C16.4477 22 16 21.5523 16 21V20H8V21C8 21.5523 7.55228 22 7 22H5C4.44772 22 4 21.5523 4 21V17C4 16.4477 4.44772 16 5 16H7C7.55228 16 8 16.4477 8 17V18H11V6H8V7C8 7.55228 7.55228 8 7 8H5C4.44772 8 4 7.55228 4 7V3Z" fill="#1A1A1A"/>
</svg>
