<svg width="24" height="24" viewBox="0 0 24 24" fill="none" xmlns="http://www.w3.org/2000/svg">
<path d="M13.5 13H14V10C14 8.89543 14.8954 8 16 8H17.0279C18.543 8 19.928 8.85601 20.6056 10.2111L21.5364 12.0727C22.3805 12.3072 23 13.0812 23 14V17H21C21 18.6569 19.6569 20 18 20C16.3431 20 15 18.6569 15 17H8C8 18.6569 6.65685 20 5 20C3.34315 20 2 18.6569 2 17H0V13H12.5V7H13.5V13ZM17.0279 10H16V12H19.2639L18.8167 11.1056C18.4779 10.428 17.7854 10 17.0279 10ZM19 17C19 16.4477 18.5523 16 18 16C17.4477 16 17 16.4477 17 17C17 17.5523 17.4477 18 18 18C18.5523 18 19 17.5523 19 17ZM5 18C5.55228 18 6 17.5523 6 17C6 16.4477 5.55228 16 5 16C4.44772 16 4 16.4477 4 17C4 17.5523 4.44772 18 5 18Z" fill="#1A1A1A"/>
</svg>
