<svg width="24" height="24" viewBox="0 0 24 24" fill="none" xmlns="http://www.w3.org/2000/svg">
<path d="M0 6C0 4.89543 0.895431 4 2 4H14V13H0V6Z" fill="#1A1A1A"/>
<path d="M21.6443 7.78201C22.454 8.38014 23.0347 9.2799 23.2127 10.3344L23.6374 12.8513C23.8659 13.1763 24 13.5725 24 14V18H20.8293C20.4175 19.1652 19.3062 20 18 20C16.6938 20 15.5825 19.1652 15.1707 18H7.82929C7.41746 19.1652 6.30622 20 5 20C3.69378 20 2.58254 19.1652 2.17071 18H0V14H15V4.5C15 4.22386 15.2239 4 15.5 4H17.0515C17.2983 4 17.5363 4.09122 17.7199 4.25613L21.6443 7.78201ZM17 12H21.4655L21.2406 10.6672C21.0781 9.70467 20.2446 9 19.2684 9H17V12ZM19 17C19 16.4477 18.5523 16 18 16C17.4477 16 17 16.4477 17 17C17 17.5523 17.4477 18 18 18C18.5523 18 19 17.5523 19 17ZM5 18C5.55228 18 6 17.5523 6 17C6 16.4477 5.55228 16 5 16C4.44772 16 4 16.4477 4 17C4 17.5523 4.44772 18 5 18Z" fill="#1A1A1A"/>
</svg>
