<svg width="24" height="24" viewBox="0 0 24 24" fill="none" xmlns="http://www.w3.org/2000/svg">
<path d="M3 4C1.89543 4 1 4.89543 1 6V13H13V8C13 5.79086 11.2091 4 9 4H3Z" fill="#1A1A1A"/>
<path d="M14 9V14H1V17H2C2 18.6569 3.34315 20 5 20C6.65685 20 8 18.6569 8 17H15C15 18.6569 16.3431 20 18 20C19.6569 20 21 18.6569 21 17H23V14C23 13.1612 22.4836 12.4429 21.7513 12.1459L20.5486 9.39672C19.9116 7.94078 18.4731 7 16.8839 7H16C14.8954 7 14 7.89543 14 9ZM16.8839 9C17.6785 9 18.3978 9.47039 18.7163 10.1984L19.5045 12H16V9H16.8839ZM19 17C19 17.5523 18.5523 18 18 18C17.4477 18 17 17.5523 17 17C17 16.4477 17.4477 16 18 16C18.5523 16 19 16.4477 19 17ZM5 18C4.44772 18 4 17.5523 4 17C4 16.4477 4.44772 16 5 16C5.55228 16 6 16.4477 6 17C6 17.5523 5.55228 18 5 18Z" fill="#1A1A1A"/>
</svg>
