<svg width="24" height="24" viewBox="0 0 24 24" fill="none" xmlns="http://www.w3.org/2000/svg">
<path d="M1 6V17H2C2 18.6569 3.34315 20 5 20C6.65685 20 8 18.6569 8 17H15C15 18.6569 16.3431 20 18 20C19.6569 20 21 18.6569 21 17H23V14C23 13.0267 22.3047 12.2157 21.3837 12.0368L18.1371 6.08459C17.4361 4.79955 16.0892 4 14.6255 4H3C1.89543 4 1 4.89543 1 6ZM16.9036 8L19.0855 12H15L15 8L16.9036 8ZM19 17C19 17.5523 18.5523 18 18 18C17.4477 18 17 17.5523 17 17C17 16.4477 17.4477 16 18 16C18.5523 16 19 16.4477 19 17ZM5 18C4.44772 18 4 17.5523 4 17C4 16.4477 4.44772 16 5 16C5.55228 16 6 16.4477 6 17C6 17.5523 5.55228 18 5 18Z" fill="#1A1A1A"/>
</svg>
