<svg width="24" height="24" viewBox="0 0 24 24" fill="none" xmlns="http://www.w3.org/2000/svg">
<path d="M12 6V14H0V17H2C2 18.6569 3.34315 20 5 20C6.65685 20 8 18.6569 8 17H15C15 18.6569 16.3431 20 18 20C19.6569 20 21 18.6569 21 17H23V14C23 13.549 22.8507 13.1329 22.5989 12.7984L22.2955 9.61991C22.0996 7.56734 20.3755 6 18.3136 6H12ZM16 8V12H14V8H16ZM20.3046 9.80995L20.5136 12H18V8H18.3136C19.3446 8 20.2066 8.78367 20.3046 9.80995ZM19 17C19 17.5523 18.5523 18 18 18C17.4477 18 17 17.5523 17 17C17 16.4477 17.4477 16 18 16C18.5523 16 19 16.4477 19 17ZM5 18C4.44772 18 4 17.5523 4 17C4 16.4477 4.44772 16 5 16C5.55228 16 6 16.4477 6 17C6 17.5523 5.55228 18 5 18Z" fill="#1A1A1A"/>
<path d="M10.5 6V12.5H0V13.5H11.5V6H10.5Z" fill="#1A1A1A"/>
</svg>
