<svg width="24" height="24" viewBox="0 0 24 24" fill="none" xmlns="http://www.w3.org/2000/svg">
<path d="M0 6C0 4.89543 0.895431 4 2 4H19.2126C21.2539 4 22.9677 5.537 23.189 7.56621L23.7945 13.1159C23.9261 13.3824 24 13.6826 24 14V18H20.8293C20.4175 19.1652 19.3062 20 18 20C16.6938 20 15.5825 19.1652 15.1707 18H7.82929C7.41746 19.1652 6.30622 20 5 20C3.69378 20 2.58254 19.1652 2.17071 18H0V6ZM19.2126 6H18V12H21.6609L21.2008 7.7831C21.0902 6.7685 20.2333 6 19.2126 6ZM16 6H2V12H16V6ZM19 17C19 16.4477 18.5523 16 18 16C17.4477 16 17 16.4477 17 17C17 17.5523 17.4477 18 18 18C18.5523 18 19 17.5523 19 17ZM5 18C5.55228 18 6 17.5523 6 17C6 16.4477 5.55228 16 5 16C4.44772 16 4 16.4477 4 17C4 17.5523 4.44772 18 5 18Z" fill="#1A1A1A"/>
</svg>
