<svg width="24" height="24" viewBox="0 0 24 24" fill="none" xmlns="http://www.w3.org/2000/svg">
<path d="M1 8V16H2C2 17.6569 3.34315 19 5 19C6.65685 19 8 17.6569 8 16H15C15 17.6569 16.3431 19 18 19C19.6569 19 21 17.6569 21 16H23V13C23 11.8954 22.1046 11 21 11H20.75L18.2 7.6C17.4446 6.59278 16.259 6 15 6H3C1.89543 6 1 6.89543 1 8ZM16.6 8.8L18.25 11H15V8C15.6295 8 16.2223 8.29639 16.6 8.8ZM19 16C19 16.5523 18.5523 17 18 17C17.4477 17 17 16.5523 17 16C17 15.4477 17.4477 15 18 15C18.5523 15 19 15.4477 19 16ZM5 17C4.44772 17 4 16.5523 4 16C4 15.4477 4.44772 15 5 15C5.55228 15 6 15.4477 6 16C6 16.5523 5.55228 17 5 17Z" fill="#1A1A1A"/>
</svg>
