<svg width="24" height="24" viewBox="0 0 24 24" fill="none" xmlns="http://www.w3.org/2000/svg">
<path d="M1 6C1 4.89543 1.89543 4 3 4H13V13H1V6Z" fill="#1A1A1A"/>
<path d="M14 6V4.5C14 4.22386 14.2239 4 14.5 4H17.3474C17.4485 4 17.5491 4.01535 17.6457 4.04552L19.2457 4.54552C20.3388 4.88713 20.0927 6.5 18.9474 6.5H14.5C14.2239 6.5 14 6.27614 14 6Z" fill="#1A1A1A"/>
<path d="M18.2684 7H14V14H1V18H2.17071C2.58254 19.1652 3.69378 20 5 20C6.30622 20 7.41746 19.1652 7.82929 18H15.1707C15.5825 19.1652 16.6938 20 18 20C19.3062 20 20.4175 19.1652 20.8293 18H23V14C23 13.5725 22.8659 13.1763 22.6374 12.8513L22.2127 10.3344C21.8878 8.40934 20.2207 7 18.2684 7ZM16 9H18.2684C19.2446 9 20.0781 9.70467 20.2406 10.6672L20.4655 12H16V9ZM19 17C19 17.5523 18.5523 18 18 18C17.4477 18 17 17.5523 17 17C17 16.4477 17.4477 16 18 16C18.5523 16 19 16.4477 19 17ZM5 18C4.44772 18 4 17.5523 4 17C4 16.4477 4.44772 16 5 16C5.55228 16 6 16.4477 6 17C6 17.5523 5.55228 18 5 18Z" fill="#1A1A1A"/>
</svg>
