<svg width="24" height="24" viewBox="0 0 24 24" fill="none" xmlns="http://www.w3.org/2000/svg">
<path d="M1 8C1 6.89543 1.89543 6 3 6H14.7806C16.0095 6 17.1702 6.56484 17.9284 7.53187L20.6477 11H21C22.1046 11 23 11.8954 23 13V16H21C21 17.6569 19.6569 19 18 19C16.3431 19 15 17.6569 15 16H8C8 17.6569 6.65685 19 5 19C3.34315 19 2 17.6569 2 16H1V8ZM13 11V8L3 8L3 11H13ZM15 11H18.1062L16.3545 8.76594C16.0209 8.34042 15.5314 8.07065 15 8.01205V11ZM19 16C19 15.4477 18.5523 15 18 15C17.4477 15 17 15.4477 17 16C17 16.5523 17.4477 17 18 17C18.5523 17 19 16.5523 19 16ZM5 17C5.55228 17 6 16.5523 6 16C6 15.4477 5.55228 15 5 15C4.44772 15 4 15.4477 4 16C4 16.5523 4.44772 17 5 17Z" fill="#1A1A1A"/>
</svg>
