<svg width="100" height="57" viewBox="0 0 100 57" fill="none" xmlns="http://www.w3.org/2000/svg">
<path d="M98.2129 56.5653C98.1807 56.4717 98.1557 56.3714 98.1377 56.2641C98.1197 56.157 98.1062 56.0389 98.0974 55.9099L98.0194 54.7053C97.9943 54.3457 97.9215 54.0473 97.8015 53.8103C97.6812 53.5732 97.4988 53.3869 97.2541 53.2516C97.1501 53.1941 97.0288 53.1471 96.8965 53.1068C97.0445 53.059 97.1829 53.001 97.308 52.9287C97.5903 52.7652 97.8069 52.5417 97.9574 52.2582C98.1082 51.9749 98.1834 51.636 98.1834 51.2418C98.1834 50.7968 98.0801 50.4117 97.874 50.0863C97.668 49.7612 97.3612 49.5091 96.9542 49.3302C96.5471 49.1513 96.0486 49.0619 95.4589 49.0619H92.0079V56.8228H93.4897V53.8062H95.3619C95.647 53.8062 95.8751 53.8448 96.0465 53.9219C96.2177 53.9992 96.3462 54.1292 96.4322 54.3117C96.5183 54.4942 96.5668 54.7464 96.5776 55.0678L96.6098 55.8881C96.6115 55.919 96.6136 55.9503 96.6153 55.982C96.617 56.014 96.6197 56.0444 96.6234 56.0734C96.6359 56.2315 96.658 56.3718 96.6891 56.4944C96.7207 56.6171 96.7651 56.7265 96.8223 56.8228H98.3421C98.2882 56.7447 98.2451 56.6588 98.2129 56.5653ZM96.0611 52.4873C95.8693 52.5762 95.6425 52.6207 95.3806 52.6207H93.4897V50.2881H95.3135C95.5968 50.2881 95.8388 50.3286 96.0398 50.4093C96.2404 50.4902 96.3946 50.6146 96.5024 50.7827C96.6098 50.9508 96.6637 51.161 96.6637 51.4135C96.6637 51.6807 96.6112 51.904 96.5065 52.084C96.4014 52.2637 96.2529 52.3982 96.0611 52.4873ZM84.7927 49.0619L81.9067 56.8228H83.4102L84.0455 55.0407H87.3101L87.9558 56.8228H89.4996L86.533 49.0619H84.7927ZM84.4836 53.8115L85.0994 52.084C85.1926 51.8077 85.2831 51.5399 85.3712 51.2799C85.459 51.0202 85.5397 50.7759 85.6132 50.547C85.6287 50.4988 85.6442 50.4457 85.6597 50.3966C85.6777 50.4503 85.6959 50.5078 85.7139 50.5605C85.7938 50.7949 85.8776 51.0406 85.9653 51.2978C86.0535 51.5548 86.1456 51.8204 86.2426 52.0948L86.8646 53.8115H84.4836ZM78.2823 53.9478H79.7804C79.7034 54.5838 79.4987 55.1315 79.1672 55.5911C78.8354 56.0507 78.4172 56.4005 77.9125 56.6403C77.4076 56.88 76.8595 57 76.2678 57C75.5611 57 74.9314 56.835 74.3783 56.5054C73.8248 56.1755 73.3927 55.7037 73.0819 55.0896C72.7708 54.4756 72.6152 53.759 72.6152 52.9395C72.6152 52.1185 72.7697 51.4017 73.0792 50.7894C73.3883 50.1773 73.8224 49.7072 74.381 49.3793C74.9395 49.0514 75.5835 48.8874 76.3135 48.8874C76.9032 48.8874 77.4353 48.9946 77.9098 49.209C78.384 49.4233 78.7802 49.7435 79.0984 50.1696C79.4167 50.5956 79.6343 51.1173 79.7509 51.7351H78.242C78.1539 51.379 78.0149 51.0861 77.8251 50.8562C77.635 50.6265 77.4103 50.4589 77.1513 50.3535C76.8921 50.2481 76.6074 50.1954 76.2972 50.1954C75.8634 50.1954 75.4849 50.3022 75.1622 50.5156C74.8395 50.7292 74.5898 51.0416 74.4132 51.453C74.2366 51.8645 74.1481 52.36 74.1481 52.9395C74.1481 53.521 74.238 54.0179 74.4172 54.4301C74.5965 54.8427 74.848 55.156 75.1717 55.3703C75.4954 55.5847 75.8739 55.6919 76.3081 55.6919C76.6236 55.6919 76.9209 55.6289 77.1998 55.5025C77.4784 55.3763 77.7143 55.1823 77.9071 54.9206C78.0996 54.6592 78.2247 54.3348 78.2823 53.9478ZM58.9751 49.0619H64.6585V50.3753H60.4572V52.2038H64.2792V53.4874H60.4572V55.5094H64.6263V56.8228H58.9751V49.0619ZM54.4549 56.8228V53.4874H50.8891L50.8892 56.8228H49.3941V49.062L50.8891 49.0619L50.8891 52.2038H54.4549V49.062L55.9499 49.0619L55.9501 56.8228H54.4549ZM40.6491 49.0619H46.9495V50.378H44.5179V56.8228H43.0225V50.378H40.6491V49.0619ZM27.1778 49.0619H33.4782V50.378H31.0966V56.8228H29.6013V50.378H27.1778V49.0619ZM23.4867 49.0619H24.9202V56.8228H23.293L20.848 52.8823C20.6813 52.6117 20.5173 52.3374 20.3559 52.0594C20.1944 51.7814 20.0421 51.5103 19.8986 51.2459C19.8744 51.2014 19.8544 51.1619 19.8315 51.1188C19.8322 51.1356 19.8333 51.1529 19.834 51.1697C19.8465 51.4903 19.8555 51.79 19.8609 52.0689C19.8664 52.3479 19.8699 52.6154 19.8718 52.8715V56.8228H18.4246V49.0619H20.0628L22.7362 53.3947C22.8797 53.6326 23.0271 53.892 23.1786 54.1726C23.2847 54.369 23.3976 54.5841 23.5138 54.8076C23.5062 54.6214 23.5002 54.4478 23.496 54.2885C23.4879 53.976 23.4849 53.6798 23.4867 53.4001V49.0619ZM9.70724 49.0619H15.3906V50.3753H11.1893V52.2038H15.0114V53.4874H11.1893V55.5094H15.3584V56.8228H9.70724V49.0619ZM6.49698 56.2641C6.47902 56.157 6.46546 56.0389 6.45665 55.9099L6.37853 54.7053C6.35345 54.3457 6.28092 54.0473 6.16077 53.8103C6.04062 53.5732 5.85811 53.3869 5.61341 53.2516C5.50936 53.1941 5.38807 53.1471 5.25572 53.1068C5.40373 53.059 5.54217 53.001 5.66713 52.9287C5.94962 52.7652 6.16602 52.5417 6.31668 52.2582C6.46733 51.9749 6.54274 51.636 6.54274 51.2418C6.54274 50.7968 6.43954 50.4117 6.2333 50.0863C6.02707 49.7612 5.72051 49.5091 5.31347 49.3302C4.90642 49.1513 4.40787 49.0619 3.81797 49.0619H0.367065V56.8228H1.84917V53.8062H3.72121C4.00624 53.8062 4.23451 53.8448 4.40566 53.9219C4.57699 53.9992 4.70561 54.1292 4.7917 54.3117C4.87778 54.4942 4.92608 54.7464 4.93692 55.0678L4.96912 55.8881C4.97099 55.919 4.97285 55.9503 4.97454 55.982C4.97641 56.014 4.97895 56.0444 4.98268 56.0734C4.99522 56.2315 5.01708 56.3718 5.0486 56.4944C5.07995 56.6171 5.12435 56.7265 5.18163 56.8228H6.70135C6.64763 56.7447 6.60459 56.6588 6.57222 56.5653C6.54003 56.4717 6.51478 56.3714 6.49698 56.2641ZM4.42058 52.4873C4.22858 52.5762 4.00184 52.6207 3.74002 52.6207H1.84917V50.2881H3.67274C3.95608 50.2881 4.19807 50.3286 4.39905 50.4093C4.59987 50.4902 4.75407 50.6146 4.86168 50.7827C4.96912 50.9508 5.02301 51.161 5.02301 51.4135C5.02301 51.6807 4.97048 51.904 4.86558 52.084C4.76068 52.2637 4.61241 52.3982 4.42058 52.4873Z" fill="white"/>
<path d="M39.2208 7.82572C36.9444 8.1219 33.8824 8.12061 31.4042 8.09932V16.2823H36.0312C42.355 16.2823 57.6674 14.9206 62.2462 0H52.4771C49.5966 5.67885 44.6786 7.1275 39.2208 7.82572Z" fill="#FF5000"/>
<path d="M100 6.43468V14.8871H90.4728V40.1659H80.5204V14.8871H73.0686L66.5597 24.1388L79.3118 40.1657H66.9364L59.9999 30.7606L52.7082 40.1657L31.404 40.1659V19.0509H41.1539V39.3835L53.7039 24.1388L48.5374 17.739C49.2997 17.4849 50.1434 17.1567 50.8655 16.8518C53.2388 15.8496 55.3226 14.3226 57.1878 12.7936L59.9999 16.8116L67.5893 6.43479L100 6.43468ZM29.5614 29.9494C29.5614 15.5932 9.56495 21.7156 9.56495 16.0735C9.56495 14.1355 11.6758 13.3552 14.8228 13.3552C18.6774 13.3552 23.6497 14.6514 27.5055 15.9003V7.75528C24.3035 6.8364 19.741 5.79114 14.7938 5.79114C3.65033 5.79114 0.0126903 11.0329 3.9222e-05 16.7072C-0.0320722 31.11 19.664 24.9765 19.664 30.5716C19.664 32.4555 17.5755 33.3017 13.3964 33.3048C9.28276 33.3048 4.88502 32.3067 0.367016 30.8161V38.9593C2.84499 39.9658 6.7612 41 13.4365 41C23.1969 40.956 29.5614 37.9734 29.5614 29.9494Z" fill="white"/>
</svg>
