<svg width="135" height="40" viewBox="0 0 135 40" fill="none" xmlns="http://www.w3.org/2000/svg">
<path d="M130 0H5C2.23858 0 0 2.23858 0 5V35C0 37.7614 2.23858 40 5 40H130C132.761 40 135 37.7614 135 35V5C135 2.23858 132.761 0 130 0Z" fill="black"/>
<path d="M130 0.8C132.32 0.8 134.2 2.68 134.2 5V35C134.2 37.32 132.32 39.2 130 39.2H5C2.68 39.2 0.8 37.32 0.8 35V5C0.8 2.68 2.68 0.8 5 0.8H130ZM130 0H5C2.25 0 0 2.25 0 5V35C0 37.75 2.25 40 5 40H130C132.75 40 135 37.75 135 35V5C135 2.25 132.75 0 130 0Z" fill="#A6A6A6"/>
<path d="M68.14 21.75C65.79 21.75 63.87 23.54 63.87 26C63.87 28.46 65.79 30.25 68.14 30.25C70.49 30.25 72.41 28.45 72.41 26C72.41 23.55 70.49 21.75 68.14 21.75ZM68.14 28.58C66.85 28.58 65.74 27.52 65.74 26C65.74 24.48 66.85 23.42 68.14 23.42C69.43 23.42 70.54 24.47 70.54 26C70.54 27.53 69.43 28.58 68.14 28.58ZM58.83 21.75C56.48 21.75 54.56 23.54 54.56 26C54.56 28.46 56.48 30.25 58.83 30.25C61.18 30.25 63.1 28.45 63.1 26C63.1 23.55 61.18 21.75 58.83 21.75ZM58.83 28.58C57.54 28.58 56.43 27.52 56.43 26C56.43 24.48 57.54 23.42 58.83 23.42C60.12 23.42 61.23 24.47 61.23 26C61.23 27.53 60.12 28.58 58.83 28.58ZM47.75 23.05V24.85H52.07C51.94 25.86 51.6 26.61 51.09 27.12C50.46 27.75 49.48 28.44 47.76 28.44C45.1 28.44 43.02 26.3 43.02 23.64C43.02 20.98 45.1 18.84 47.76 18.84C49.19 18.84 50.24 19.4 51.01 20.13L52.28 18.86C51.2 17.83 49.77 17.04 47.75 17.04C44.11 17.04 41.05 20 41.05 23.65C41.05 27.3 44.11 30.26 47.75 30.26C49.72 30.26 51.2 29.62 52.36 28.41C53.55 27.22 53.92 25.54 53.92 24.19C53.92 23.77 53.89 23.38 53.82 23.06H47.75V23.05ZM93.06 24.45C92.71 23.5 91.63 21.74 89.42 21.74C87.21 21.74 85.41 23.46 85.41 25.99C85.41 28.37 87.21 30.24 89.63 30.24C91.58 30.24 92.71 29.05 93.17 28.36L91.72 27.39C91.24 28.1 90.58 28.57 89.63 28.57C88.68 28.57 88 28.14 87.57 27.28L93.26 24.93L93.07 24.45H93.06ZM87.26 25.87C87.21 24.23 88.53 23.39 89.48 23.39C90.22 23.39 90.85 23.76 91.06 24.29L87.26 25.87ZM82.64 29.99H84.51V17.49H82.64V29.99ZM79.58 22.69H79.52C79.1 22.19 78.3 21.74 77.28 21.74C75.15 21.74 73.2 23.61 73.2 26.01C73.2 28.41 75.15 30.25 77.28 30.25C78.29 30.25 79.1 29.8 79.52 29.28H79.58V29.89C79.58 31.52 78.71 32.39 77.31 32.39C76.17 32.39 75.46 31.57 75.17 30.88L73.54 31.56C74.01 32.69 75.25 34.07 77.31 34.07C79.5 34.07 81.35 32.78 81.35 29.64V22H79.58V22.69ZM77.44 28.57C76.15 28.57 75.07 27.49 75.07 26.01C75.07 24.53 76.15 23.42 77.44 23.42C78.73 23.42 79.71 24.52 79.71 26.01C79.71 27.5 78.71 28.57 77.44 28.57ZM101.82 17.49H97.35V29.99H99.22V25.25H101.83C103.9 25.25 105.93 23.75 105.93 21.37C105.93 18.99 103.9 17.49 101.83 17.49H101.82ZM101.87 23.52H99.22V19.23H101.87C103.27 19.23 104.06 20.39 104.06 21.37C104.06 22.35 103.27 23.51 101.87 23.51V23.52ZM113.4 21.72C112.05 21.72 110.65 22.32 110.07 23.63L111.73 24.32C112.08 23.63 112.74 23.4 113.43 23.4C114.39 23.4 115.38 23.98 115.39 25.01V25.14C115.05 24.95 114.33 24.66 113.44 24.66C111.65 24.66 109.84 25.64 109.84 27.47C109.84 29.14 111.3 30.22 112.94 30.22C114.19 30.22 114.89 29.66 115.32 29H115.38V29.96H117.18V25.17C117.18 22.95 115.52 21.71 113.38 21.71L113.4 21.72ZM113.17 28.57C112.56 28.57 111.71 28.26 111.71 27.51C111.71 26.55 112.77 26.18 113.69 26.18C114.51 26.18 114.9 26.36 115.39 26.6C115.25 27.76 114.25 28.58 113.17 28.58V28.57ZM123.75 21.99L121.61 27.41H121.55L119.33 21.99H117.32L120.65 29.57L118.75 33.78H120.7L125.83 21.99H123.76H123.75ZM106.94 29.99H108.81V17.49H106.94V29.99Z" fill="white"/>
<path d="M47.889 10.039C47.889 10.939 47.622 11.656 47.088 12.19C46.488 12.826 45.699 13.144 44.721 13.144C43.785 13.144 42.993 12.82 42.345 12.172C41.697 11.524 41.373 10.726 41.373 9.778C41.373 8.83 41.697 8.032 42.345 7.384C42.993 6.736 43.785 6.412 44.721 6.412C45.195 6.412 45.642 6.496 46.062 6.664C46.482 6.832 46.827 7.069 47.097 7.375L46.503 7.969C46.305 7.729 46.047 7.543 45.729 7.411C45.417 7.273 45.081 7.204 44.721 7.204C44.019 7.204 43.425 7.447 42.939 7.933C42.459 8.425 42.219 9.04 42.219 9.778C42.219 10.516 42.459 11.131 42.939 11.623C43.425 12.109 44.019 12.352 44.721 12.352C45.363 12.352 45.897 12.172 46.323 11.812C46.749 11.452 46.995 10.957 47.061 10.327H44.721V9.553H47.844C47.874 9.721 47.889 9.883 47.889 10.039Z" fill="white"/>
<path d="M52.657 6.556V7.348H49.723V9.391H52.369V10.165H49.723V12.208H52.657V13H48.895V6.556H52.657Z" fill="white"/>
<path d="M55.969 7.348V13H55.141V7.348H53.341V6.556H57.769V7.348H55.969Z" fill="white"/>
<path d="M61.4389 13H60.6109V6.556H61.4389V13Z" fill="white"/>
<path d="M64.9338 7.348V13H64.1058V7.348H62.3058V6.556H66.7338V7.348H64.9338Z" fill="white"/>
<path d="M75.7089 9.778C75.7089 10.732 75.3909 11.53 74.7549 12.172C74.1129 12.82 73.3269 13.144 72.3969 13.144C71.4609 13.144 70.6749 12.82 70.0389 12.172C69.4029 11.53 69.0849 10.732 69.0849 9.778C69.0849 8.824 69.4029 8.026 70.0389 7.384C70.6749 6.736 71.4609 6.412 72.3969 6.412C73.3329 6.412 74.1189 6.739 74.7549 7.393C75.3909 8.035 75.7089 8.83 75.7089 9.778ZM69.9309 9.778C69.9309 10.522 70.1649 11.137 70.6329 11.623C71.1069 12.109 71.6949 12.352 72.3969 12.352C73.0989 12.352 73.6839 12.109 74.1519 11.623C74.6259 11.143 74.8629 10.528 74.8629 9.778C74.8629 9.028 74.6259 8.413 74.1519 7.933C73.6839 7.447 73.0989 7.204 72.3969 7.204C71.6949 7.204 71.1069 7.447 70.6329 7.933C70.1649 8.419 69.9309 9.034 69.9309 9.778Z" fill="white"/>
<path d="M77.5141 13H76.6861V6.556H77.6941L80.8261 11.569H80.8621L80.8261 10.327V6.556H81.6541V13H80.7901L77.5141 7.744H77.4781L77.5141 8.986V13Z" fill="white"/>
<path d="M20.72 19.42L10.07 30.72C10.4 31.95 11.52 32.85 12.85 32.85C13.38 32.85 13.88 32.71 14.31 32.45L14.34 32.43L26.32 25.52L20.71 19.41L20.72 19.42Z" fill="#EA4335"/>
<path d="M31.49 17.5H31.48L26.31 14.49L20.48 19.68L26.33 25.53L31.48 22.56C32.38 22.07 32.99 21.12 32.99 20.03C32.99 18.94 32.39 17.99 31.49 17.51V17.5Z" fill="#FBBC04"/>
<path d="M10.07 9.28C10.01 9.52 9.97 9.76 9.97 10.02V29.99C9.97 30.25 10 30.49 10.07 30.73L21.08 19.72L10.07 9.28Z" fill="#4285F4"/>
<path d="M20.8 20L26.31 14.49L14.34 7.55C13.91 7.29 13.4 7.14 12.85 7.14C11.52 7.14 10.4 8.05 10.07 9.27L20.8 19.99V20Z" fill="#34A853"/>
</svg>
